<svg width="16" height="10" viewBox="0 0 16 10" fill="none" xmlns="http://www.w3.org/2000/svg">
<path d="M3.25198 0.737247L0.639314 3.34991C0.215065 3.79449 -0.021639 4.38539 -0.021639 4.99991C-0.0216389 5.61443 0.215065 6.20534 0.639315 6.64991L3.25198 9.26258C3.43949 9.45018 3.69384 9.5556 3.95908 9.55567C4.22432 9.55573 4.47872 9.45042 4.66632 9.26291C4.85391 9.07541 4.95934 8.82105 4.9594 8.55582C4.95946 8.29058 4.85416 8.03618 4.66665 7.84858L2.81331 5.99458L14.98 5.97925C15.2452 5.97925 15.4996 5.87389 15.6871 5.68635C15.8746 5.49882 15.98 5.24446 15.98 4.97925V4.97925C15.98 4.71403 15.8746 4.45968 15.6871 4.27214C15.4996 4.0846 15.2452 3.97925 14.98 3.97925L2.82598 3.99458L4.66665 2.15125C4.84881 1.96264 4.9496 1.71004 4.94732 1.44784C4.94504 1.18565 4.83987 0.934835 4.65447 0.749427C4.46906 0.564019 4.21825 0.45885 3.95605 0.456572C3.69385 0.454293 3.44125 0.555089 3.25265 0.737247L3.25198 0.737247Z" fill="white"/>
</svg>
