<?xml version="1.0" encoding="utf-8"?>
<!-- Generator: Adobe Illustrator 16.0.0, SVG Export Plug-In . SVG Version: 6.00 Build 0)  -->
<!DOCTYPE svg PUBLIC "-//W3C//DTD SVG 1.1//EN" "http://www.w3.org/Graphics/SVG/1.1/DTD/svg11.dtd">
<svg version="1.1" id="Слой_1" xmlns="http://www.w3.org/2000/svg" xmlns:xlink="http://www.w3.org/1999/xlink" x="0px" y="0px"
	 width="320px" height="190px" viewBox="0 0 320 190" enable-background="new 0 0 320 190" xml:space="preserve">
<g id="Maestro">
	<g>
		<path fill="#009DDD" d="M160,165.046c19.321-17.266,31.513-42.328,31.513-70.178c0-27.847-12.192-52.909-31.513-70.363
			C143.12,9.283,120.61,0,95.851,0C42.954,0,0,42.514,0,94.868c0,52.355,42.954,94.683,95.851,94.683
			C120.61,189.549,143.12,180.269,160,165.046L160,165.046z"/>
		<path fill="#009DDD" d="M160,165.046c19.321-17.266,31.513-42.328,31.513-70.178c0-27.847-12.192-52.909-31.513-70.363V165.046
			L160,165.046z"/>
		<path fill="#ED1C2E" d="M224.341,0C199.581,0,177.07,9.283,160,24.505c-3.375,3.155-6.564,6.499-9.563,10.024h19.316
			c2.626,3.156,5.066,6.684,7.316,10.027H143.12c-2.064,3.342-3.94,6.682-5.626,10.024h45.017c1.5,3.342,3.002,6.683,4.125,10.024
			h-53.083c-1.125,3.343-2.063,6.683-2.814,10.211h58.712c1.313,6.312,2.062,13.182,2.062,20.051
			c0,10.396-1.689,20.607-4.876,30.074h-53.084c1.125,3.344,2.439,6.685,3.94,10.025h45.017c-1.688,3.34-3.377,6.866-5.44,10.025
			h-33.951c2.25,3.527,4.689,6.869,7.318,10.023h19.316c-2.999,3.529-6.189,6.87-9.753,10.029
			c17.07,15.221,39.581,24.503,64.34,24.503c52.895,0,95.661-42.327,95.661-94.681C320.004,42.514,277.235,0,224.341,0L224.341,0z"
			/>
		<polygon fill="#FFFFFF" points="83.845,118.446 71.841,118.446 78.968,81.5 62.649,118.446 51.771,118.446 49.896,81.688 
			42.768,118.446 31.889,118.446 41.078,70.362 59.835,70.362 60.773,100.065 73.904,70.362 93.225,70.362 		"/>
		<path fill="#FFFFFF" d="M217.024,117.89c-3.377,0.928-5.818,1.298-8.627,1.298c-6.005,0-9.379-2.97-9.379-8.54
			c0-1.113,0.188-2.227,0.372-3.525l0.75-3.898l0.562-2.97l5.444-29.892h11.815l-1.688,8.91h6.189l-1.686,9.47h-6.193l-3,16.337
			c-0.188,0.743-0.379,1.298-0.379,1.67c0,2.042,1.315,2.973,4.13,2.973c1.314,0,2.437-0.187,3.187-0.373L217.024,117.89
			L217.024,117.89z"/>
		<path fill="#FFFFFF" d="M251.726,79.645c-0.941-0.372-1.127-0.372-1.315-0.372c-0.563-0.184-0.937-0.184-0.937-0.372
			c-0.375,0-0.748,0-1.314,0c-3.938,0-6.75,1.672-10.315,6.312l1.126-5.941h-10.883l-7.311,39.172h12.002
			c4.315-23.947,6.005-28.218,11.817-28.218c0.374,0,0.937,0.184,1.497,0.184l1.317,0.372L251.726,79.645L251.726,79.645z"/>
		<path fill="#FFFFFF" d="M169.754,91.712c0,4.828,2.813,8.353,9.194,10.767c4.877,2.042,5.624,2.599,5.624,4.457
			c0,2.412-2.251,3.526-6.941,3.526c-3.562,0-6.938-0.557-10.874-1.671l-1.505,9.1h0.563l2.063,0.555
			c0.754,0,1.876,0.187,3.189,0.187c2.816,0.372,5.065,0.372,6.753,0.372c12.568,0,18.573-4.086,18.573-12.996
			c0-5.383-2.439-8.54-8.631-10.953c-5.066-1.857-5.626-2.414-5.626-4.271c0-2.041,2.065-3.154,6.003-3.154
			c2.251,0,5.629,0.186,8.627,0.556l1.688-8.911c-3.188-0.557-7.879-0.742-10.504-0.742
			C174.444,78.531,169.754,84.471,169.754,91.712L169.754,91.712z"/>
		<path fill="#FFFFFF" d="M122.487,118.446h-9.754l0.187-4.086c-3.002,3.158-7.128,4.643-12.568,4.643
			c-6.377,0-10.878-4.27-10.878-10.584c0-9.469,7.689-15.039,21.008-15.039c1.311,0,3,0,4.876,0.188
			c0.376-1.3,0.376-1.857,0.376-2.415c0-2.598-2.064-3.526-7.691-3.526c-3.377,0-7.128,0.371-9.754,0.928l-1.688,0.557l-1.125,0.184
			l1.687-8.724c6.002-1.485,9.753-2.043,14.256-2.043c10.315,0,15.567,3.9,15.567,11.325c0,2.041-0.186,3.525-0.936,7.798
			l-2.439,13.921l-0.375,2.413l-0.376,2.043l-0.187,1.299L122.487,118.446L122.487,118.446z M113.857,100.994
			c-1.313-0.187-1.875-0.187-2.626-0.187c-6.752,0-10.13,2.043-10.13,5.94c0,2.413,1.502,4.087,4.127,4.087
			C110.106,110.835,113.669,106.749,113.857,100.994L113.857,100.994z"/>
		<path fill="#FFFFFF" d="M161.69,117.519c-4.126,1.112-8.067,1.669-12.193,1.669c-13.318,0-20.26-6.126-20.26-17.638
			c0-13.367,8.817-23.208,20.824-23.208c9.752,0,15.941,5.57,15.941,14.112c0,2.969-0.373,5.754-1.312,9.65h-23.822
			c0,0.745,0,0.93,0,1.302c0,4.454,3.377,6.87,10.317,6.87c4.313,0,8.254-0.742,12.378-2.416L161.69,117.519L161.69,117.519z
			 M155.312,94.311c0-0.741,0-1.485,0-2.042c0-3.155-2.063-5.011-5.627-5.011c-3.752,0-6.378,2.599-7.504,7.053H155.312
			L155.312,94.311z"/>
		<path fill="#FFFFFF" d="M288.869,100.624c-1.881,12.996-11.071,18.748-23.265,18.748c-13.316,0-18.758-7.98-18.758-18.006
			c0-13.737,9.19-23.207,23.448-23.207c12.379,0,18.945,7.796,18.945,17.636C289.24,98.21,289.24,98.394,288.869,100.624
			L288.869,100.624z M276.486,95.613c0-4.085-1.689-7.798-6.567-7.798c-6,0-9.753,7.053-9.753,13.366
			c0,5.197,2.626,8.726,6.752,8.726c2.628,0,8.255-3.528,9.194-9.47C276.486,98.952,276.486,97.282,276.486,95.613L276.486,95.613z"
			/>
	</g>
</g>
</svg>
