<svg width="200" height="80" viewBox="0 0 200 80" fill="none" xmlns="http://www.w3.org/2000/svg">
<g clip-path="url(#clip0)">
<path d="M96.9 36.7C95 36.7 94.3 36.9 92.9 37.1C92 37.3 92.1 37.1 92.1 36.4V32.6C92.1 31 92.3 30.1 94.3 29.8C95 29.7 95.6 29.8 95.6 29.1C95.6 28.8 95.4 28.4 94.4 28.4H85.4C85 28.4 84.2 28.4 84.2 29.1C84.2 29.7 84.8 29.7 85.4 29.8C87 30 87.7 30.3 87.7 32.8V44.5C87.7 46.3 87.7 47.3 85.3 47.5C85 47.5 84.2 47.6 84.2 48.2C84.2 48.9 85 48.9 85.5 48.9C87 48.9 88.4 48.7 89.9 48.7C92 48.7 94.1 48.9 96.2 48.9C103.1 48.9 104.9 45.2 104.9 42.4C104.7 40.2 103.4 36.7 96.9 36.7ZM95.2 47.8C92.7 47.8 92 47.2 92 44.2V39.2C92 38.6 92.2 38.5 92.7 38.4C93 38.4 94.1 38.2 95.1 38.2C95.9 38.2 99.8 38.2 99.8 43C99.9 43.8 99.7 47.8 95.2 47.8Z" fill="#14315C"/>
<path d="M56.8 30.6C55 28.9 52.2 27.6 48.5 27.6C44.8 27.6 42 29 40.2 30.7C38.2 32.5 36.6 35.7 36.6 38.8C36.6 40.2 36.9 41.5 37.4 42.8C38.5 44.1 39.7 44.8 41.1 45C41.7 45.1 42.2 45 42.8 44.9C41.6 42.7 41.4 40.2 41.4 38.5C41.4 36.4 41.6 34.1 43.1 32C44.6 29.8 46.5 29.1 48.3 29.1C49.8 29.1 52.1 29.6 53.8 32.2C55 34 55.6 36.5 55.6 39.1C55.6 41.6 55.1 44 53.9 45.7C52.6 47.6 50.5 48.6 48.5 48.6C47.6 48.6 46.4 48.4 45.1 47.6C44.5 48.1 43.9 48.5 43.2 49C44.6 49.6 46.3 50 48.3 50C52.1 50 54.8 48.6 56.7 46.9C59.2 44.6 60.3 41.5 60.3 38.8C60.3 36.1 59.2 32.8 56.8 30.6Z" fill="#14315C"/>
<path d="M47.2 43.7C47.2 43.7 41 49.1 36.4 43.2L32.3 37.6C30 34.5 26.6 32.8 23.8 32.1V32C24.9 31.7 27.2 30.8 28.5 27L29.4 24.2C29.7 23.2 30.2 21.5 31.3 21.5C31.9 21.5 32.1 21.9 32.3 22.3C32.7 23 33.1 23.9 34.6 23.9C36.1 23.9 37.1 22.7 37.1 21.3C37.1 20.1 36.3 18.2 33.5 18.2C32 18.2 29.5 18.8 27.9 23.2L26.7 26.5C26.1 28.3 24.5 31.7 20.7 31.7H19.9C18.6 31.7 18.4 31.6 18.4 30.5V24C18.4 20.2 19.7 20.2 21.5 20.2C21.9 20.2 22.4 20 22.4 19.5C22.4 18.7 21.7 18.8 20.9 18.8H10.7C10 18.8 9.3 18.8 9.3 19.5C9.3 19.6 9.3 20.2 10.2 20.2C12.4 20.2 13.3 20.6 13.3 24V44.5C13.3 47.9 12.4 48.1 10.2 48.3C9.7 48.3 9.2 48.3 9.2 49C9.2 49.1 9.3 49.7 10.3 49.7H21.4C21.6 49.7 22.4 49.7 22.4 49C22.4 48.5 22.2 48.3 21.5 48.3C19.6 48.1 18.4 48.3 18.4 44.5V34C18.4 33.7 18.4 33.3 18.6 33.1L18.7 33C20.7 33.2 23.5 34.1 25.8 37.5L31.2 45.5C32.4 47.2 34.1 49.6 37.5 49.6C43.3 49.6 47.2 43.7 47.2 43.7Z" fill="#14315C"/>
<path d="M156 47.6C153.7 47.4 153.6 46.5 153.6 44.6V30.2C153.6 29.8 154 29.7 154.2 29.7H158.1C160.6 29.7 161.2 31.2 161.7 32.3L162.3 33.7C162.5 34.2 162.7 34.6 163.3 34.6C164.1 34.6 164.1 33.7 164 33.1L163.7 29.7C163.7 29.4 163.6 29.1 163.6 28.8C163.6 28.5 163.6 28.2 163.6 27.9C163.6 27.4 163.5 26.9 162.7 26.9C162 26.9 162 27.4 161.8 27.7C161.5 28.3 160.9 28.4 157.6 28.4H147C146.7 28.4 146.4 28.4 146.3 28.5C144.9 28.5 142.7 28.4 141.7 28.4C140.5 28.4 140.4 28.8 140.4 29.1C140.4 29.8 141.1 29.8 141.6 29.8C142.5 29.8 143.9 29.9 143.9 31.5C143.9 32.3 143.5 33.2 143.1 34.1L139.3 43C139.1 43.6 138.9 43.9 138.8 43.9C138.7 43.9 138.5 43.6 138.3 43L133.7 32.4C133.2 31.3 132.6 30 134.8 29.8C136 29.7 136.3 29.7 136.3 29C136.3 28.7 136.2 28.3 135 28.3H125.9C125.7 28.3 125.5 28.3 125.4 28.3C125.3 28.3 125.2 28.3 125.1 28.3H116.3C115.8 28.3 115 28.3 115 29C115 29.6 115.6 29.6 116.1 29.7C116.7 29.8 117.3 29.9 117.6 30.2C118.1 30.7 118.2 31.8 118.2 32.5V36.3C118.2 37.3 118.2 37.8 117.1 38.4C115.8 39.1 114.2 39.2 113.5 39.2C111.3 39.2 109 38.5 109 34V32.3C109 29.9 109.8 29.8 111.1 29.6C111.7 29.5 112.2 29.5 112.2 28.9C112.2 28.2 111.3 28.2 111 28.2H102.8C102.5 28.2 101.6 28.2 101.6 28.9C101.6 29.5 101.9 29.4 102.6 29.6C103.1 29.7 103.6 29.8 103.9 30.1C104.4 30.5 104.5 31.5 104.5 32.3V35.1C104.5 38.8 106.9 41.3 111.3 41.3C113.7 41.3 116.4 40.6 117.7 39.8C117.9 39.7 118 39.6 118.2 39.7C118.4 39.8 118.3 39.9 118.3 40.1V44.5C118.3 47.3 117.1 47.3 115.3 47.5C114.7 47.6 114.2 47.6 114.2 48.2C114.2 48.9 114.8 48.9 115.5 48.9H125C125.7 48.9 126.3 48.9 126.3 48.2C126.3 47.6 125.4 47.5 125.2 47.5C122.9 47.3 122.9 46.5 122.9 44.5V32.8C122.9 32.1 122.9 30.8 123.6 30.3C123.9 30 124.5 29.9 125.3 29.8C125.5 29.8 125.6 29.8 125.8 29.7C125.9 29.7 125.9 29.7 126 29.7C127.2 29.7 127.6 29.8 128.8 32.3L135.8 47.9C136.3 49 136.4 49.5 136.4 49.7C136.4 49.9 136.3 50.2 135.9 51.1L135.1 52.8C134.7 53.6 134.1 54.4 133.6 54.3C133.3 54.3 132.9 53.9 132.7 53.7C132.4 53.5 132 53.2 131.4 53.1C130.6 53 129 53.2 128.7 55.3C128.5 57 129.8 57.9 131.1 58C132.9 58.2 134.2 57 135 56L135.2 55.7L145.1 34C145.4 33.3 145.6 32.8 145.9 32.3L147.1 29.7C149.6 29.9 149.4 31.3 149.4 32.7V44.4C149.4 46.7 148.9 47.1 148.1 47.3L147.2 47.5C146.7 47.6 146 47.5 146 48.2C146 48.6 146.1 48.9 147.2 48.9H156.2C156.9 48.9 157.5 48.9 157.5 48.2C157.1 47.7 156.4 47.6 156 47.6Z" fill="#14315C"/>
<path d="M189.6 47.6C188.2 47.5 187.7 47.3 186.7 44.8L177.7 22.2C177.5 21.6 177.3 21.1 177 20.4C176.8 20 176.6 19.7 176.1 19.7C175.5 19.7 175.3 20.1 175.2 20.3C175 20.8 174.8 21.6 174.3 22.8L168.4 38.2L164 39.2C158.3 40.3 156.7 34 156.7 34C156.7 34 156.6 39.4 160.4 42.3C162.6 44 164.8 43.5 166.3 43.1L166.5 43L166.2 43.8C165.2 46.5 164.2 47.1 163.1 47.3L162.5 47.4C162 47.5 161.3 47.7 161.3 48.3C161.3 49 162 49 162.5 49H170.6C171.7 49 171.7 48.5 171.7 48.3C171.7 47.9 171.7 47.6 170.5 47.5C169.8 47.5 167.5 47.4 167.5 45.6C167.5 45.2 167.5 44.8 167.8 44.1L168.4 42.4L173.3 41.1C177.5 40 179 41.2 180.1 42L181.2 44.9C181.4 45.4 181.5 45.7 181.5 46.3C181.5 46.9 181.2 47.3 180.4 47.4C180.1 47.4 179.8 47.4 179.5 47.4C178.1 47.4 178 47.7 178 48.2C178 48.5 178.1 49 179.3 49H190C190.3 49 191 49 191 48.3C190.9 47.7 190.2 47.6 189.6 47.6ZM178.3 39.7C176.5 38.5 173.2 37.4 170 37.8L170.6 36.1L173.9 27.3C174 27.1 174 26.9 174.2 26.9C174.4 26.9 174.4 27.1 174.4 27.3L177.8 36.1L179.2 39.7L179.5 40.4L178.3 39.7Z" fill="#14315C"/>
<path d="M2.6 56.7C1.2 56.7 0 57.9 0 59.3C0 60.8 1.2 62 2.6 62C3.8 62 4.9 61.1 5.1 59.9H124.6V58.8H5.2C4.9 57.6 3.9 56.7 2.6 56.7Z" fill="#14315C"/>
<path d="M197.4 56.7C196.1 56.7 195.1 57.6 194.9 58.8H138.9V59.9H194.9C195.1 61.1 196.2 62 197.4 62C198.8 62 200 60.8 200 59.4C200 57.9 198.8 56.7 197.4 56.7Z" fill="#14315C"/>
<path d="M81.5 29.7C82.1 29.6 82.2 29.4 82.2 29.1C82.2 28.7 82 28.4 81.1 28.4H63.4C63.1 28.4 62.5 28.4 62.5 28.9C62.5 29.6 63.1 29.7 63.6 29.7C64.2 29.7 64.9 29.7 65.5 30.3C66.1 30.9 66.1 31.7 66.1 32.3C66.1 33.1 66 37.5 64.7 42.1C64.6 42.6 63.8 45.5 62.8 45.5C62.5 45.5 62.1 45.2 61.8 45C61.5 44.8 61.1 44.6 60.4 44.6C59.5 44.6 58 45 58 47.1C58 48.8 59.4 49.5 60.7 49.5C62.6 49.5 63.8 48 64.5 46.8C66.1 44.2 66.7 41.5 67.1 39C67.7 35.4 67.8 33.5 68 31.7C68.2 30.2 68.5 29.5 71.3 29.5C73.3 29.5 74.2 29.7 74.2 32.2V44.5C74.2 47 73.4 47.2 72.2 47.4C71.5 47.5 70.7 47.5 70.7 48.2C70.7 48.6 71.1 48.9 71.8 48.9H81C82.1 48.9 82.1 48.4 82.1 48.2C82.1 47.7 81.7 47.6 81.4 47.6C80.8 47.5 80.3 47.5 79.7 47.2C78.9 46.8 78.6 46.3 78.6 44.5V32.8C78.7 30.9 78.5 30.1 81.5 29.7Z" fill="#14315C"/>
</g>
<defs>
<clipPath id="clip0">
<rect width="200" height="80" fill="white"/>
</clipPath>
</defs>
</svg>
