<?xml version="1.0" encoding="utf-8"?>
<!-- Generator: Adobe Illustrator 22.1.0, SVG Export Plug-In . SVG Version: 6.00 Build 0)  -->
<svg version="1.1" id="Layer_1" xmlns="http://www.w3.org/2000/svg" xmlns:xlink="http://www.w3.org/1999/xlink" x="0px" y="0px"
	 viewBox="0 0 246.4 78.3" style="enable-background:new 0 0 246.4 78.3;" xml:space="preserve">
<style type="text/css">
	.st0{fill:#002856;}
</style>
<g>
	<path class="st0" d="M117.7,39.1c-2.9,0-3.7-0.7-3.7-4.2v-5.8c0-0.7,0.2-0.9,0.9-0.9c0.4,0,1.6-0.3,2.8-0.3c0.9,0,5.4,0,5.4,5.5
		C123.1,34.5,123,39.1,117.7,39.1 M119.6,26.2c-2.2,0-3,0.2-4.7,0.5c-1,0.2-0.9,0-0.9-0.9v-4.4c0-1.9,0.2-2.9,2.5-3.2
		c0.8-0.1,1.5,0,1.5-0.9c0-0.4-0.2-0.8-1.4-0.8h-10.5c-0.5,0-1.4,0-1.4,0.8c0,0.7,0.7,0.7,1.4,0.8c1.9,0.2,2.7,0.6,2.7,3.5v13.6
		c0,2,0,3.2-2.8,3.5c-0.4,0-1.3,0.1-1.3,0.8c0,0.8,0.9,0.8,1.6,0.8c1.7,0,3.4-0.2,5.1-0.2c2.4,0,4.8,0.3,7.3,0.3
		c8,0,10.1-4.3,10.1-7.5C128.7,30.2,127.2,26.2,119.6,26.2z M73.1,19.2c-2.1-1.9-5.3-3.5-9.6-3.5c-4.3,0-7.5,1.6-9.7,3.6
		c-2.3,2.1-4.2,5.7-4.2,9.4c0,1.6,0.4,3.1,0.9,4.6c1.3,1.5,2.7,2.4,4.3,2.5c0.7,0.1,1.3,0,2-0.1c-1.4-2.6-1.6-5.4-1.6-7.4
		c0-2.4,0.3-5.1,1.9-7.5c1.7-2.5,3.9-3.4,6.1-3.4c1.8,0,4.4,0.6,6.4,3.6c1.4,2.1,2.1,4.9,2.1,8c0,2.8-0.6,5.7-1.9,7.6
		c-1.5,2.2-4,3.4-6.2,3.4c-1,0-2.5-0.2-4-1.2c-0.6,0.6-1.4,1.1-2.2,1.6c1.7,0.7,3.6,1.2,5.9,1.2c4.5,0,7.6-1.7,9.7-3.6
		c2.9-2.7,4.2-6.3,4.2-9.5S75.9,21.7,73.1,19.2z M62,34.3c0,0-7.2,6.3-12.6-0.5l-4.8-6.5c-2.6-3.6-6.6-5.6-9.9-6.4v-0.1
		c1.3-0.3,3.9-1.4,5.4-5.8l1.1-3.2c0.4-1.1,0.9-3.2,2.2-3.2c0.7,0,0.9,0.5,1.1,0.9c0.4,0.8,0.9,1.9,2.7,1.9c1.8,0,2.9-1.4,2.9-3
		c0-1.4-0.9-3.6-4.2-3.6c-1.8,0-4.7,0.7-6.5,5.7l-1.4,3.8c-0.7,2-2.5,6-6.9,6h-0.9c-1.5,0-1.7-0.1-1.7-1.4v-7.5
		c0-4.4,1.5-4.4,3.6-4.4c0.5,0,1.1-0.3,1.1-0.8c0-0.9-0.8-0.9-1.7-0.9H19.6c-0.9,0-1.7,0-1.7,0.9c0,0.1,0,0.8,1.1,0.8
		c2.6,0,3.7,0.5,3.7,4.4V35c0,3.9-1.1,4.2-3.6,4.4c-0.6,0-1.1,0-1.1,0.8c0,0.1,0.1,0.9,1.2,0.9h12.9c0.2,0,1.2,0,1.2-0.9
		c0-0.6-0.3-0.8-1-0.8c-2.2-0.2-3.7,0-3.7-4.4V23.1c0-0.4-0.1-0.8,0.2-1c0,0,0.1-0.1,0.2-0.1c2.3,0.3,5.6,1.3,8.3,5.2l6.3,9.3
		c1.4,2,3.4,4.7,7.3,4.7C57.4,41.2,62,34.3,62,34.3z M188.3,38.9c-2.6-0.2-2.8-1.2-2.8-3.5V18.7c0-0.5,0.5-0.6,0.7-0.6h4.5
		c2.9,0,3.6,1.7,4.1,3l0.7,1.7c0.2,0.6,0.4,1.1,1.2,1.1c0.9,0,0.9-1,0.9-1.7l-0.3-3.9c0-0.3-0.1-0.7-0.1-1c0-0.4,0-0.7,0-1.1
		c0-0.6-0.1-1.2-1-1.2c-0.8,0-0.8,0.5-1,0.9c-0.3,0.7-1,0.8-4.9,0.8h-12.4c-0.4,0-0.6,0-0.9,0.1c-1.6,0-4.2-0.1-5.3-0.1
		c-1.4,0-1.5,0.5-1.5,0.8c0,0.8,0.9,0.8,1.4,0.9c1,0,2.7,0.1,2.7,2c0,0.9-0.4,1.9-0.9,3l-4.5,10.4c-0.3,0.7-0.4,1-0.6,1
		c-0.1,0-0.3-0.4-0.6-1l-5.4-12.3c-0.6-1.3-1.2-2.8,1.3-3c1.4-0.1,1.8-0.1,1.8-0.9c0-0.3-0.1-0.8-1.5-0.8h-10.6c-0.2,0-0.4,0-0.6,0
		c-0.1,0-0.2,0-0.4,0h-10.2c-0.6,0-1.5,0-1.5,0.8c0,0.7,0.7,0.7,1.3,0.8c0.7,0.1,1.4,0.2,1.8,0.6c0.6,0.6,0.7,1.9,0.7,2.7v4.4
		c0,1.1,0.1,1.8-1.2,2.5c-1.5,0.9-3.4,0.9-4.2,0.9c-2.6,0-5.3-0.8-5.3-6v-2c0-2.7,0.9-2.8,2.4-3.1c0.7-0.1,1.3-0.1,1.3-0.8
		c0-0.8-1.1-0.8-1.4-0.8h-9.6c-0.4,0-1.4-0.1-1.4,0.8c0,0.7,0.3,0.6,1.1,0.8c0.6,0.1,1.2,0.2,1.5,0.5c0.6,0.5,0.7,1.7,0.7,2.5v3.2
		c0,4.3,2.8,7.2,7.9,7.2c2.8,0,5.9-0.8,7.4-1.7c0.2-0.1,0.4-0.2,0.6-0.1c0.2,0.1,0.1,0.2,0.1,0.4v5.1c0,3.2-1.4,3.3-3.5,3.5
		c-0.7,0.1-1.3,0.1-1.3,0.8c0,0.8,0.7,0.8,1.5,0.8h11c0.8,0,1.6,0,1.6-0.8c0-0.7-1-0.8-1.3-0.8c-2.6-0.2-2.7-1.1-2.7-3.5V21.7
		c0-0.9,0-2.4,0.8-2.9c0.4-0.3,1-0.4,1.9-0.6c0.2,0,0.4,0,0.5-0.1c0.1,0,0.2,0,0.2,0c1.4,0,1.9,0.1,3.2,3l8.2,18.1
		c0.6,1.3,0.7,1.8,0.7,2.1c0,0.2-0.1,0.6-0.5,1.6l-0.9,1.9c-0.5,0.9-1.2,1.8-1.8,1.8c-0.4,0-0.8-0.4-1.1-0.7
		c-0.3-0.3-0.8-0.6-1.5-0.7c-1-0.1-2.8,0.1-3.1,2.6c-0.2,2,1.3,3,2.8,3.1c2.1,0.2,3.6-1.1,4.5-2.4l0,0v0c0-0.1,0.2-0.4,0.2-0.4
		l11.4-25.2c0.3-0.8,0.6-1.4,0.9-1.9l1.4-3h0c2.9,0.2,2.7,1.8,2.7,3.5v13.6c0,2.6-0.6,3.2-1.6,3.3l-1.1,0.2c-0.5,0.1-1.3,0-1.3,0.8
		c0,0.4,0.1,0.8,1.3,0.8H188c0.8,0,1.6,0,1.6-0.8C189.6,39,188.7,38.9,188.3,38.9z M214.2,29.7c-2.1-1.4-5.9-2.7-9.7-2.2l0.7-1.9
		l3.8-10.2c0.1-0.2,0.1-0.5,0.3-0.5c0.2,0,0.2,0.3,0.3,0.5l3.9,10.2l1.6,4.2l0.3,0.8L214.2,29.7z M227.2,38.8
		c-1.7-0.1-2.2-0.3-3.4-3.3L213.3,9.3c-0.3-0.7-0.4-1.2-0.9-2.1c-0.2-0.5-0.4-0.8-1-0.8c-0.7,0-0.9,0.4-1,0.7
		c-0.3,0.6-0.5,1.5-1.1,2.9l-6.9,17.8l-5.1,1.2c-6.6,1.3-8.4-6-8.4-6s-0.1,6.3,4.3,9.6c2.6,2,5.1,1.4,6.9,0.9l0.2-0.1l-0.4,0.9
		c-1.2,3.1-2.3,3.8-3.6,4.1l-0.7,0.1c-0.6,0.1-1.3,0.3-1.3,1.1c0,0.8,0.8,0.8,1.4,0.8h9.5c1.3,0,1.3-0.6,1.3-0.8
		c0-0.5,0-0.8-1.4-0.9c-0.9,0-3.5-0.1-3.5-2.2c0-0.4,0-0.9,0.3-1.8l0.7-1.9l5.6-1.6c4.9-1.3,6.6,0.1,7.9,1.1l1.3,3.4
		c0.2,0.5,0.3,0.9,0.3,1.7c0,0.7-0.4,1.1-1.3,1.3c-0.3,0-0.7,0-1,0c-1.6,0-1.8,0.3-1.8,0.9c0,0.3,0.1,0.9,1.5,0.9h12.4
		c0.4,0,1.2,0,1.2-0.8C228.7,39,228,38.9,227.2,38.8z M10.2,49.5c-1.7,0-3,1.4-3,3c0,1.7,1.4,3,3,3c1.4,0,2.7-1,3-2.4h138.7v-1.3
		H13.2C12.9,50.5,11.7,49.5,10.2,49.5z M236.3,49.5c-1.5,0-2.7,1-3,2.4h-65v1.3h65c0.3,1.4,1.5,2.4,3,2.4c1.7,0,3-1.3,3-3
		C239.3,50.9,238,49.5,236.3,49.5z M59.1,67.2c0-0.3,0-0.7-0.1-1.1c-0.1-0.4-0.2-0.7-0.3-1c-0.1-0.3-0.3-0.5-0.6-0.7
		c-0.2-0.2-0.5-0.3-0.9-0.3c-0.4,0-0.7,0.1-0.9,0.3c-0.2,0.2-0.4,0.4-0.6,0.7c-0.1,0.3-0.2,0.6-0.3,1c-0.1,0.4-0.1,0.7-0.1,1
		c0,0.4,0,0.8,0.1,1.2s0.2,0.7,0.3,1c0.2,0.3,0.4,0.5,0.6,0.7c0.2,0.2,0.5,0.2,0.9,0.2c0.6,0,1-0.3,1.4-0.8
		C58.9,68.9,59.1,68.2,59.1,67.2z M60.5,67.2c0,0.5-0.1,0.9-0.2,1.4c-0.1,0.5-0.4,0.8-0.6,1.2c-0.3,0.4-0.7,0.6-1.1,0.8
		c-0.4,0.2-0.9,0.3-1.4,0.3c-0.4,0-0.8-0.1-1.2-0.2c-0.4-0.2-0.7-0.4-1-0.7s-0.5-0.7-0.7-1.1c-0.2-0.4-0.3-0.9-0.3-1.5
		c0-1.1,0.3-1.9,0.9-2.6c0.6-0.7,1.4-1,2.4-1c0.9,0,1.7,0.3,2.3,1C60.2,65.3,60.5,66.1,60.5,67.2z M67,69.5c0.2-0.3,0.3-0.6,0.4-1
		c0.1-0.4,0.1-0.8,0.1-1.2c0-0.3,0-0.7-0.1-1c-0.1-0.3-0.2-0.7-0.3-0.9c-0.2-0.3-0.4-0.5-0.6-0.6c-0.3-0.2-0.6-0.2-0.9-0.2
		c-0.3,0-0.6,0.1-0.9,0.2c-0.2,0.1-0.4,0.3-0.6,0.5v4c0,0.1,0.1,0.2,0.2,0.4c0.1,0.1,0.2,0.2,0.3,0.3c0.1,0.1,0.3,0.2,0.5,0.3
		s0.4,0.1,0.6,0.1c0.3,0,0.5-0.1,0.7-0.2C66.7,70,66.9,69.8,67,69.5z M68.1,64.7c0.3,0.3,0.5,0.7,0.6,1.1c0.1,0.4,0.2,0.9,0.2,1.4
		c0,0.5-0.1,1-0.3,1.5c-0.2,0.4-0.4,0.8-0.7,1.1c-0.3,0.3-0.6,0.6-1,0.7c-0.4,0.2-0.8,0.3-1.2,0.3c-0.4,0-0.7,0-1-0.1
		c-0.3-0.1-0.5-0.2-0.6-0.3h-0.1v2c0,0.2,0,0.3,0.1,0.4c0.1,0.1,0.2,0.2,0.3,0.2c0.1,0,0.3,0.1,0.5,0.1c0.2,0,0.4,0.1,0.5,0.1v0.4
		h-3.8v-0.4c0.1,0,0.3,0,0.4,0c0.1,0,0.3,0,0.4-0.1c0.1,0,0.2-0.1,0.3-0.2c0.1-0.1,0.1-0.2,0.1-0.4v-7.2c0-0.1,0-0.3-0.1-0.4
		c-0.1-0.1-0.2-0.2-0.3-0.3c-0.1-0.1-0.2-0.1-0.3-0.1c-0.1,0-0.3,0-0.4-0.1V64l2.3-0.1l0.1,0.1v0.8l0.1,0c0.2-0.3,0.5-0.5,0.9-0.7
		c0.4-0.2,0.7-0.3,1-0.3c0.4,0,0.8,0.1,1.1,0.3C67.6,64.1,67.9,64.4,68.1,64.7z M70.3,72.8c0-0.2,0.1-0.4,0.2-0.6S70.8,72,71,72
		c0.1,0,0.3,0,0.4,0.1c0.1,0,0.2,0.1,0.3,0.2c0.1,0.1,0.1,0.2,0.2,0.3c0.1,0.1,0.1,0.2,0.2,0.3c0.2-0.1,0.5-0.4,0.8-1
		c0.3-0.5,0.5-1,0.7-1.4c-0.4-1.1-0.8-2-1.2-2.9c-0.3-0.9-0.7-1.7-1.1-2.6c-0.1-0.2-0.2-0.4-0.4-0.5c-0.2-0.1-0.4-0.2-0.6-0.2v-0.5
		h3.1v0.5c-0.1,0-0.3,0-0.5,0.1c-0.2,0-0.3,0.1-0.3,0.2c0,0,0,0.1,0,0.1c0,0.1,0,0.1,0.1,0.2c0.2,0.5,0.4,1.1,0.8,1.9
		c0.4,0.8,0.6,1.5,0.8,2c0.2-0.5,0.4-1,0.6-1.5c0.2-0.5,0.5-1.1,0.7-1.8c0-0.1,0.1-0.2,0.1-0.4c0.1-0.2,0.1-0.3,0.1-0.4
		c0-0.1-0.1-0.2-0.3-0.3c-0.2-0.1-0.4-0.2-0.6-0.2v-0.4h2.5v0.4c-0.1,0-0.3,0.1-0.5,0.2c-0.2,0.1-0.4,0.3-0.5,0.6
		c-0.5,1.3-1,2.4-1.4,3.4c-0.4,1-0.7,1.8-1,2.3c-0.3,0.6-0.5,1.1-0.8,1.5c-0.2,0.4-0.4,0.6-0.7,0.8c-0.2,0.2-0.4,0.3-0.6,0.4
		c-0.2,0.1-0.4,0.1-0.5,0.1c-0.4,0-0.6-0.1-0.8-0.3C70.4,73.2,70.3,73,70.3,72.8z M89.5,70.6h-2.3c-0.1-0.4-0.2-0.7-0.3-1
		s-0.2-0.6-0.4-0.9c-0.2-0.4-0.4-0.7-0.7-0.9c-0.2-0.2-0.6-0.3-1-0.3h-0.1v1.9c0,0.2,0,0.3,0.1,0.4c0.1,0.1,0.2,0.2,0.3,0.2
		c0.1,0,0.2,0.1,0.3,0.1c0.1,0,0.2,0,0.3,0v0.4h-3.2v-0.4c0.1,0,0.2,0,0.3,0c0.1,0,0.2,0,0.3,0c0.1,0,0.2-0.1,0.3-0.2
		c0.1-0.1,0.1-0.2,0.1-0.4v-2h-0.1c-0.4,0-0.8,0.1-1,0.3s-0.5,0.5-0.7,0.9c-0.2,0.3-0.3,0.6-0.4,0.9c-0.1,0.3-0.2,0.6-0.3,1h-2.3
		v-0.4c0.1,0,0.2,0,0.3,0c0.1,0,0.2,0,0.3-0.1c0.2,0,0.3-0.1,0.4-0.2c0.1-0.1,0.2-0.2,0.3-0.4c0-0.1,0.1-0.2,0.2-0.4
		c0.1-0.2,0.2-0.4,0.3-0.6c0.2-0.3,0.4-0.6,0.6-0.8c0.2-0.2,0.5-0.4,1-0.5v-0.1c-0.2-0.2-0.4-0.4-0.6-0.6c-0.1-0.3-0.2-0.5-0.3-0.7
		c-0.1-0.2-0.1-0.4-0.2-0.7c-0.1-0.2-0.2-0.4-0.2-0.5c-0.2,0.3-0.4,0.5-0.5,0.6c-0.1,0.1-0.3,0.1-0.5,0.1c-0.2,0-0.4-0.1-0.5-0.2
		C79,65,79,64.8,79,64.6c0-0.2,0.1-0.4,0.2-0.6c0.2-0.2,0.4-0.2,0.8-0.2c0.3,0,0.5,0,0.7,0.1c0.2,0.1,0.4,0.2,0.6,0.5
		c0.1,0.1,0.2,0.3,0.3,0.5c0.1,0.2,0.2,0.4,0.2,0.6c0.1,0.2,0.1,0.4,0.2,0.7c0.1,0.2,0.2,0.4,0.3,0.5c0.1,0.1,0.2,0.2,0.4,0.3
		c0.1,0.1,0.3,0.1,0.5,0.1h0.4v-1.9c0-0.1,0-0.3-0.1-0.4c-0.1-0.1-0.2-0.2-0.3-0.2c-0.1-0.1-0.2-0.1-0.3-0.1c-0.1,0-0.2,0-0.3,0
		v-0.5h3.2v0.5c-0.1,0-0.3,0-0.3,0c-0.1,0-0.2,0-0.3,0c-0.1,0-0.2,0.1-0.3,0.2c-0.1,0.1-0.1,0.2-0.1,0.4v2h0.4c0.2,0,0.3,0,0.5-0.1
		c0.1-0.1,0.3-0.1,0.4-0.2c0.1-0.1,0.2-0.3,0.3-0.5c0.1-0.2,0.2-0.4,0.2-0.6c0.1-0.2,0.1-0.4,0.2-0.6c0.1-0.2,0.2-0.4,0.3-0.5
		c0.2-0.2,0.4-0.4,0.6-0.4c0.2-0.1,0.4-0.1,0.6-0.1c0.4,0,0.6,0.1,0.8,0.2c0.2,0.1,0.2,0.3,0.2,0.6c0,0.2-0.1,0.4-0.2,0.5
		c-0.1,0.1-0.3,0.2-0.5,0.2c-0.2,0-0.4-0.1-0.5-0.2s-0.3-0.3-0.5-0.5c-0.1,0.1-0.2,0.2-0.3,0.5c-0.1,0.2-0.1,0.5-0.2,0.7
		c-0.1,0.3-0.2,0.5-0.3,0.8s-0.3,0.4-0.5,0.6v0.1c0.4,0.1,0.7,0.2,1,0.5c0.2,0.2,0.4,0.5,0.6,0.8c0.1,0.2,0.2,0.4,0.3,0.6
		c0.1,0.2,0.2,0.4,0.2,0.4c0.1,0.2,0.2,0.3,0.3,0.4c0.1,0.1,0.2,0.2,0.4,0.2c0.1,0,0.2,0,0.3,0.1c0.1,0,0.2,0,0.3,0L89.5,70.6
		L89.5,70.6z M95.4,66.5c0-0.3,0-0.5-0.1-0.8c0-0.3-0.1-0.5-0.2-0.7c-0.1-0.2-0.2-0.4-0.4-0.5c-0.2-0.1-0.4-0.2-0.7-0.2
		c-0.5,0-0.9,0.2-1.2,0.6c-0.3,0.4-0.5,1-0.5,1.7H95.4z M96.9,69c-0.3,0.5-0.7,1-1.1,1.3c-0.5,0.3-1,0.5-1.6,0.5
		c-0.5,0-1-0.1-1.4-0.3c-0.4-0.2-0.7-0.5-1-0.8c-0.3-0.3-0.5-0.7-0.6-1.1c-0.1-0.4-0.2-0.9-0.2-1.4c0-0.4,0.1-0.9,0.2-1.3
		c0.1-0.4,0.3-0.8,0.6-1.1c0.3-0.3,0.6-0.6,1-0.8c0.4-0.2,0.8-0.3,1.3-0.3c0.5,0,0.9,0.1,1.3,0.2c0.4,0.2,0.6,0.4,0.9,0.6
		c0.2,0.3,0.4,0.6,0.5,0.9c0.1,0.3,0.2,0.7,0.2,1.1V67h-4.5c0,0.4,0,0.8,0.1,1.2c0.1,0.4,0.2,0.7,0.4,0.9c0.2,0.3,0.4,0.5,0.7,0.6
		c0.3,0.2,0.6,0.2,1,0.2c0.4,0,0.8-0.1,1-0.3s0.6-0.5,0.9-1L96.9,69z M132.2,66.4c0-0.2,0-0.5-0.1-0.8c0-0.3-0.1-0.5-0.2-0.7
		c-0.1-0.2-0.3-0.4-0.4-0.5c-0.2-0.1-0.4-0.2-0.7-0.2c-0.5,0-0.9,0.2-1.2,0.6c-0.3,0.4-0.5,0.9-0.5,1.7H132.2z M133.7,69
		c-0.3,0.5-0.7,1-1.1,1.3c-0.5,0.3-1,0.5-1.6,0.5c-0.5,0-1-0.1-1.4-0.3c-0.4-0.2-0.7-0.4-1-0.8c-0.3-0.3-0.5-0.7-0.6-1.1
		c-0.1-0.4-0.2-0.9-0.2-1.4c0-0.4,0.1-0.9,0.2-1.3c0.1-0.4,0.3-0.8,0.6-1.1c0.3-0.3,0.6-0.6,1-0.8c0.4-0.2,0.8-0.3,1.3-0.3
		s0.9,0.1,1.3,0.2c0.4,0.2,0.6,0.4,0.9,0.6c0.2,0.3,0.4,0.6,0.5,0.9c0.1,0.3,0.2,0.7,0.2,1.1V67h-4.5c0,0.4,0,0.8,0.1,1.2
		c0.1,0.4,0.2,0.7,0.4,1c0.2,0.3,0.4,0.5,0.7,0.6c0.3,0.2,0.6,0.2,1,0.2c0.4,0,0.8-0.1,1-0.3c0.3-0.2,0.6-0.5,0.9-1L133.7,69z
		 M104.3,61.1c0,0.1,0,0.3-0.1,0.5c-0.1,0.2-0.2,0.4-0.4,0.5c-0.2,0.2-0.4,0.3-0.7,0.4c-0.3,0.1-0.6,0.2-1.1,0.2
		c-0.4,0-0.8-0.1-1.1-0.2c-0.3-0.1-0.5-0.2-0.7-0.4c-0.2-0.2-0.3-0.3-0.4-0.5c-0.1-0.2-0.1-0.4-0.1-0.5c0-0.2,0.1-0.4,0.2-0.5
		c0.1-0.1,0.3-0.2,0.5-0.2c0.2,0,0.3,0,0.5,0.1c0.1,0.1,0.2,0.3,0.2,0.5c0,0.1,0,0.3-0.1,0.4c-0.1,0.2-0.1,0.3-0.1,0.4
		c0.1,0.2,0.3,0.3,0.5,0.3c0.2,0.1,0.4,0.1,0.6,0.1c0.2,0,0.4,0,0.6-0.1c0.2-0.1,0.4-0.2,0.5-0.3c0-0.1-0.1-0.2-0.1-0.4
		c0-0.2-0.1-0.3-0.1-0.4c0-0.2,0.1-0.4,0.2-0.5c0.1-0.1,0.3-0.1,0.5-0.1c0.2,0,0.3,0.1,0.5,0.2C104.3,60.7,104.3,60.9,104.3,61.1z
		 M105.8,70.6h-3.3v-0.4c0.1,0,0.2,0,0.3,0c0.1,0,0.2,0,0.3-0.1c0.1,0,0.2-0.1,0.3-0.2c0.1-0.1,0.1-0.2,0.1-0.4v-3.5l-3.1,3.3v0.1
		c0,0.2,0,0.3,0.1,0.4c0.1,0.1,0.2,0.2,0.3,0.2c0.1,0,0.2,0.1,0.3,0.1c0.1,0,0.2,0,0.4,0v0.4h-3.3v-0.4c0.1,0,0.2,0,0.3,0
		c0.1,0,0.2,0,0.3-0.1c0.1,0,0.2-0.1,0.3-0.2c0.1-0.1,0.1-0.2,0.1-0.4V65c0-0.2,0-0.3-0.1-0.4c-0.1-0.1-0.2-0.2-0.3-0.2
		s-0.2-0.1-0.3-0.1c-0.1,0-0.2,0-0.3,0v-0.5h3.3v0.5c-0.1,0-0.2,0-0.3,0c-0.1,0-0.2,0-0.3,0c-0.1,0-0.2,0.1-0.3,0.2
		c-0.1,0.1-0.1,0.2-0.1,0.4v3.5l3.1-3.4c0-0.2,0-0.4-0.1-0.4c-0.1-0.1-0.2-0.2-0.3-0.2c-0.1-0.1-0.2-0.1-0.4-0.1c-0.1,0-0.2,0-0.3,0
		v-0.5h3.3v0.5c-0.1,0-0.2,0-0.3,0c-0.1,0-0.2,0-0.3,0c-0.1,0-0.2,0.1-0.3,0.2c-0.1,0.1-0.1,0.2-0.1,0.4v4.4c0,0.2,0,0.3,0.1,0.4
		c0.1,0.1,0.1,0.2,0.3,0.2c0.1,0,0.2,0.1,0.3,0.1c0.1,0,0.2,0,0.3,0L105.8,70.6L105.8,70.6z M115.2,70.6h-3.3v-0.4
		c0.1,0,0.2,0,0.3,0c0.1,0,0.2,0,0.3-0.1c0.1,0,0.2-0.1,0.3-0.2c0.1-0.1,0.1-0.2,0.1-0.4v-2.1h-3v2.1c0,0.2,0,0.3,0.1,0.4
		c0.1,0.1,0.2,0.2,0.3,0.2c0.1,0,0.2,0.1,0.3,0.1c0.1,0,0.2,0,0.3,0v0.4h-3.3v-0.4c0.1,0,0.2,0,0.3,0c0.1,0,0.2,0,0.3-0.1
		c0.1,0,0.2-0.1,0.3-0.2c0.1-0.1,0.1-0.2,0.1-0.4v-4.4c0-0.2,0-0.3-0.1-0.4c-0.1-0.1-0.2-0.2-0.3-0.2c-0.1-0.1-0.2-0.1-0.3-0.1
		c-0.1,0-0.2,0-0.3,0v-0.5h3.3v0.5c-0.1,0-0.2,0-0.3,0c-0.1,0-0.2,0-0.3,0c-0.1,0-0.2,0.1-0.3,0.2c-0.1,0.1-0.1,0.2-0.1,0.4v1.7h3
		v-1.7c0-0.2,0-0.3-0.1-0.4c-0.1-0.1-0.2-0.2-0.3-0.2c-0.1-0.1-0.2-0.1-0.3-0.1c-0.1,0-0.2,0-0.3,0v-0.5h3.3v0.5c-0.1,0-0.2,0-0.3,0
		c-0.1,0-0.2,0-0.3,0c-0.1,0-0.2,0.1-0.3,0.2c-0.1,0.1-0.1,0.2-0.1,0.4v4.4c0,0.2,0,0.3,0.1,0.4c0.1,0.1,0.1,0.2,0.3,0.2
		c0.1,0,0.2,0.1,0.3,0.1c0.1,0,0.2,0,0.3,0L115.2,70.6L115.2,70.6z M126.6,70.6h-3.3v-0.5c0.1,0,0.2,0,0.3,0c0.1,0,0.2,0,0.3-0.1
		c0.1,0,0.2-0.1,0.3-0.2s0.1-0.2,0.1-0.4v-4.4c0-0.2,0-0.3-0.1-0.4c-0.1-0.1-0.2-0.2-0.3-0.2c-0.1-0.1-0.2-0.1-0.3-0.1
		c-0.1,0-0.2,0-0.3,0v-0.5h3.3v0.5c-0.1,0-0.2,0-0.3,0c-0.1,0-0.2,0-0.3,0c-0.1,0-0.2,0.1-0.3,0.2c-0.1,0.1-0.1,0.2-0.1,0.4v4.4
		c0,0.2,0,0.3,0.1,0.4c0.1,0.1,0.2,0.2,0.3,0.2c0.1,0,0.2,0.1,0.3,0.1c0.1,0,0.2,0,0.3,0L126.6,70.6L126.6,70.6z M121.8,68.5
		c0-0.4-0.1-0.7-0.4-1c-0.3-0.3-0.7-0.4-1.2-0.4c-0.2,0-0.4,0-0.5,0c-0.1,0-0.3,0-0.3,0v2.4c0,0.2,0.1,0.3,0.2,0.4
		c0.1,0.1,0.4,0.1,0.8,0.1c0.3,0,0.6,0,0.8-0.1c0.2-0.1,0.4-0.2,0.5-0.4c0.1-0.2,0.2-0.3,0.2-0.5C121.8,68.9,121.8,68.7,121.8,68.5z
		 M123.1,68.5c0,0.4-0.1,0.7-0.2,0.9c-0.2,0.3-0.4,0.5-0.6,0.6c-0.2,0.2-0.5,0.3-0.8,0.4c-0.3,0.1-0.6,0.1-0.9,0.1H117v-0.5
		c0.1,0,0.2,0,0.3,0c0.1,0,0.2,0,0.3-0.1c0.1,0,0.2-0.1,0.3-0.2c0.1-0.1,0.1-0.2,0.1-0.4v-4.4c0-0.2,0-0.3-0.1-0.4
		c-0.1-0.1-0.2-0.2-0.3-0.2c-0.1-0.1-0.2-0.1-0.3-0.1c-0.1,0-0.2,0-0.3,0v-0.5h3.4v0.5c-0.1,0-0.3,0-0.4,0c-0.1,0-0.2,0-0.3,0.1
		c-0.1,0-0.2,0.1-0.3,0.2c-0.1,0.1-0.1,0.2-0.1,0.4v1.6c0.2,0,0.3,0,0.5,0c0.1,0,0.3,0,0.6,0c0.4,0,0.8,0,1.2,0.1
		c0.3,0.1,0.6,0.2,0.9,0.3c0.3,0.1,0.5,0.4,0.6,0.6C123.1,67.9,123.1,68.2,123.1,68.5z M191.3,70.6h-3.3v-0.5c0.1,0,0.2,0,0.3,0
		c0.1,0,0.2,0,0.3-0.1c0.1,0,0.2-0.1,0.3-0.2s0.1-0.2,0.1-0.4v-4.4c0-0.2,0-0.3-0.1-0.4c-0.1-0.1-0.2-0.2-0.3-0.2
		c-0.1-0.1-0.2-0.1-0.3-0.1c-0.1,0-0.2,0-0.3,0v-0.5h3.3v0.5c-0.1,0-0.2,0-0.3,0c-0.1,0-0.2,0-0.3,0c-0.1,0-0.2,0.1-0.3,0.2
		c-0.1,0.1-0.1,0.2-0.1,0.4v4.4c0,0.2,0,0.3,0.1,0.4c0.1,0.1,0.2,0.2,0.3,0.2c0.1,0,0.2,0.1,0.3,0.1c0.1,0,0.2,0,0.3,0L191.3,70.6
		L191.3,70.6z M186.5,68.5c0-0.4-0.1-0.7-0.4-1c-0.3-0.3-0.7-0.4-1.2-0.4c-0.2,0-0.4,0-0.5,0c-0.1,0-0.3,0-0.3,0v2.4
		c0,0.2,0.1,0.3,0.2,0.4s0.4,0.1,0.8,0.1c0.3,0,0.6,0,0.8-0.1c0.2-0.1,0.4-0.2,0.5-0.4c0.1-0.2,0.2-0.3,0.2-0.5
		C186.5,68.9,186.5,68.7,186.5,68.5z M187.9,68.5c0,0.4-0.1,0.7-0.2,0.9c-0.2,0.3-0.4,0.5-0.6,0.6c-0.2,0.2-0.5,0.3-0.8,0.4
		c-0.3,0.1-0.6,0.1-0.9,0.1h-3.5v-0.5c0.1,0,0.2,0,0.3,0c0.1,0,0.2,0,0.3-0.1c0.1,0,0.2-0.1,0.3-0.2c0.1-0.1,0.1-0.2,0.1-0.4v-4.4
		c0-0.2,0-0.3-0.1-0.4c-0.1-0.1-0.2-0.2-0.3-0.2c-0.1-0.1-0.2-0.1-0.3-0.1c-0.1,0-0.2,0-0.3,0v-0.5h3.4v0.5c-0.1,0-0.3,0-0.4,0
		c-0.1,0-0.2,0-0.3,0.1c-0.1,0-0.2,0.1-0.3,0.2c-0.1,0.1-0.1,0.2-0.1,0.4v1.6c0.2,0,0.3,0,0.5,0c0.1,0,0.3,0,0.6,0
		c0.4,0,0.8,0,1.2,0.1c0.3,0.1,0.6,0.2,0.9,0.3c0.3,0.1,0.5,0.4,0.6,0.6C187.8,67.9,187.9,68.2,187.9,68.5z M143.9,70.8
		c-1,0-1.7-0.3-2.3-1c-0.6-0.6-0.8-1.5-0.8-2.6c0-0.5,0.1-0.9,0.2-1.3c0.1-0.4,0.4-0.8,0.6-1.1c0.3-0.3,0.6-0.6,1-0.8
		c0.4-0.2,0.8-0.3,1.3-0.3c0.7,0,1.2,0.2,1.6,0.5c0.4,0.3,0.6,0.7,0.6,1.3c0,0.2-0.1,0.4-0.2,0.6c-0.1,0.2-0.3,0.3-0.5,0.3
		c-0.3,0-0.5-0.1-0.6-0.2c-0.1-0.1-0.2-0.3-0.2-0.5c0-0.2,0-0.4,0.1-0.6c0.1-0.2,0.1-0.4,0.1-0.5c-0.1-0.1-0.2-0.2-0.4-0.3
		c-0.2,0-0.3-0.1-0.5-0.1c-0.2,0-0.4,0-0.6,0.1c-0.2,0.1-0.4,0.3-0.6,0.5c-0.2,0.2-0.3,0.5-0.4,0.9c-0.1,0.4-0.2,0.9-0.2,1.4
		c0,0.8,0.2,1.5,0.6,2.1s0.9,0.8,1.5,0.8c0.4,0,0.8-0.1,1.1-0.3c0.3-0.2,0.6-0.5,0.8-1l0.4,0.3c-0.3,0.5-0.7,1-1.2,1.3
		C145,70.6,144.4,70.8,143.9,70.8z M152,66.9c-0.4,0.1-0.7,0.2-1,0.3c-0.3,0.1-0.6,0.2-0.8,0.4c-0.2,0.2-0.4,0.3-0.5,0.6
		s-0.2,0.5-0.2,0.8c0,0.4,0.1,0.7,0.3,0.8c0.2,0.2,0.4,0.3,0.8,0.3c0.3,0,0.6-0.1,0.8-0.2c0.2-0.2,0.5-0.3,0.6-0.6L152,66.9z
		 M154.4,70.5c-0.2,0.1-0.4,0.1-0.6,0.2c-0.2,0-0.3,0.1-0.5,0.1c-0.4,0-0.6-0.1-0.8-0.2c-0.2-0.2-0.3-0.4-0.4-0.7h0
		c-0.3,0.3-0.6,0.6-1,0.8c-0.3,0.2-0.7,0.3-1.2,0.3c-0.5,0-0.9-0.2-1.2-0.5c-0.3-0.3-0.5-0.7-0.5-1.2c0-0.3,0-0.5,0.1-0.7
		c0.1-0.2,0.2-0.4,0.3-0.6c0.1-0.1,0.3-0.3,0.5-0.4c0.2-0.1,0.4-0.2,0.5-0.3c0.2-0.1,0.6-0.2,1.2-0.4s1-0.4,1.3-0.5v-0.7
		c0-0.1,0-0.2,0-0.3c0-0.2-0.1-0.3-0.2-0.5c-0.1-0.2-0.2-0.3-0.4-0.4s-0.4-0.2-0.7-0.2c-0.2,0-0.4,0-0.6,0.1
		c-0.2,0.1-0.3,0.1-0.4,0.2c0,0.1,0,0.2,0.1,0.4c0,0.2,0.1,0.3,0.1,0.5c0,0.2-0.1,0.3-0.2,0.4c-0.1,0.1-0.3,0.2-0.6,0.2
		c-0.2,0-0.4-0.1-0.5-0.2c-0.1-0.2-0.2-0.3-0.2-0.5c0-0.2,0.1-0.4,0.2-0.6c0.2-0.2,0.3-0.4,0.6-0.5c0.2-0.1,0.4-0.2,0.7-0.3
		c0.3-0.1,0.6-0.1,0.9-0.1c0.4,0,0.7,0,1,0.1c0.3,0.1,0.5,0.2,0.8,0.3c0.2,0.2,0.4,0.4,0.5,0.7c0.1,0.3,0.2,0.7,0.2,1.1
		c0,0.6,0,1.2,0,1.7c0,0.5,0,1,0,1.6c0,0.2,0,0.3,0.1,0.4c0.1,0.1,0.2,0.2,0.3,0.3c0.1,0,0.2,0.1,0.3,0.1c0.1,0,0.3,0,0.5,0
		L154.4,70.5L154.4,70.5z M163,70.6h-3.3v-0.4c0.1,0,0.2,0,0.3,0c0.1,0,0.2,0,0.3-0.1c0.1,0,0.2-0.1,0.3-0.2
		c0.1-0.1,0.1-0.2,0.1-0.4v-5h-1.9c0,1.1-0.1,2.1-0.2,2.9c-0.2,0.8-0.4,1.4-0.6,2c-0.2,0.5-0.5,0.9-0.8,1.1
		c-0.3,0.2-0.6,0.4-0.9,0.4s-0.6-0.1-0.7-0.3c-0.2-0.2-0.2-0.4-0.2-0.6c0-0.2,0.1-0.3,0.2-0.5c0.1-0.1,0.3-0.2,0.5-0.2
		c0.2,0,0.4,0.1,0.5,0.2c0.2,0.1,0.3,0.3,0.4,0.5c0.1-0.1,0.2-0.3,0.4-0.6c0.1-0.3,0.3-0.6,0.4-1c0.1-0.4,0.2-0.9,0.3-1.3
		c0.1-0.5,0.1-1,0.1-1.6c0-0.2,0-0.4-0.1-0.5c-0.1-0.1-0.2-0.2-0.3-0.3c-0.1,0-0.2-0.1-0.4-0.1c-0.2,0-0.4-0.1-0.5-0.1v-0.5h6.1v0.5
		c-0.1,0-0.2,0-0.3,0c-0.1,0-0.2,0-0.3,0c-0.1,0-0.2,0.1-0.3,0.2c-0.1,0.1-0.1,0.2-0.1,0.4v4.4c0,0.2,0,0.3,0.1,0.4
		c0.1,0.1,0.1,0.2,0.3,0.2c0.1,0,0.2,0.1,0.3,0.1c0.1,0,0.2,0,0.3,0L163,70.6L163,70.6z M169.7,67.2c0-0.3,0-0.7-0.1-1.1
		c-0.1-0.4-0.2-0.7-0.3-1c-0.1-0.3-0.3-0.5-0.6-0.7c-0.2-0.2-0.5-0.3-0.9-0.3c-0.4,0-0.7,0.1-0.9,0.3c-0.2,0.2-0.4,0.4-0.6,0.7
		c-0.1,0.3-0.2,0.6-0.3,1c-0.1,0.4-0.1,0.7-0.1,1c0,0.4,0,0.8,0.1,1.2c0.1,0.4,0.2,0.7,0.3,1c0.2,0.3,0.3,0.5,0.6,0.7
		c0.2,0.2,0.5,0.2,0.9,0.2c0.6,0,1-0.3,1.3-0.8C169.6,68.9,169.7,68.2,169.7,67.2z M171.1,67.2c0,0.5-0.1,0.9-0.2,1.4
		c-0.1,0.5-0.4,0.8-0.6,1.2c-0.3,0.4-0.7,0.6-1.1,0.8c-0.4,0.2-0.9,0.3-1.4,0.3c-0.4,0-0.8-0.1-1.2-0.2c-0.4-0.2-0.7-0.4-1-0.7
		c-0.3-0.3-0.5-0.7-0.7-1.1c-0.2-0.4-0.3-0.9-0.3-1.5c0-1.1,0.3-1.9,0.9-2.6c0.6-0.7,1.4-1,2.4-1c0.9,0,1.7,0.3,2.3,1
		C170.8,65.3,171.1,66.1,171.1,67.2z M180.2,70.6h-3.3v-0.4c0.1,0,0.2,0,0.3,0c0.1,0,0.2,0,0.3-0.1c0.1,0,0.2-0.1,0.3-0.2
		c0.1-0.1,0.1-0.2,0.1-0.4v-2.1h-3v2.1c0,0.2,0,0.3,0.1,0.4c0.1,0.1,0.2,0.2,0.3,0.2c0.1,0,0.2,0.1,0.3,0.1c0.1,0,0.2,0,0.3,0v0.4
		h-3.3v-0.4c0.1,0,0.2,0,0.3,0c0.1,0,0.2,0,0.3-0.1c0.1,0,0.2-0.1,0.3-0.2c0.1-0.1,0.1-0.2,0.1-0.4v-4.4c0-0.2,0-0.3-0.1-0.4
		c-0.1-0.1-0.2-0.2-0.3-0.2c-0.1-0.1-0.2-0.1-0.3-0.1c-0.1,0-0.2,0-0.3,0v-0.5h3.3v0.5c-0.1,0-0.2,0-0.3,0c-0.1,0-0.2,0-0.3,0
		c-0.1,0-0.2,0.1-0.3,0.2c-0.1,0.1-0.1,0.2-0.1,0.4v1.7h3v-1.7c0-0.2,0-0.3-0.1-0.4c-0.1-0.1-0.2-0.2-0.3-0.2
		c-0.1-0.1-0.2-0.1-0.3-0.1c-0.1,0-0.2,0-0.3,0v-0.5h3.3v0.5c-0.1,0-0.2,0-0.3,0c-0.1,0-0.2,0-0.3,0c-0.1,0-0.2,0.1-0.3,0.2
		c-0.1,0.1-0.1,0.2-0.1,0.4v4.4c0,0.2,0,0.3,0.1,0.4c0.1,0.1,0.1,0.2,0.3,0.2c0.1,0,0.2,0.1,0.3,0.1c0.1,0,0.2,0,0.3,0L180.2,70.6
		L180.2,70.6z M101.8,18.1c0.7-0.1,0.8-0.4,0.8-0.7c0-0.5-0.2-0.8-1.3-0.8H80.8c-0.4,0-1.1,0-1.1,0.6c0,0.8,0.7,0.9,1.3,1
		c0.7,0,1.5,0,2.2,0.7c0.7,0.7,0.7,1.6,0.7,2.4c0,0.9-0.1,6-1.6,11.4c-0.1,0.6-1.1,4-2.2,4c-0.4,0-0.8-0.3-1.1-0.6
		c-0.4-0.2-0.9-0.5-1.6-0.5c-1,0-2.8,0.4-2.8,2.9c0,2,1.7,2.8,3.1,2.8c2.2,0,3.6-1.7,4.4-3.1c1.8-3,2.6-6.2,3-9.1
		c0.7-4.2,0.8-6.4,1-8.5c0.2-1.8,0.6-2.6,3.8-2.6c2.3,0,3.4,0.2,3.4,3.1v14.3c0,2.9-0.9,3.2-2.3,3.4c-0.8,0.1-1.8,0.1-1.8,0.9
		c0,0.5,0.5,0.8,1.3,0.8h10.7c1.3,0,1.3-0.6,1.3-0.8c0-0.6-0.4-0.7-0.8-0.7c-0.7-0.1-1.3-0.1-1.9-0.4c-0.9-0.4-1.3-1.1-1.3-3.2V21.7
		C98.6,19.6,98.4,18.6,101.8,18.1z"/>
</g>
</svg>
