<?xml version="1.0" encoding="utf-8"?>
<!-- Generator: Adobe Illustrator 22.1.0, SVG Export Plug-In . SVG Version: 6.00 Build 0)  -->
<svg version="1.1" id="Слой_1" xmlns="http://www.w3.org/2000/svg" xmlns:xlink="http://www.w3.org/1999/xlink" x="0px" y="0px"
	 viewBox="0 0 200 80" style="enable-background:new 0 0 200 80;" xml:space="preserve">
<style type="text/css">
	.st0{fill:#002D5D;}
</style>
<path class="st0" d="M95.2,41c-2.5,0-3.1-0.6-3.1-3.6v-5c0-0.6,0.2-0.7,0.7-0.8c0.3,0,1.3-0.2,2.4-0.2c0.8,0,4.6,0,4.6,4.7
	C99.9,37,99.7,41,95.2,41 M96.9,30c-1.9,0-2.6,0.2-4,0.4c-0.9,0.2-0.8,0-0.8-0.7v-3.7c0-1.6,0.2-2.5,2.2-2.8c0.7-0.1,1.3,0,1.3-0.7
	c0-0.3-0.2-0.6-1.2-0.6h-9c-0.4,0-1.2,0-1.2,0.7c0,0.6,0.6,0.6,1.2,0.7c1.6,0.2,2.3,0.5,2.3,3v11.7c0,1.7,0,2.8-2.4,3
	c-0.3,0-1.1,0.1-1.1,0.7c0,0.7,0.8,0.7,1.3,0.7c1.5,0,2.9-0.2,4.3-0.2c2.1,0,4.1,0.2,6.2,0.2c6.9,0,8.6-3.7,8.6-6.5
	C104.7,33.4,103.4,30,96.9,30z M57.1,24c-1.8-1.7-4.5-3-8.2-3c-3.7,0-6.5,1.3-8.3,3c-2,1.8-3.6,4.9-3.6,8c0,1.4,0.3,2.7,0.8,3.9
	c1.1,1.3,2.3,2,3.7,2.2c0.6,0.1,1.1,0,1.7-0.1c-1.2-2.2-1.4-4.6-1.4-6.3c0-2.1,0.2-4.3,1.7-6.5c1.5-2.2,3.3-2.9,5.2-2.9
	c1.5,0,3.7,0.5,5.4,3.1c1.2,1.8,1.8,4.2,1.8,6.9c0,2.4-0.5,4.9-1.7,6.5c-1.3,1.9-3.4,2.9-5.3,2.9c-0.9,0-2.1-0.2-3.4-1
	c-0.5,0.5-1.2,0.9-1.9,1.4c1.4,0.6,3.1,1,5.1,1c3.8,0,6.5-1.4,8.3-3.1c2.5-2.3,3.6-5.4,3.6-8.1S59.5,26.1,57.1,24z M47.6,36.9
	c0,0-6.1,5.4-10.8-0.5l-4.1-5.6c-2.2-3-5.7-4.8-8.4-5.5v-0.1c1.1-0.3,3.3-1.2,4.6-5l0.9-2.8c0.3-1,0.8-2.7,1.9-2.7
	c0.6,0,0.8,0.4,1,0.8c0.4,0.7,0.8,1.6,2.3,1.6c1.5,0,2.5-1.2,2.5-2.6c0-1.2-0.8-3.1-3.6-3.1c-1.5,0-4,0.6-5.6,4.9l-1.2,3.3
	c-0.6,1.7-2.2,5.1-5.9,5.1h-0.8c-1.3,0-1.5-0.1-1.5-1.2v-6.5c0-3.8,1.3-3.7,3.1-3.8c0.4,0,0.9-0.2,0.9-0.7c0-0.8-0.6-0.7-1.5-0.7
	H11.4c-0.7,0-1.4,0-1.4,0.7c0,0.1,0,0.7,0.9,0.7c2.2,0,3.1,0.4,3.1,3.8v20.3c0,3.4-0.9,3.6-3.1,3.8c-0.5,0-1,0-1,0.7
	c0,0.1,0.1,0.7,1.1,0.7h11c0.2,0,1,0,1-0.7c0-0.5-0.2-0.7-0.9-0.7c-1.9-0.2-3.1,0-3.1-3.8V27.3c0-0.3,0-0.7,0.2-0.9
	c0,0,0.1-0.1,0.1-0.1c2,0.2,4.8,1.1,7.1,4.5l5.4,7.9c1.2,1.7,2.9,4.1,6.3,4.1C43.7,42.8,47.6,36.9,47.6,36.9z M155.6,40.8
	c-2.2-0.2-2.4-1.1-2.4-3V23.6c0-0.4,0.4-0.5,0.6-0.5h3.9c2.5,0,3.1,1.5,3.5,2.6l0.6,1.4c0.2,0.5,0.4,0.9,1,0.9
	c0.8,0,0.8-0.9,0.7-1.5l-0.3-3.4c0-0.3-0.1-0.6-0.1-0.9c0-0.3,0-0.6,0-0.9c0-0.5-0.1-1-0.9-1c-0.7,0-0.7,0.4-0.9,0.8
	c-0.3,0.6-0.9,0.7-4.2,0.7h-10.6c-0.3,0-0.6,0-0.7,0.1c-1.4,0-3.6-0.1-4.5-0.1c-1.2,0-1.3,0.4-1.3,0.6c0,0.6,0.7,0.7,1.2,0.7
	c0.9,0,2.3,0.1,2.3,1.7c0,0.8-0.4,1.7-0.8,2.6l-3.8,8.9c-0.2,0.6-0.4,0.9-0.5,0.9c-0.1,0-0.3-0.3-0.5-0.9l-4.6-10.5
	c-0.5-1.1-1.1-2.4,1.1-2.6c1.2-0.1,1.5-0.1,1.5-0.8c0-0.3-0.1-0.6-1.3-0.6h-9.1c-0.2,0-0.4,0-0.5,0c-0.1,0-0.2,0-0.3,0h-8.7
	c-0.5,0-1.3,0-1.3,0.7c0,0.6,0.6,0.6,1.1,0.7c0.6,0.1,1.2,0.2,1.5,0.5c0.5,0.5,0.6,1.6,0.6,2.3v3.8c0,1,0,1.5-1.1,2.1
	c-1.3,0.7-2.9,0.8-3.6,0.8c-2.2,0-4.5-0.7-4.5-5.1v-1.7c0-2.4,0.8-2.4,2.1-2.6c0.6-0.1,1.1-0.1,1.1-0.7c0-0.7-0.9-0.7-1.2-0.7h-8.2
	c-0.3,0-1.2,0-1.2,0.7c0,0.6,0.3,0.5,1,0.7c0.5,0.1,1,0.2,1.3,0.4c0.5,0.4,0.6,1.4,0.6,2.2v2.8c0,3.7,2.4,6.1,6.7,6.1
	c2.4,0,5-0.7,6.3-1.5c0.2-0.1,0.3-0.2,0.5-0.1c0.2,0.1,0.1,0.2,0.1,0.4v4.3c0,2.8-1.2,2.8-3,3c-0.6,0.1-1.1,0.1-1.1,0.7
	c0,0.7,0.6,0.7,1.3,0.7h9.4c0.6,0,1.3,0,1.3-0.7c0-0.6-0.9-0.7-1.1-0.7c-2.2-0.2-2.3-1-2.3-3V26.2c0-0.7,0-2,0.7-2.5
	c0.3-0.3,0.9-0.4,1.7-0.5c0.2,0,0.3,0,0.5-0.1c0.1,0,0.1,0,0.2,0c1.2,0,1.6,0.1,2.8,2.6l7,15.5c0.5,1.1,0.6,1.5,0.6,1.8
	c0,0.2-0.1,0.5-0.5,1.4l-0.8,1.7c-0.4,0.8-1,1.6-1.5,1.5c-0.3,0-0.6-0.4-0.9-0.6c-0.3-0.2-0.7-0.5-1.3-0.6c-0.8-0.1-2.4,0.1-2.7,2.2
	c-0.2,1.7,1.1,2.5,2.4,2.7c1.8,0.2,3.1-1,3.9-2v0l0,0c0,0,0.2-0.3,0.2-0.3l9.8-21.5c0.3-0.6,0.5-1.2,0.8-1.6l1.2-2.6h0
	c2.5,0.2,2.3,1.5,2.3,3v11.7c0,2.2-0.5,2.7-1.3,2.8l-0.9,0.2c-0.4,0.1-1.1,0-1.1,0.7c0,0.4,0.1,0.7,1.1,0.7h8.9c0.7,0,1.3,0,1.3-0.7
	C156.7,40.9,156,40.9,155.6,40.8z M177.8,33c-1.8-1.2-5.1-2.3-8.3-1.9l0.6-1.7l3.3-8.7c0.1-0.2,0.1-0.4,0.3-0.4
	c0.2,0,0.2,0.2,0.2,0.4l3.3,8.7l1.4,3.6l0.3,0.7L177.8,33z M188.9,40.8c-1.4-0.1-1.9-0.3-2.9-2.8L177,15.5c-0.2-0.6-0.4-1.1-0.7-1.8
	c-0.2-0.4-0.4-0.7-0.9-0.7c-0.6,0-0.8,0.4-0.9,0.6c-0.2,0.5-0.4,1.3-0.9,2.5l-5.9,15.2l-4.4,1c-5.6,1.1-7.2-5.1-7.2-5.1
	s-0.1,5.4,3.6,8.2c2.2,1.7,4.4,1.2,5.9,0.8l0.2-0.1l-0.3,0.8c-1,2.7-2,3.2-3,3.5l-0.6,0.1c-0.5,0.1-1.1,0.3-1.1,0.9
	c0,0.6,0.7,0.7,1.2,0.7h8.1c1.1,0,1.1-0.5,1.1-0.7c0-0.4,0-0.7-1.2-0.8c-0.7,0-3-0.1-3-1.9c0-0.4,0-0.8,0.3-1.5l0.6-1.7l4.8-1.3
	c4.2-1.1,5.7,0.1,6.7,0.9l1.1,2.9c0.2,0.4,0.3,0.8,0.3,1.4c0,0.6-0.3,1-1.1,1.1c-0.3,0-0.6,0-0.9,0c-1.3,0-1.5,0.3-1.5,0.8
	c0,0.3,0.1,0.8,1.3,0.8h10.6c0.3,0,1,0,1-0.6C190.2,40.9,189.6,40.9,188.9,40.8z M3.3,49.9c-1.4,0-2.6,1.2-2.6,2.6
	c0,1.4,1.2,2.6,2.6,2.6c1.2,0,2.3-0.9,2.5-2h118.6v-1.1H5.9C5.6,50.8,4.6,49.9,3.3,49.9z M196.7,49.9c-1.2,0-2.3,0.9-2.5,2h-55.6V53
	h55.6c0.2,1.2,1.3,2,2.5,2c1.4,0,2.6-1.2,2.6-2.6C199.3,51.1,198.1,49.9,196.7,49.9z M45.1,65c0-0.3,0-0.6-0.1-0.9
	c-0.1-0.3-0.1-0.6-0.3-0.8c-0.1-0.2-0.3-0.4-0.5-0.6c-0.2-0.1-0.5-0.2-0.7-0.2c-0.3,0-0.6,0.1-0.8,0.2c-0.2,0.1-0.4,0.4-0.5,0.6
	c-0.1,0.2-0.2,0.5-0.3,0.8c-0.1,0.3-0.1,0.6-0.1,0.9c0,0.4,0,0.7,0.1,1c0.1,0.3,0.2,0.6,0.3,0.8c0.1,0.3,0.3,0.4,0.5,0.6
	c0.2,0.1,0.5,0.2,0.7,0.2c0.5,0,0.9-0.2,1.2-0.7C44.9,66.5,45.1,65.9,45.1,65z M46.3,65c0,0.4-0.1,0.8-0.2,1.2
	c-0.1,0.4-0.3,0.7-0.5,1c-0.3,0.3-0.6,0.5-0.9,0.7c-0.4,0.1-0.8,0.2-1.2,0.2c-0.4,0-0.7-0.1-1-0.2c-0.3-0.1-0.6-0.3-0.9-0.6
	c-0.3-0.3-0.5-0.6-0.6-1c-0.2-0.4-0.2-0.8-0.2-1.3c0-0.9,0.3-1.6,0.8-2.2c0.5-0.6,1.2-0.9,2.1-0.9c0.8,0,1.5,0.3,2,0.8
	C46,63.4,46.3,64.1,46.3,65z M51.9,67c0.2-0.2,0.3-0.5,0.3-0.8c0.1-0.3,0.1-0.7,0.1-1.1c0-0.3,0-0.6-0.1-0.9
	c-0.1-0.3-0.2-0.6-0.3-0.8c-0.1-0.2-0.3-0.4-0.5-0.5c-0.2-0.1-0.5-0.2-0.8-0.2c-0.3,0-0.5,0.1-0.7,0.2c-0.2,0.1-0.4,0.3-0.5,0.5v3.4
	c0,0.1,0.1,0.2,0.2,0.3c0.1,0.1,0.2,0.2,0.3,0.3c0.1,0.1,0.3,0.2,0.4,0.2c0.1,0.1,0.3,0.1,0.5,0.1c0.2,0,0.4-0.1,0.6-0.2
	C51.6,67.4,51.8,67.2,51.9,67z M52.9,62.9c0.2,0.3,0.4,0.6,0.5,0.9c0.1,0.4,0.2,0.8,0.2,1.2c0,0.5-0.1,0.9-0.2,1.2
	c-0.2,0.4-0.4,0.7-0.6,1c-0.3,0.3-0.6,0.5-0.9,0.6c-0.3,0.1-0.7,0.2-1,0.2c-0.3,0-0.6,0-0.9-0.1c-0.2-0.1-0.4-0.2-0.5-0.3h0v1.7
	c0,0.1,0,0.3,0.1,0.4c0.1,0.1,0.1,0.2,0.3,0.2c0.1,0,0.2,0.1,0.4,0.1c0.2,0,0.3,0.1,0.4,0.1v0.4h-3.2v-0.4c0.1,0,0.2,0,0.3,0
	c0.1,0,0.2,0,0.3-0.1c0.1,0,0.2-0.1,0.2-0.2c0-0.1,0.1-0.2,0.1-0.3v-6.1c0-0.1,0-0.2-0.1-0.3c-0.1-0.1-0.1-0.2-0.2-0.3
	c-0.1,0-0.2-0.1-0.3-0.1c-0.1,0-0.2,0-0.4,0v-0.4l2-0.1l0.1,0.1v0.7l0,0c0.2-0.2,0.5-0.4,0.8-0.6c0.3-0.2,0.6-0.2,0.9-0.2
	c0.4,0,0.7,0.1,1,0.2C52.4,62.4,52.6,62.6,52.9,62.9z M54.7,69.8c0-0.2,0.1-0.4,0.2-0.5c0.1-0.1,0.2-0.2,0.4-0.2
	c0.1,0,0.2,0,0.3,0.1c0.1,0,0.2,0.1,0.2,0.2c0.1,0.1,0.1,0.1,0.2,0.2c0.1,0.1,0.1,0.2,0.2,0.2c0.2-0.1,0.4-0.4,0.7-0.8
	c0.3-0.4,0.5-0.8,0.6-1.2c-0.4-0.9-0.7-1.7-1-2.5c-0.3-0.7-0.6-1.5-0.9-2.3c-0.1-0.2-0.2-0.3-0.4-0.4c-0.2-0.1-0.3-0.2-0.5-0.2v-0.4
	h2.6v0.4c-0.1,0-0.3,0-0.4,0.1c-0.2,0-0.2,0.1-0.2,0.2c0,0,0,0.1,0,0.1c0,0.1,0,0.1,0.1,0.2c0.1,0.4,0.4,0.9,0.7,1.7
	c0.3,0.7,0.5,1.3,0.7,1.7c0.2-0.4,0.4-0.8,0.5-1.3c0.2-0.4,0.4-1,0.6-1.6c0-0.1,0.1-0.2,0.1-0.3c0.1-0.1,0.1-0.2,0.1-0.3
	c0-0.1-0.1-0.2-0.3-0.3c-0.2-0.1-0.3-0.1-0.5-0.2v-0.4h2.1v0.4c-0.1,0-0.3,0.1-0.5,0.2c-0.2,0.1-0.3,0.3-0.4,0.5
	c-0.5,1.1-0.9,2.1-1.2,2.9c-0.4,0.9-0.6,1.5-0.8,2c-0.2,0.5-0.5,1-0.7,1.3c-0.2,0.3-0.4,0.5-0.6,0.7c-0.2,0.2-0.3,0.3-0.5,0.3
	c-0.1,0.1-0.3,0.1-0.5,0.1c-0.3,0-0.5-0.1-0.7-0.2C54.8,70.2,54.7,70,54.7,69.8z M71.1,68h-1.9c-0.1-0.3-0.2-0.6-0.3-0.8
	c-0.1-0.2-0.2-0.5-0.3-0.8c-0.2-0.4-0.4-0.6-0.6-0.8c-0.2-0.2-0.5-0.2-0.8-0.2H67v1.6c0,0.1,0,0.2,0.1,0.3c0.1,0.1,0.1,0.2,0.2,0.2
	c0.1,0,0.2,0.1,0.3,0.1c0.1,0,0.2,0,0.3,0V68h-2.8v-0.4c0.1,0,0.2,0,0.3,0c0.1,0,0.2,0,0.2,0c0.1,0,0.2-0.1,0.2-0.2
	C66,67.2,66,67.1,66,67v-1.7h-0.1c-0.4,0-0.6,0.1-0.9,0.2c-0.2,0.2-0.4,0.4-0.6,0.8c-0.1,0.3-0.3,0.5-0.3,0.8
	c-0.1,0.2-0.2,0.5-0.3,0.9h-1.9v-0.4c0.1,0,0.2,0,0.3,0c0.1,0,0.2,0,0.3,0c0.1,0,0.2-0.1,0.3-0.1c0.1-0.1,0.2-0.2,0.2-0.3
	c0-0.1,0.1-0.2,0.2-0.4c0.1-0.2,0.2-0.3,0.2-0.5c0.1-0.3,0.3-0.5,0.5-0.7c0.2-0.2,0.5-0.3,0.8-0.4V65c-0.2-0.1-0.4-0.3-0.5-0.5
	c-0.1-0.2-0.2-0.4-0.3-0.6c-0.1-0.2-0.1-0.4-0.2-0.6c-0.1-0.2-0.1-0.3-0.2-0.4c-0.2,0.2-0.3,0.4-0.4,0.5c-0.1,0.1-0.2,0.1-0.4,0.1
	c-0.2,0-0.3-0.1-0.4-0.2c-0.1-0.1-0.2-0.3-0.2-0.4c0-0.2,0.1-0.4,0.2-0.5c0.1-0.1,0.4-0.2,0.7-0.2c0.2,0,0.4,0,0.6,0.1
	c0.1,0.1,0.3,0.2,0.5,0.4c0.1,0.1,0.2,0.3,0.2,0.4c0.1,0.2,0.1,0.4,0.2,0.6c0.1,0.2,0.1,0.4,0.2,0.6c0.1,0.2,0.2,0.3,0.3,0.4
	c0.1,0.1,0.2,0.2,0.3,0.2c0.1,0,0.2,0.1,0.4,0.1H66v-1.6c0-0.1,0-0.2-0.1-0.3c-0.1-0.1-0.1-0.2-0.2-0.2c-0.1,0-0.2-0.1-0.3-0.1
	c-0.1,0-0.2,0-0.3,0v-0.4h2.8v0.4c-0.1,0-0.2,0-0.3,0c-0.1,0-0.1,0-0.2,0c-0.1,0-0.2,0.1-0.2,0.2C67.1,62.9,67,63,67,63.2v1.7h0.3
	c0.1,0,0.3,0,0.4-0.1c0.1,0,0.2-0.1,0.3-0.2c0.1-0.1,0.2-0.3,0.3-0.5c0.1-0.2,0.1-0.4,0.2-0.5c0.1-0.2,0.1-0.4,0.2-0.5
	c0.1-0.2,0.2-0.3,0.2-0.4c0.2-0.2,0.3-0.3,0.5-0.4c0.2-0.1,0.3-0.1,0.6-0.1c0.3,0,0.5,0.1,0.7,0.2c0.1,0.1,0.2,0.3,0.2,0.5
	c0,0.2-0.1,0.3-0.2,0.4c-0.1,0.1-0.3,0.2-0.4,0.2c-0.2,0-0.3,0-0.4-0.1c-0.1-0.1-0.2-0.2-0.4-0.5c-0.1,0.1-0.2,0.2-0.2,0.4
	c-0.1,0.2-0.1,0.4-0.2,0.6c-0.1,0.2-0.2,0.5-0.3,0.7c-0.1,0.2-0.3,0.4-0.5,0.5V65c0.4,0.1,0.6,0.2,0.8,0.4c0.2,0.2,0.4,0.4,0.5,0.7
	c0.1,0.1,0.1,0.3,0.2,0.5c0.1,0.2,0.1,0.3,0.2,0.4c0.1,0.1,0.1,0.2,0.2,0.3c0.1,0.1,0.2,0.1,0.3,0.2c0.1,0,0.2,0,0.3,0.1
	c0.1,0,0.2,0,0.2,0V68z M76.2,64.4c0-0.2,0-0.5-0.1-0.7c0-0.2-0.1-0.5-0.2-0.6c-0.1-0.2-0.2-0.3-0.4-0.4c-0.2-0.1-0.4-0.2-0.6-0.2
	c-0.4,0-0.7,0.2-1,0.5c-0.3,0.3-0.4,0.8-0.4,1.4H76.2z M77.5,66.6c-0.2,0.5-0.6,0.8-1,1.1c-0.4,0.3-0.9,0.4-1.4,0.4
	c-0.5,0-0.9-0.1-1.2-0.2c-0.3-0.2-0.6-0.4-0.9-0.7c-0.2-0.3-0.4-0.6-0.5-1c-0.1-0.4-0.2-0.8-0.2-1.2c0-0.4,0.1-0.7,0.2-1.1
	c0.1-0.4,0.3-0.7,0.5-1c0.2-0.3,0.5-0.5,0.8-0.7c0.3-0.2,0.7-0.3,1.1-0.3c0.4,0,0.8,0.1,1.1,0.2c0.3,0.1,0.5,0.3,0.7,0.5
	c0.2,0.2,0.3,0.5,0.4,0.8c0.1,0.3,0.1,0.6,0.1,1v0.4h-3.8c0,0.4,0,0.7,0.1,1c0.1,0.3,0.2,0.6,0.3,0.8c0.2,0.2,0.3,0.4,0.6,0.5
	c0.2,0.1,0.5,0.2,0.9,0.2c0.3,0,0.6-0.1,0.9-0.2c0.3-0.2,0.5-0.5,0.7-0.9L77.5,66.6z M107.6,64.3c0-0.2,0-0.4-0.1-0.7
	c0-0.2-0.1-0.5-0.2-0.6c-0.1-0.2-0.2-0.3-0.4-0.4c-0.2-0.1-0.4-0.2-0.6-0.2c-0.4,0-0.7,0.2-1,0.5c-0.3,0.3-0.4,0.8-0.4,1.4H107.6z
	 M108.9,66.5c-0.2,0.5-0.6,0.8-1,1.1c-0.4,0.3-0.9,0.4-1.4,0.4c-0.5,0-0.9-0.1-1.2-0.2c-0.3-0.2-0.6-0.4-0.9-0.7
	c-0.2-0.3-0.4-0.6-0.5-1c-0.1-0.4-0.2-0.8-0.2-1.2c0-0.4,0.1-0.7,0.2-1.1c0.1-0.4,0.3-0.7,0.5-1c0.2-0.3,0.5-0.5,0.8-0.7
	c0.3-0.2,0.7-0.3,1.1-0.3c0.4,0,0.8,0.1,1.1,0.2c0.3,0.1,0.5,0.3,0.7,0.5c0.2,0.2,0.3,0.5,0.4,0.8c0.1,0.3,0.1,0.6,0.1,1v0.4H105
	c0,0.4,0,0.7,0.1,1c0.1,0.3,0.2,0.6,0.3,0.8c0.2,0.2,0.3,0.4,0.6,0.5c0.2,0.1,0.5,0.2,0.9,0.2c0.3,0,0.6-0.1,0.9-0.2
	c0.2-0.2,0.5-0.5,0.7-0.9L108.9,66.5z M83.8,59.8c0,0.1,0,0.3-0.1,0.4c-0.1,0.2-0.2,0.3-0.3,0.4c-0.2,0.1-0.4,0.3-0.6,0.3
	c-0.2,0.1-0.5,0.1-0.9,0.1c-0.4,0-0.7,0-0.9-0.1c-0.2-0.1-0.4-0.2-0.6-0.3c-0.1-0.1-0.3-0.3-0.3-0.4c-0.1-0.2-0.1-0.3-0.1-0.4
	c0-0.2,0.1-0.3,0.2-0.5c0.1-0.1,0.2-0.2,0.4-0.2c0.1,0,0.3,0,0.4,0.1c0.1,0.1,0.2,0.2,0.2,0.4c0,0.1,0,0.2-0.1,0.4
	c0,0.1-0.1,0.2-0.1,0.3c0.1,0.1,0.2,0.2,0.4,0.3c0.2,0.1,0.4,0.1,0.5,0.1c0.2,0,0.3,0,0.5-0.1c0.2-0.1,0.3-0.2,0.4-0.3
	c0-0.1-0.1-0.2-0.1-0.3c0-0.1-0.1-0.3-0.1-0.4c0-0.2,0.1-0.3,0.2-0.4c0.1-0.1,0.3-0.1,0.4-0.1c0.2,0,0.3,0.1,0.4,0.2
	C83.8,59.5,83.8,59.6,83.8,59.8z M85.1,68h-2.8v-0.4c0.1,0,0.2,0,0.3,0c0.1,0,0.2,0,0.2,0c0.1,0,0.2-0.1,0.2-0.2
	c0.1-0.1,0.1-0.2,0.1-0.3v-3l-2.7,2.9v0.1c0,0.1,0,0.2,0.1,0.3c0.1,0.1,0.1,0.2,0.2,0.2c0.1,0,0.2,0.1,0.3,0.1c0.1,0,0.2,0,0.3,0V68
	h-2.8v-0.4c0.1,0,0.2,0,0.3,0c0.1,0,0.2,0,0.2,0c0.1,0,0.2-0.1,0.2-0.2c0.1-0.1,0.1-0.2,0.1-0.3v-3.7c0-0.1,0-0.2-0.1-0.3
	c-0.1-0.1-0.1-0.2-0.2-0.2c-0.1,0-0.2-0.1-0.3-0.1c-0.1,0-0.2,0-0.3,0v-0.4h2.8v0.4c-0.1,0-0.2,0-0.3,0c-0.1,0-0.2,0-0.2,0
	c-0.1,0-0.2,0.1-0.2,0.2c-0.1,0.1-0.1,0.2-0.1,0.3v3l2.7-2.9c0-0.2,0-0.3-0.1-0.4c-0.1-0.1-0.1-0.1-0.2-0.2c-0.1,0-0.2-0.1-0.3-0.1
	c-0.1,0-0.2,0-0.3,0v-0.4h2.8v0.4c-0.1,0-0.2,0-0.3,0c-0.1,0-0.2,0-0.2,0c-0.1,0-0.2,0.1-0.2,0.2c-0.1,0.1-0.1,0.2-0.1,0.3v3.7
	c0,0.1,0,0.2,0.1,0.3c0,0.1,0.1,0.1,0.2,0.2c0.1,0,0.2,0.1,0.3,0.1c0.1,0,0.2,0,0.3,0V68z M93.1,68h-2.8v-0.4c0.1,0,0.2,0,0.3,0
	c0.1,0,0.2,0,0.2,0c0.1,0,0.2-0.1,0.2-0.2c0.1-0.1,0.1-0.2,0.1-0.3v-1.8h-2.6v1.8c0,0.1,0,0.2,0.1,0.3c0.1,0.1,0.1,0.2,0.2,0.2
	c0.1,0,0.2,0.1,0.3,0.1c0.1,0,0.2,0,0.3,0V68h-2.8v-0.4c0.1,0,0.2,0,0.3,0c0.1,0,0.2,0,0.2,0c0.1,0,0.2-0.1,0.2-0.2
	c0.1-0.1,0.1-0.2,0.1-0.3v-3.7c0-0.1,0-0.2-0.1-0.3c-0.1-0.1-0.1-0.2-0.2-0.2c-0.1,0-0.2-0.1-0.3-0.1c-0.1,0-0.2,0-0.3,0v-0.4h2.8
	v0.4c-0.1,0-0.2,0-0.3,0c-0.1,0-0.2,0-0.2,0c-0.1,0-0.2,0.1-0.2,0.2c-0.1,0.1-0.1,0.2-0.1,0.3v1.5h2.6v-1.4c0-0.1,0-0.2-0.1-0.3
	c-0.1-0.1-0.1-0.2-0.2-0.2c-0.1,0-0.2-0.1-0.3-0.1c-0.1,0-0.2,0-0.3,0v-0.4h2.8v0.4c-0.1,0-0.2,0-0.3,0c-0.1,0-0.2,0-0.2,0
	c-0.1,0-0.2,0.1-0.2,0.2c-0.1,0.1-0.1,0.2-0.1,0.3v3.7c0,0.1,0,0.2,0.1,0.3c0,0.1,0.1,0.1,0.2,0.2c0.1,0,0.2,0.1,0.3,0.1
	c0.1,0,0.2,0,0.3,0V68z M102.9,68h-2.8v-0.4c0.1,0,0.2,0,0.3,0c0.1,0,0.2,0,0.2,0c0.1,0,0.2-0.1,0.3-0.2c0.1-0.1,0.1-0.2,0.1-0.3
	v-3.7c0-0.1,0-0.2-0.1-0.3c-0.1-0.1-0.1-0.2-0.2-0.2c-0.1,0-0.2-0.1-0.3-0.1c-0.1,0-0.2,0-0.3,0v-0.4h2.8v0.4c-0.1,0-0.2,0-0.3,0
	c-0.1,0-0.2,0-0.2,0c-0.1,0-0.2,0.1-0.2,0.2c0,0.1-0.1,0.2-0.1,0.3v3.7c0,0.1,0,0.2,0.1,0.3c0,0.1,0.1,0.1,0.2,0.2
	c0.1,0,0.2,0.1,0.3,0.1c0.1,0,0.2,0,0.3,0V68z M98.7,66.2c0-0.3-0.1-0.6-0.4-0.8c-0.2-0.2-0.6-0.3-1-0.3c-0.2,0-0.3,0-0.5,0
	c-0.1,0-0.2,0-0.3,0v2.1c0,0.2,0.1,0.3,0.2,0.4c0.1,0.1,0.3,0.1,0.6,0.1c0.3,0,0.5,0,0.7-0.1c0.2-0.1,0.3-0.2,0.4-0.3
	c0.1-0.1,0.2-0.3,0.2-0.4C98.7,66.5,98.7,66.3,98.7,66.2z M99.9,66.2c0,0.3-0.1,0.6-0.2,0.8c-0.1,0.2-0.3,0.4-0.5,0.6
	c-0.2,0.1-0.4,0.2-0.7,0.3C98.2,67.9,98,68,97.7,68h-3v-0.4c0.1,0,0.2,0,0.3,0c0.1,0,0.2,0,0.2,0c0.1,0,0.2-0.1,0.2-0.2
	c0.1-0.1,0.1-0.2,0.1-0.3v-3.7c0-0.1,0-0.2-0.1-0.3c-0.1-0.1-0.1-0.2-0.2-0.2c-0.1,0-0.2-0.1-0.3-0.1c-0.1,0-0.2,0-0.3,0v-0.4h2.9
	v0.4c-0.1,0-0.2,0-0.3,0c-0.1,0-0.2,0-0.3,0c-0.1,0-0.2,0.1-0.2,0.2c0,0.1-0.1,0.2-0.1,0.3v1.4c0.2,0,0.3,0,0.4,0c0.1,0,0.3,0,0.5,0
	c0.4,0,0.7,0,1,0.1c0.3,0.1,0.5,0.2,0.7,0.3c0.2,0.1,0.4,0.3,0.5,0.5C99.8,65.6,99.9,65.9,99.9,66.2z M158.2,68h-2.8v-0.4
	c0.1,0,0.2,0,0.3,0c0.1,0,0.2,0,0.2,0c0.1,0,0.2-0.1,0.3-0.2c0.1-0.1,0.1-0.2,0.1-0.3v-3.7c0-0.1,0-0.2-0.1-0.3
	c-0.1-0.1-0.1-0.2-0.2-0.2c-0.1,0-0.2-0.1-0.3-0.1c-0.1,0-0.2,0-0.3,0v-0.4h2.8v0.4c-0.1,0-0.2,0-0.3,0c-0.1,0-0.2,0-0.2,0
	c-0.1,0-0.2,0.1-0.2,0.2c0,0.1-0.1,0.2-0.1,0.3v3.7c0,0.1,0,0.2,0.1,0.3c0,0.1,0.1,0.1,0.2,0.2c0.1,0,0.2,0.1,0.3,0.1
	c0.1,0,0.2,0,0.3,0V68z M154.1,66.2c0-0.3-0.1-0.6-0.4-0.8c-0.2-0.2-0.6-0.3-1-0.3c-0.2,0-0.3,0-0.5,0c-0.1,0-0.2,0-0.3,0v2.1
	c0,0.2,0.1,0.3,0.2,0.4c0.1,0.1,0.3,0.1,0.6,0.1c0.3,0,0.5,0,0.7-0.1c0.2-0.1,0.3-0.2,0.4-0.3c0.1-0.1,0.2-0.3,0.2-0.4
	C154.1,66.5,154.1,66.3,154.1,66.2z M155.3,66.2c0,0.3-0.1,0.6-0.2,0.8c-0.1,0.2-0.3,0.4-0.5,0.6c-0.2,0.1-0.4,0.2-0.7,0.3
	c-0.3,0.1-0.5,0.1-0.8,0.1h-3v-0.4c0.1,0,0.2,0,0.3,0c0.1,0,0.2,0,0.3,0c0.1,0,0.2-0.1,0.2-0.2c0.1-0.1,0.1-0.2,0.1-0.3v-3.7
	c0-0.1,0-0.2-0.1-0.3c-0.1-0.1-0.1-0.2-0.2-0.2c-0.1,0-0.2-0.1-0.3-0.1c-0.1,0-0.2,0-0.3,0v-0.4h2.9v0.4c-0.1,0-0.2,0-0.3,0
	c-0.1,0-0.2,0-0.3,0c-0.1,0-0.2,0.1-0.3,0.2c0,0.1-0.1,0.2-0.1,0.3v1.4c0.2,0,0.3,0,0.4,0c0.1,0,0.3,0,0.5,0c0.4,0,0.7,0,1,0.1
	c0.3,0.1,0.5,0.2,0.7,0.3c0.2,0.1,0.4,0.3,0.5,0.5C155.2,65.6,155.3,65.9,155.3,66.2z M117.7,68.1c-0.8,0-1.5-0.3-2-0.8
	c-0.5-0.6-0.7-1.3-0.7-2.2c0-0.4,0.1-0.8,0.2-1.1c0.1-0.4,0.3-0.7,0.6-1c0.2-0.3,0.5-0.5,0.9-0.7c0.3-0.2,0.7-0.3,1.1-0.3
	c0.6,0,1,0.1,1.4,0.4c0.4,0.3,0.5,0.6,0.5,1.1c0,0.2,0,0.4-0.1,0.5c-0.1,0.1-0.2,0.2-0.5,0.2c-0.2,0-0.4-0.1-0.5-0.2
	c-0.1-0.1-0.2-0.2-0.2-0.4c0-0.2,0-0.4,0.1-0.5c0-0.2,0.1-0.3,0.1-0.4c-0.1-0.1-0.2-0.2-0.3-0.2c-0.1,0-0.3-0.1-0.4-0.1
	c-0.2,0-0.4,0-0.5,0.1c-0.2,0.1-0.3,0.2-0.5,0.4c-0.1,0.2-0.3,0.5-0.3,0.8c-0.1,0.3-0.1,0.7-0.1,1.2c0,0.7,0.2,1.3,0.5,1.8
	c0.3,0.5,0.7,0.7,1.3,0.7c0.4,0,0.7-0.1,1-0.3c0.3-0.2,0.5-0.5,0.7-0.8l0.4,0.2c-0.3,0.5-0.6,0.8-1,1.1
	C118.6,68,118.1,68.1,117.7,68.1z M124.6,64.8c-0.3,0.1-0.6,0.2-0.9,0.3c-0.2,0.1-0.5,0.2-0.7,0.3c-0.2,0.1-0.3,0.3-0.5,0.5
	c-0.1,0.2-0.2,0.4-0.2,0.6c0,0.3,0.1,0.6,0.3,0.7c0.2,0.2,0.4,0.2,0.6,0.2c0.3,0,0.5-0.1,0.7-0.2c0.2-0.1,0.4-0.3,0.5-0.5
	L124.6,64.8z M126.6,67.8c-0.2,0.1-0.3,0.1-0.5,0.2c-0.1,0-0.3,0.1-0.5,0.1c-0.3,0-0.5-0.1-0.7-0.2c-0.2-0.1-0.3-0.3-0.3-0.6h0
	c-0.3,0.3-0.5,0.5-0.8,0.6c-0.3,0.1-0.6,0.2-1,0.2c-0.4,0-0.8-0.1-1.1-0.4c-0.3-0.3-0.4-0.6-0.4-1c0-0.2,0-0.4,0.1-0.6
	c0.1-0.2,0.2-0.3,0.3-0.5c0.1-0.1,0.2-0.2,0.4-0.3c0.2-0.1,0.3-0.2,0.5-0.2c0.2-0.1,0.5-0.2,1.1-0.4c0.5-0.2,0.9-0.3,1.1-0.4v-0.6
	c0,0,0-0.2,0-0.3c0-0.1-0.1-0.3-0.1-0.4c-0.1-0.1-0.2-0.3-0.3-0.4c-0.1-0.1-0.3-0.2-0.6-0.2c-0.2,0-0.3,0-0.5,0.1
	c-0.2,0.1-0.3,0.1-0.3,0.2c0,0.1,0,0.2,0.1,0.3c0,0.2,0.1,0.3,0.1,0.4c0,0.1-0.1,0.3-0.2,0.4c-0.1,0.1-0.3,0.2-0.5,0.2
	c-0.2,0-0.3-0.1-0.4-0.2c-0.1-0.1-0.1-0.3-0.1-0.5c0-0.2,0.1-0.3,0.2-0.5c0.1-0.2,0.3-0.3,0.5-0.4c0.2-0.1,0.4-0.2,0.6-0.3
	c0.2-0.1,0.5-0.1,0.7-0.1c0.3,0,0.6,0,0.9,0.1c0.2,0,0.5,0.1,0.7,0.3c0.2,0.1,0.3,0.3,0.5,0.6c0.1,0.3,0.2,0.6,0.2,1
	c0,0.6,0,1.1,0,1.5c0,0.4,0,0.9,0,1.4c0,0.2,0,0.3,0.1,0.4c0.1,0.1,0.1,0.2,0.2,0.2c0.1,0,0.2,0.1,0.3,0.1c0.1,0,0.3,0,0.4,0V67.8z
	 M134,68h-2.8v-0.4c0.1,0,0.2,0,0.3,0c0.1,0,0.2,0,0.2,0c0.1,0,0.2-0.1,0.3-0.2c0.1-0.1,0.1-0.2,0.1-0.3v-4.3h-1.6
	c0,0.9-0.1,1.8-0.2,2.5c-0.1,0.7-0.3,1.2-0.5,1.7c-0.2,0.4-0.4,0.7-0.7,1c-0.3,0.2-0.5,0.3-0.8,0.3c-0.3,0-0.5-0.1-0.6-0.2
	c-0.1-0.1-0.2-0.3-0.2-0.5c0-0.1,0-0.3,0.1-0.4c0.1-0.1,0.2-0.2,0.4-0.2c0.2,0,0.3,0,0.4,0.1c0.1,0.1,0.3,0.2,0.4,0.4
	c0.1-0.1,0.2-0.2,0.3-0.5c0.1-0.2,0.2-0.5,0.3-0.9c0.1-0.4,0.2-0.8,0.3-1.1c0.1-0.4,0.1-0.9,0.1-1.4c0-0.2,0-0.4-0.1-0.5
	c-0.1-0.1-0.1-0.2-0.2-0.2c-0.1,0-0.2-0.1-0.4-0.1c-0.2,0-0.3-0.1-0.4-0.1v-0.4h5.2v0.4c-0.1,0-0.2,0-0.3,0c-0.1,0-0.2,0-0.2,0
	c-0.1,0-0.2,0.1-0.2,0.2c-0.1,0.1-0.1,0.2-0.1,0.3v3.7c0,0.1,0,0.2,0.1,0.3c0,0.1,0.1,0.1,0.2,0.2c0.1,0,0.2,0.1,0.3,0.1
	c0.1,0,0.2,0,0.3,0V68z M139.7,65c0-0.3,0-0.6-0.1-0.9c-0.1-0.3-0.1-0.6-0.3-0.8c-0.1-0.2-0.3-0.4-0.5-0.6c-0.2-0.1-0.5-0.2-0.7-0.2
	c-0.3,0-0.6,0.1-0.8,0.2c-0.2,0.1-0.4,0.4-0.5,0.6c-0.1,0.2-0.2,0.5-0.3,0.8c-0.1,0.3-0.1,0.6-0.1,0.9c0,0.4,0,0.7,0.1,1
	c0.1,0.3,0.2,0.6,0.3,0.8c0.1,0.3,0.3,0.4,0.5,0.6c0.2,0.1,0.5,0.2,0.7,0.2c0.5,0,0.9-0.2,1.2-0.7C139.6,66.5,139.7,65.9,139.7,65z
	 M140.9,65c0,0.4-0.1,0.8-0.2,1.2c-0.1,0.4-0.3,0.7-0.5,1c-0.3,0.3-0.6,0.5-0.9,0.7c-0.4,0.1-0.8,0.2-1.2,0.2c-0.4,0-0.7-0.1-1-0.2
	c-0.3-0.1-0.6-0.3-0.9-0.6c-0.3-0.3-0.5-0.6-0.6-1c-0.1-0.4-0.2-0.8-0.2-1.3c0-0.9,0.3-1.6,0.8-2.2c0.5-0.6,1.2-0.9,2.1-0.9
	c0.8,0,1.5,0.3,2,0.8C140.7,63.4,140.9,64.1,140.9,65z M148.7,68h-2.8v-0.4c0.1,0,0.2,0,0.3,0c0.1,0,0.2,0,0.2,0
	c0.1,0,0.2-0.1,0.3-0.2c0.1-0.1,0.1-0.2,0.1-0.3v-1.8h-2.6v1.8c0,0.1,0,0.2,0.1,0.3c0.1,0.1,0.1,0.2,0.2,0.2c0.1,0,0.2,0.1,0.3,0.1
	c0.1,0,0.2,0,0.3,0V68h-2.8v-0.4c0.1,0,0.2,0,0.3,0c0.1,0,0.2,0,0.2,0c0.1,0,0.2-0.1,0.2-0.2c0.1-0.1,0.1-0.2,0.1-0.3v-3.7
	c0-0.1,0-0.2-0.1-0.3c-0.1-0.1-0.1-0.2-0.2-0.2c-0.1,0-0.2-0.1-0.3-0.1c-0.1,0-0.2,0-0.3,0v-0.4h2.8v0.4c-0.1,0-0.2,0-0.3,0
	c-0.1,0-0.2,0-0.2,0c-0.1,0-0.2,0.1-0.2,0.2c-0.1,0.1-0.1,0.2-0.1,0.3v1.5h2.6v-1.4c0-0.1,0-0.2-0.1-0.3c-0.1-0.1-0.1-0.2-0.2-0.2
	c-0.1,0-0.2-0.1-0.3-0.1c-0.1,0-0.2,0-0.3,0v-0.4h2.8v0.4c-0.1,0-0.2,0-0.3,0c-0.1,0-0.2,0-0.2,0c-0.1,0-0.2,0.1-0.2,0.2
	c-0.1,0.1-0.1,0.2-0.1,0.3v3.7c0,0.1,0,0.2,0.1,0.3c0,0.1,0.1,0.1,0.2,0.2c0.1,0,0.2,0.1,0.3,0.1c0.1,0,0.2,0,0.3,0V68z M81.7,23
	c0.6-0.1,0.6-0.3,0.6-0.6c0-0.4-0.2-0.6-1.1-0.6H63.7c-0.3,0-0.9,0-0.9,0.5c0,0.7,0.6,0.8,1.1,0.8c0.6,0,1.3,0,1.9,0.6
	c0.6,0.6,0.6,1.4,0.6,2c0,0.8-0.1,5.1-1.3,9.7c-0.1,0.5-0.9,3.4-1.9,3.4c-0.3,0-0.7-0.3-1-0.5c-0.3-0.2-0.7-0.4-1.4-0.4
	c-0.9,0-2.4,0.4-2.4,2.5c0,1.7,1.4,2.4,2.7,2.4c1.9,0,3-1.5,3.7-2.6c1.5-2.6,2.2-5.3,2.6-7.8c0.6-3.6,0.7-5.5,0.9-7.2
	c0.2-1.5,0.5-2.2,3.3-2.2c1.9,0,2.9,0.2,2.9,2.6v12.2c0,2.5-0.8,2.7-2,2.9c-0.7,0.1-1.5,0.1-1.5,0.8c0,0.4,0.4,0.6,1.1,0.6h9.2
	c1.1,0,1.1-0.5,1.1-0.6c0-0.5-0.4-0.6-0.6-0.6c-0.6-0.1-1.1-0.1-1.7-0.4c-0.8-0.4-1.1-0.9-1.1-2.7V26.1C78.9,24.3,78.7,23.5,81.7,23
	z"/>
</svg>