<svg width="22" height="22" viewBox="0 0 22 22" fill="none" xmlns="http://www.w3.org/2000/svg">
<path fill-rule="evenodd" clip-rule="evenodd" d="M19.7367 6.38826C19.8008 6.45212 19.8516 6.52799 19.8862 6.61151C19.9209 6.69504 19.9387 6.78458 19.9387 6.87501C19.9387 6.96544 19.9209 7.05498 19.8862 7.1385C19.8516 7.22203 19.8008 7.2979 19.7367 7.36176L11.4867 15.6118C11.4229 15.6758 11.347 15.7266 11.2635 15.7612C11.18 15.7959 11.0904 15.8137 11 15.8137C10.9096 15.8137 10.82 15.7959 10.7365 15.7612C10.653 15.7266 10.5771 15.6758 10.5132 15.6118L2.26325 7.36176C2.13415 7.23266 2.06163 7.05757 2.06163 6.87501C2.06163 6.69244 2.13415 6.51735 2.26325 6.38826C2.39234 6.25916 2.56743 6.18664 2.75 6.18664C2.93256 6.18664 3.10765 6.25916 3.23675 6.38826L11 14.1529L18.7632 6.38826C18.8271 6.32423 18.903 6.27344 18.9865 6.23878C19.07 6.20412 19.1596 6.18628 19.25 6.18628C19.3404 6.18628 19.43 6.20412 19.5135 6.23878C19.597 6.27344 19.6729 6.32423 19.7367 6.38826Z" fill="#EA5B35"/>
</svg>
