<svg width="32" height="32" viewBox="0 0 22 22" fill="none" xmlns="http://www.w3.org/2000/svg">
<path fill-rule="evenodd" clip-rule="evenodd" d="M15.6117 19.7367C15.5479 19.8008 15.472 19.8516 15.3885 19.8862C15.305 19.9209 15.2154 19.9387 15.125 19.9387C15.0346 19.9387 14.945 19.9209 14.8615 19.8862C14.778 19.8516 14.7021 19.8008 14.6382 19.7367L6.38824 11.4867C6.32422 11.4229 6.27342 11.347 6.23876 11.2635C6.2041 11.18 6.18626 11.0904 6.18626 11C6.18626 10.9096 6.2041 10.82 6.23876 10.7365C6.27342 10.653 6.32422 10.5771 6.38824 10.5132L14.6382 2.26325C14.7673 2.13415 14.9424 2.06163 15.125 2.06163C15.3076 2.06163 15.4826 2.13415 15.6117 2.26325C15.7408 2.39234 15.8134 2.56743 15.8134 2.75C15.8134 2.93256 15.7408 3.10765 15.6117 3.23675L7.84712 11L15.6117 18.7632C15.6758 18.8271 15.7266 18.903 15.7612 18.9865C15.7959 19.07 15.8137 19.1596 15.8137 19.25C15.8137 19.3404 15.7959 19.43 15.7612 19.5135C15.7266 19.597 15.6758 19.6729 15.6117 19.7367Z" fill="#ffffff"/>
</svg>
