<svg width="32" height="32" viewBox="0 0 22 22" fill="none" xmlns="http://www.w3.org/2000/svg">
<path fill-rule="evenodd" clip-rule="evenodd" d="M6.38826 2.26326C6.45212 2.19923 6.52799 2.14844 6.61151 2.11378C6.69504 2.07912 6.78458 2.06128 6.87501 2.06128C6.96544 2.06128 7.05498 2.07912 7.1385 2.11378C7.22203 2.14844 7.2979 2.19923 7.36176 2.26326L15.6118 10.5133C15.6758 10.5771 15.7266 10.653 15.7612 10.7365C15.7959 10.82 15.8137 10.9096 15.8137 11C15.8137 11.0904 15.7959 11.18 15.7612 11.2635C15.7266 11.347 15.6758 11.4229 15.6118 11.4868L7.36176 19.7368C7.23266 19.8658 7.05757 19.9384 6.87501 19.9384C6.69244 19.9384 6.51735 19.8658 6.38826 19.7368C6.25916 19.6077 6.18664 19.4326 6.18664 19.25C6.18664 19.0674 6.25916 18.8923 6.38826 18.7633L14.1529 11L6.38826 3.23676C6.32423 3.1729 6.27344 3.09703 6.23878 3.0135C6.20412 2.92998 6.18628 2.84044 6.18628 2.75001C6.18628 2.65958 6.20412 2.57004 6.23878 2.48651C6.27344 2.40299 6.32423 2.32712 6.38826 2.26326Z" fill="#ffffff"/>
</svg>
