<svg width="18" height="18" viewBox="0 0 18 18" fill="none" xmlns="http://www.w3.org/2000/svg">
<path fill-rule="evenodd" clip-rule="evenodd" d="M12.3412 5.59126C12.4987 5.43519 12.7112 5.34736 12.9329 5.34674C13.1546 5.34613 13.3676 5.43279 13.5259 5.58799C13.6842 5.74319 13.7751 5.95445 13.7789 6.17611C13.7826 6.39777 13.699 6.61201 13.5461 6.77251L9.05512 12.3863C8.97793 12.4694 8.88478 12.5361 8.78122 12.5824C8.67766 12.6287 8.56582 12.6537 8.4524 12.6558C8.33898 12.6579 8.2263 12.6371 8.1211 12.5946C8.01589 12.5522 7.92033 12.489 7.84012 12.4088L4.86449 9.43201C4.7816 9.35476 4.71511 9.26161 4.66899 9.15812C4.62287 9.05462 4.59808 8.94289 4.59608 8.8296C4.59408 8.71631 4.61492 8.60377 4.65736 8.49871C4.69979 8.39365 4.76296 8.29821 4.84308 8.21809C4.9232 8.13797 5.01864 8.07481 5.1237 8.03237C5.22876 7.98994 5.34129 7.9691 5.45458 7.97109C5.56787 7.97309 5.6796 7.99789 5.7831 8.04401C5.8866 8.09012 5.97975 8.15661 6.05699 8.23951L8.41274 10.5941L12.3199 5.61601C12.3268 5.6073 12.3344 5.59903 12.3424 5.59126H12.3412Z" fill="#1BB802"/>
</svg>
