<svg width="16" height="16" viewBox="0 0 16 16" fill="none" xmlns="http://www.w3.org/2000/svg">
<path d="M12.2356 10.6667C11.9362 10.6678 11.6402 10.7294 11.3653 10.8478C11.0903 10.9662 10.8421 11.1389 10.6356 11.3556L5.21781 8.64447C5.35108 8.24036 5.35108 7.80414 5.21781 7.40003L10.6445 4.64003C11.0332 5.04964 11.5603 5.3001 12.1234 5.34272C12.6864 5.38534 13.2452 5.21708 13.6912 4.87065C14.1371 4.52421 14.4383 4.02435 14.5362 3.46821C14.6341 2.91208 14.5218 2.33941 14.221 1.86151C13.9202 1.38361 13.4524 1.03461 12.9086 0.882366C12.3649 0.730118 11.7839 0.785491 11.2787 1.03772C10.7735 1.28995 10.3801 1.72102 10.175 2.24714C9.96987 2.77326 9.96771 3.35685 10.1689 3.88447L4.79559 6.6178C4.50539 6.26289 4.11252 6.00642 3.67084 5.88355C3.22916 5.76068 2.76028 5.77742 2.32849 5.93148C1.8967 6.08554 1.52312 6.36937 1.25897 6.74408C0.994821 7.11879 0.853027 7.56602 0.853027 8.02447C0.853027 8.48292 0.994821 8.93016 1.25897 9.30486C1.52312 9.67957 1.8967 9.9634 2.32849 10.1175C2.76028 10.2715 3.22916 10.2883 3.67084 10.1654C4.11252 10.0425 4.50539 9.78605 4.79559 9.43114L10.1556 12.1289C10.065 12.3721 10.0184 12.6294 10.0178 12.8889C10.0178 13.3284 10.1481 13.7581 10.3923 14.1235C10.6365 14.489 10.9836 14.7738 11.3896 14.942C11.7957 15.1102 12.2425 15.1542 12.6736 15.0684C13.1046 14.9827 13.5006 14.771 13.8114 14.4603C14.1222 14.1495 14.3338 13.7535 14.4196 13.3224C14.5053 12.8914 14.4613 12.4446 14.2931 12.0385C14.1249 11.6324 13.8401 11.2854 13.4746 11.0412C13.1092 10.797 12.6795 10.6667 12.24 10.6667H12.2356Z" fill="#6D6D6D"/>
</svg>
