<svg width="30" height="30" viewBox="0 0 30 30" fill="none" xmlns="http://www.w3.org/2000/svg">
<circle cx="15" cy="15" r="14.5" stroke="#3464B3"/>
<path d="M14.599 7.00251C13.315 7.01801 10.5545 7.22901 9.01053 8.64551C7.86203 9.78351 7.46103 11.466 7.41403 13.5465C7.37503 15.6195 7.32803 19.5125 11.0805 20.5725V22.187C11.0805 22.187 11.057 22.833 11.484 22.9655C12.01 23.132 12.3095 22.635 12.8095 22.101L13.742 21.0465C16.3095 21.26 18.276 20.768 18.5025 20.695C19.0235 20.5285 21.958 20.1535 22.4375 16.26C22.9295 12.239 22.198 9.70551 20.8775 8.55951H20.8695C20.471 8.19251 18.8695 7.02551 15.2915 7.01251C15.2915 7.01251 15.026 6.99451 14.599 7.00201V7.00251ZM14.643 8.13301C15.0075 8.13051 15.229 8.14601 15.229 8.14601C18.2575 8.15401 19.703 9.06551 20.044 9.37251C21.156 10.3255 21.729 12.6095 21.3095 15.9665C20.911 19.2215 18.531 19.4275 18.0905 19.568C17.903 19.628 16.171 20.055 13.989 19.9145C13.989 19.9145 12.364 21.8755 11.856 22.3805C11.7755 22.469 11.6815 22.495 11.6215 22.482C11.5355 22.461 11.5095 22.3545 11.5145 22.2085L11.53 19.529C8.34753 18.649 8.53503 15.3285 8.56903 13.594C8.60803 11.8595 8.93353 10.4405 9.90253 9.47951C11.207 8.30001 13.551 8.14101 14.642 8.13301H14.643ZM14.883 9.86701C14.8568 9.86675 14.8308 9.87167 14.8066 9.8815C14.7823 9.89132 14.7602 9.90586 14.7416 9.92426C14.7229 9.94267 14.7081 9.96458 14.698 9.98874C14.6878 10.0129 14.6826 10.0388 14.6825 10.065C14.6825 10.177 14.7735 10.2655 14.883 10.2655C15.3788 10.2561 15.8715 10.3449 16.3328 10.5268C16.794 10.7088 17.2147 10.9802 17.5705 11.3255C18.297 12.031 18.651 12.979 18.6645 14.2185C18.6645 14.328 18.753 14.419 18.865 14.419V14.411C18.9178 14.4111 18.9685 14.3904 19.0061 14.3533C19.0436 14.3162 19.065 14.2658 19.0655 14.213C19.0898 13.6296 18.9952 13.0473 18.7874 12.5016C18.5797 11.9559 18.2631 11.4581 17.857 11.0385C17.0655 10.265 16.0625 9.86651 14.883 9.86651V9.86701ZM12.2475 10.3255C12.106 10.3048 11.9617 10.3332 11.8385 10.406H11.828C11.5422 10.5736 11.2846 10.7854 11.065 11.0335C10.8825 11.2445 10.7835 11.458 10.7575 11.6635C10.742 11.786 10.7525 11.9085 10.789 12.0255L10.802 12.0335C11.0075 12.6375 11.276 13.2185 11.604 13.7655C12.0265 14.534 12.5465 15.2447 13.151 15.88L13.169 15.906L13.1975 15.927L13.2155 15.948L13.2365 15.966C13.8741 16.5723 14.5866 17.0947 15.3565 17.5205C16.2365 17.9995 16.7705 18.226 17.091 18.32V18.325C17.185 18.3535 17.2705 18.3665 17.3565 18.3665C17.6297 18.3465 17.8883 18.2356 18.091 18.0515C18.338 17.8318 18.5475 17.5733 18.711 17.286V17.281C18.8645 16.992 18.8125 16.7185 18.591 16.5335C18.1474 16.1458 17.6677 15.8014 17.1585 15.505C16.8175 15.32 16.471 15.432 16.3305 15.6195L16.031 15.997C15.8775 16.1845 15.5985 16.1585 15.5985 16.1585L15.5905 16.1635C13.51 15.632 12.955 13.5255 12.955 13.5255C12.955 13.5255 12.929 13.239 13.1215 13.093L13.4965 12.791C13.676 12.645 13.801 12.299 13.6085 11.9575C13.3142 11.4476 12.9706 10.9678 12.5825 10.525C12.4977 10.4206 12.3787 10.3496 12.2465 10.3245L12.2475 10.3255ZM15.229 10.9195C14.9635 10.9195 14.9635 11.3205 15.2315 11.3205C15.5617 11.3259 15.8875 11.3962 16.1905 11.5276C16.4934 11.6589 16.7675 11.8487 16.997 12.086C17.2064 12.317 17.3674 12.5877 17.4703 12.882C17.5731 13.1764 17.6159 13.4883 17.596 13.7995C17.5969 13.8522 17.6184 13.9024 17.6559 13.9394C17.6934 13.9764 17.7439 13.9973 17.7965 13.9975L17.8045 14.008C17.8576 14.0076 17.9084 13.9864 17.9459 13.9489C17.9834 13.9113 18.0046 13.8606 18.005 13.8075C18.023 13.013 17.776 12.3465 17.2915 11.8125C16.8045 11.2785 16.125 10.979 15.2575 10.9195H15.229ZM15.5575 11.9975C15.284 11.9895 15.2735 12.3985 15.5445 12.4065C16.2035 12.4405 16.5235 12.7735 16.5655 13.4585C16.5664 13.5105 16.5877 13.5601 16.6247 13.5966C16.6617 13.6332 16.7115 13.6538 16.7635 13.654H16.7715C16.7983 13.6529 16.8245 13.6464 16.8487 13.635C16.8729 13.6236 16.8946 13.6075 16.9125 13.5876C16.9305 13.5678 16.9443 13.5445 16.9531 13.5192C16.9619 13.494 16.9656 13.4672 16.964 13.4405C16.917 12.5475 16.43 12.0445 15.5655 11.998H15.5575V11.9975Z" fill="#3464B2"/>
</svg>
