<svg width="30" height="30" viewBox="0 0 30 30" fill="none" xmlns="http://www.w3.org/2000/svg">
<circle cx="15" cy="15" r="14.5" stroke="#3464B3"/>
<path d="M21.2851 11.8556C21.3842 11.5263 21.2851 11.2847 20.8162 11.2847H19.2628C18.8675 11.2847 18.6869 11.4937 18.5877 11.7232C18.5877 11.7232 17.798 13.6491 16.6788 14.8979C16.3175 15.2613 16.1525 15.3761 15.9556 15.3761C15.8571 15.3761 15.714 15.2613 15.714 14.9319V11.8556C15.714 11.4604 15.6 11.2847 15.2706 11.2847H12.8297C12.5832 11.2847 12.4345 11.4675 12.4345 11.6417C12.4345 12.0157 12.994 12.1021 13.0514 13.1561V15.4426C13.0514 15.9434 12.9615 16.0348 12.7631 16.0348C12.2368 16.0348 10.9562 14.1018 10.1961 11.8889C10.0481 11.459 9.89863 11.2854 9.50196 11.2854H7.94929C7.50517 11.2854 7.41663 11.4944 7.41663 11.7239C7.41663 12.1361 7.94292 14.1761 9.86817 16.8742C11.1517 18.7166 12.9586 19.7153 14.6048 19.7153C15.5915 19.7153 15.7133 19.4936 15.7133 19.1111V17.7185C15.7133 17.2751 15.8075 17.1859 16.1199 17.1859C16.3494 17.1859 16.7447 17.302 17.6662 18.1896C18.7188 19.2421 18.893 19.7146 19.4845 19.7146H21.0372C21.4806 19.7146 21.7023 19.4929 21.5748 19.0551C21.4353 18.6195 20.9323 17.9856 20.2651 17.2354C19.9024 16.8076 19.3605 16.3472 19.1955 16.117C18.9653 15.8202 19.0319 15.6891 19.1955 15.4256C19.1962 15.4264 21.0882 12.7616 21.2851 11.8556Z" fill="#3464B2"/>
</svg>
