<svg width="30" height="30" viewBox="0 0 30 30" fill="none" xmlns="http://www.w3.org/2000/svg">
<path d="M20.9031 9.03437C19.5938 7.72187 17.85 7 15.9969 7C12.1719 7 9.05937 10.1125 9.05937 13.9375C9.05937 15.1594 9.37813 16.3531 9.98438 17.4062L9 21L12.6781 20.0344C13.6906 20.5875 14.8313 20.8781 15.9938 20.8781H15.9969C19.8188 20.8781 23 17.7656 23 13.9406C23 12.0875 22.2125 10.3469 20.9031 9.03437ZM15.9969 19.7094C14.9594 19.7094 13.9437 19.4312 13.0594 18.9062L12.85 18.7812L10.6688 19.3531L11.25 17.225L11.1125 17.0063C10.5344 16.0875 10.2313 15.0281 10.2313 13.9375C10.2313 10.7594 12.8187 8.17188 16 8.17188C17.5406 8.17188 18.9875 8.77187 20.075 9.8625C21.1625 10.9531 21.8313 12.4 21.8281 13.9406C21.8281 17.1219 19.175 19.7094 15.9969 19.7094ZM19.1594 15.3906C18.9875 15.3031 18.1344 14.8844 17.975 14.8281C17.8156 14.7688 17.7 14.7406 17.5844 14.9156C17.4688 15.0906 17.1375 15.4781 17.0344 15.5969C16.9344 15.7125 16.8313 15.7281 16.6594 15.6406C15.6406 15.1313 14.9719 14.7312 14.3 13.5781C14.1219 13.2719 14.4781 13.2937 14.8094 12.6312C14.8656 12.5156 14.8375 12.4156 14.7937 12.3281C14.75 12.2406 14.4031 11.3875 14.2594 11.0406C14.1188 10.7031 13.975 10.75 13.8688 10.7438C13.7688 10.7375 13.6531 10.7375 13.5375 10.7375C13.4219 10.7375 13.2344 10.7812 13.075 10.9531C12.9156 11.1281 12.4688 11.5469 12.4688 12.4C12.4688 13.2531 13.0906 14.0781 13.175 14.1938C13.2625 14.3094 14.3969 16.0594 16.1375 16.8125C17.2375 17.2875 17.6687 17.3281 18.2188 17.2469C18.5531 17.1969 19.2437 16.8281 19.3875 16.4219C19.5312 16.0156 19.5312 15.6687 19.4875 15.5969C19.4469 15.5188 19.3313 15.475 19.1594 15.3906Z" fill="#3464B2"/>
<circle cx="15" cy="15" r="14.5" stroke="#3464B3"/>
</svg>
