<svg width="16" height="10" viewBox="0 0 16 10" fill="none" xmlns="http://www.w3.org/2000/svg">
<path d="M12.748 9.26275L15.3607 6.65009C15.7849 6.20551 16.0216 5.6146 16.0216 5.00008C16.0216 4.38557 15.7849 3.79466 15.3607 3.35008L12.748 0.737419C12.5605 0.549822 12.3062 0.444396 12.0409 0.444334C11.7757 0.444271 11.5213 0.549578 11.3337 0.737086C11.1461 0.924594 11.0407 1.17894 11.0406 1.44418C11.0405 1.70942 11.1458 1.96382 11.3334 2.15142L13.1867 4.00542L1.02002 4.02075C0.754804 4.02075 0.50045 4.12611 0.312913 4.31365C0.125377 4.50118 0.0200203 4.75554 0.0200203 5.02075C0.0200204 5.28597 0.125377 5.54032 0.312914 5.72786C0.50045 5.9154 0.754804 6.02075 1.02002 6.02075L13.174 6.00542L11.3334 7.84875C11.1512 8.03736 11.0504 8.28996 11.0527 8.55215C11.055 8.81435 11.1601 9.06516 11.3455 9.25057C11.5309 9.43598 11.7818 9.54115 12.044 9.54343C12.3061 9.54571 12.5588 9.44491 12.7474 9.26275L12.748 9.26275Z" fill="white"/>
</svg>
