<?xml version="1.0" encoding="utf-8"?>
<!-- Generator: Adobe Illustrator 16.0.0, SVG Export Plug-In . SVG Version: 6.00 Build 0)  -->
<!DOCTYPE svg PUBLIC "-//W3C//DTD SVG 1.1//EN" "http://www.w3.org/Graphics/SVG/1.1/DTD/svg11.dtd">
<svg version="1.1" id="Слой_1" xmlns="http://www.w3.org/2000/svg" xmlns:xlink="http://www.w3.org/1999/xlink" x="0px" y="0px"
	 width="413.992px" height="234.188px" viewBox="0 0 413.992 234.188" enable-background="new 0 0 413.992 234.188"
	 xml:space="preserve">
<g>
	<polygon fill="#FBB231" points="289.869,234.189 296.266,234.03 302.574,233.595 308.762,232.845 314.904,231.82 320.879,230.515 
		326.773,228.935 332.541,227.078 338.183,224.986 343.697,222.616 349.049,220.049 354.23,217.204 359.287,214.162 
		364.135,210.884 368.814,207.408 373.328,203.734 377.633,199.825 381.771,195.757 385.658,191.49 389.336,187.066 
		392.803,182.486 396.021,177.707 399.031,172.804 401.748,167.752 404.254,162.537 406.469,157.207 408.434,151.754 
		410.107,146.186 411.484,140.536 412.572,134.73 413.365,128.882 413.826,122.921 413.992,116.878 413.826,110.872 
		413.365,104.948 412.572,99.103 411.484,93.376 410.107,87.728 408.434,82.198 406.469,76.746 404.254,71.453 401.748,66.28 
		399.031,61.222 396.021,56.365 392.803,51.586 389.336,47.003 385.658,42.619 381.771,38.353 377.633,34.285 373.328,30.413 
		368.814,26.74 364.135,23.265 359.287,19.987 354.23,16.946 349.049,14.14 343.697,11.573 338.183,9.203 332.541,7.111 
		326.773,5.253 320.879,3.674 314.904,2.37 308.762,1.342 302.574,0.592 296.266,0.159 289.869,0 283.518,0.159 277.207,0.592 
		271.021,1.342 264.92,2.37 258.945,3.674 253.051,5.253 247.326,7.111 241.686,9.203 236.209,11.573 230.902,14.14 225.721,16.946 
		220.705,19.987 215.857,23.265 211.176,26.74 206.705,30.413 202.4,34.285 198.305,38.353 194.418,42.619 190.74,47.003 
		187.313,51.586 184.094,56.365 181.129,61.222 178.371,66.28 175.902,71.453 173.688,76.746 171.766,82.198 170.094,87.728 
		168.715,93.376 167.629,99.103 166.836,104.948 166.375,110.872 166.209,116.878 166.375,122.921 166.836,128.882 167.629,134.73 
		168.715,140.536 170.094,146.186 171.766,151.754 173.688,157.207 175.902,162.537 178.371,167.752 181.129,172.804 
		184.094,177.707 187.313,182.486 190.74,187.066 194.418,191.49 198.305,195.757 202.4,199.825 206.705,203.734 211.176,207.408 
		215.857,210.884 220.705,214.162 225.721,217.204 230.902,220.049 236.209,222.616 241.686,224.986 247.326,227.078 
		253.051,228.935 258.945,230.515 264.92,231.82 271.021,232.845 277.207,233.595 283.518,234.03 	"/>
	<polygon fill="#EC1C2E" points="124.121,234.189 130.475,234.03 136.785,233.595 142.973,232.845 149.072,231.82 155.049,230.515 
		160.939,228.935 166.666,227.078 172.309,224.986 177.783,222.616 183.09,220.049 188.273,217.204 193.289,214.162 
		198.137,210.884 202.818,207.408 207.289,203.734 211.594,199.825 215.691,195.757 219.576,191.49 223.254,187.066 
		226.682,182.486 229.898,177.707 232.865,172.804 235.623,167.752 238.09,162.537 240.307,157.207 242.227,151.754 
		243.898,146.186 245.279,140.536 246.365,134.73 247.158,128.882 247.619,122.921 247.785,116.878 247.619,110.872 
		247.158,104.948 246.365,99.103 245.279,93.376 243.898,87.728 242.227,82.198 240.307,76.746 238.09,71.453 235.623,66.28 
		232.865,61.222 229.898,56.365 226.682,51.586 223.254,47.003 219.576,42.619 215.691,38.353 211.594,34.285 207.289,30.413 
		202.818,26.74 198.137,23.265 193.289,19.987 188.273,16.946 183.09,14.14 177.783,11.573 172.309,9.203 166.666,7.111 
		160.939,5.253 155.049,3.674 149.072,2.37 142.973,1.342 136.785,0.592 130.475,0.159 124.121,0 117.731,0.159 111.42,0.592 
		105.233,1.342 99.09,2.37 93.113,3.674 87.221,5.253 81.454,7.111 75.811,9.203 70.297,11.573 64.946,14.14 59.763,16.946 
		54.708,19.987 49.858,23.265 45.177,26.74 40.666,30.413 36.361,34.285 32.222,38.353 28.335,42.619 24.659,47.003 21.191,51.586 
		17.971,56.365 14.963,61.222 12.244,66.28 9.738,71.453 7.525,76.746 5.558,82.198 3.887,87.728 2.509,93.376 1.423,99.103 
		0.628,104.948 0.169,110.872 0,116.878 0.169,122.921 0.628,128.882 1.423,134.73 2.509,140.536 3.887,146.186 5.558,151.754 
		7.525,157.207 9.738,162.537 12.244,167.752 14.963,172.804 17.971,177.707 21.191,182.486 24.659,187.066 28.335,191.49 
		32.222,195.757 36.361,199.825 40.666,203.734 45.177,207.408 49.858,210.884 54.708,214.162 59.763,217.204 64.946,220.049 
		70.297,222.616 75.811,224.986 81.454,227.078 87.221,228.935 93.113,230.515 99.09,231.82 105.233,232.845 111.42,233.595 
		117.731,234.03 	"/>
	<polygon fill="#FBB231" points="192.494,44.91 258.318,44.91 258.318,38.55 198.178,38.55 	"/>
	<polygon fill="#FBB231" points="182.633,59.05 258.318,59.05 258.318,52.692 186.602,52.692 	"/>
	<polygon fill="#FBB231" points="175.275,73.152 258.318,73.152 258.318,66.792 178.201,66.792 	"/>
	<polygon fill="#FBB231" points="170.219,87.291 258.318,87.291 258.318,80.932 172.309,80.932 	"/>
	<polygon fill="#FBB231" points="173.145,155.627 258.527,155.627 258.527,149.265 171.057,149.265 	"/>
	<polygon fill="#FBB231" points="179.455,169.763 258.527,169.763 258.527,163.407 176.322,163.407 	"/>
	<polygon fill="#FBB231" points="188.316,183.868 258.527,183.868 258.527,177.507 184.094,177.507 	"/>
	<polygon fill="#FBB231" points="200.521,198.007 258.527,198.007 258.527,191.609 194.625,191.609 	"/>
	<polygon fill="#FBB231" points="167.252,101.395 258.318,101.395 258.318,95.034 168.547,95.034 	"/>
	<polygon fill="#FBB231" points="222.752,141.525 257.482,141.525 257.482,135.166 224.006,135.166 	"/>
	<polygon fill="#FBB231" points="225.51,127.424 257.482,127.424 257.482,121.024 226.766,121.024 	"/>
	<polygon fill="#FBB231" points="164.953,121.024 173.982,121.024 173.982,127.424 165.373,127.424 	"/>
	<polygon fill="#FFFFFF" points="148.113,113.323 147.526,113.282 146.942,113.203 146.397,113.124 145.856,113.046 
		145.354,112.967 144.811,112.887 144.266,112.808 143.682,112.73 143.098,112.651 142.43,112.611 141.678,112.573 140.883,112.532 
		140.004,112.532 139.043,112.573 137.957,112.651 136.746,112.73 135.908,112.848 135.115,112.967 134.405,113.203 
		133.778,113.441 133.192,113.716 132.649,114.033 132.229,114.428 131.854,114.784 131.604,115.217 131.397,115.654 
		131.311,116.127 131.311,116.602 131.438,117.115 131.604,117.627 131.942,118.141 132.356,118.655 133.192,119.404 
		134.196,119.998 135.365,120.51 136.619,120.946 137.957,121.34 139.334,121.775 140.713,122.249 142.053,122.763 143.307,123.433 
		144.477,124.262 145.52,125.251 146.397,126.474 147.069,127.975 147.487,129.756 147.653,131.886 147.487,134.375 
		147.192,136.232 146.692,137.851 146.022,139.352 145.188,140.656 144.225,141.8 143.139,142.787 141.967,143.657 140.672,144.408 
		139.334,145 137.957,145.513 136.535,145.907 135.074,146.222 133.653,146.461 132.274,146.58 130.895,146.659 129.598,146.698 
		127.799,146.698 126.129,146.659 124.666,146.659 123.287,146.618 122.035,146.58 120.906,146.5 119.905,146.424 118.94,146.302 
		118.063,146.222 117.27,146.068 116.477,145.948 115.764,145.752 115.055,145.591 114.385,145.357 113.717,145.119 
		113.006,144.881 114.887,136.154 115.264,136.232 115.725,136.349 116.307,136.507 117.018,136.666 117.772,136.823 
		118.608,136.983 119.528,137.177 120.53,137.338 121.574,137.495 122.662,137.653 123.789,137.773 124.961,137.89 126.17,137.929 
		127.383,137.968 128.596,137.968 129.807,137.929 131.02,137.694 131.979,137.377 132.733,136.942 133.317,136.388 
		133.735,135.838 134.071,135.204 134.28,134.573 134.447,133.981 134.53,132.836 134.153,131.847 133.444,131.056 132.399,130.384 
		131.145,129.793 129.682,129.201 128.051,128.648 126.42,128.016 124.75,127.305 123.162,126.474 121.699,125.448 120.362,124.223 
		119.317,122.722 118.565,120.946 118.188,118.812 118.231,116.284 118.44,114.744 118.733,113.282 119.153,111.941 
		119.651,110.675 120.319,109.491 121.072,108.464 121.951,107.477 122.994,106.609 124.209,105.858 125.545,105.225 
		127.047,104.632 128.721,104.198 130.602,103.842 132.649,103.566 134.905,103.408 137.373,103.368 138.918,103.368 
		140.338,103.408 141.635,103.448 142.807,103.488 143.85,103.566 144.811,103.646 145.645,103.724 146.397,103.802 147.11,103.882 
		147.694,104 148.238,104.079 148.74,104.158 149.156,104.238 149.535,104.277 149.908,104.357 150.244,104.397 	"/>
	<polyline fill="none" stroke="#FFFFFF" stroke-width="0.216" stroke-miterlimit="2.6131" points="148.113,113.323 148.113,113.323 
		147.526,113.282 146.942,113.203 146.397,113.124 145.856,113.046 145.354,112.967 144.811,112.887 144.266,112.808 
		143.682,112.73 143.098,112.651 142.43,112.611 141.678,112.573 140.883,112.532 140.004,112.532 139.043,112.573 137.957,112.651 
		136.746,112.73 136.746,112.73 135.908,112.848 135.115,112.967 134.405,113.203 133.778,113.441 133.192,113.716 132.649,114.033 
		132.229,114.428 131.854,114.784 131.604,115.217 131.397,115.654 131.311,116.127 131.311,116.602 131.438,117.115 
		131.604,117.627 131.942,118.141 132.356,118.655 132.356,118.655 133.192,119.404 134.196,119.998 135.365,120.51 
		136.619,120.946 137.957,121.34 139.334,121.775 140.713,122.249 142.053,122.763 143.307,123.433 144.477,124.262 145.52,125.251 
		146.397,126.474 147.069,127.975 147.487,129.756 147.653,131.886 147.487,134.375 147.487,134.375 147.192,136.232 
		146.692,137.851 146.022,139.352 145.188,140.656 144.225,141.8 143.139,142.787 141.967,143.657 140.672,144.408 139.334,145 
		137.957,145.513 136.535,145.907 135.074,146.222 133.653,146.461 132.274,146.58 130.895,146.659 129.598,146.698 
		129.598,146.698 127.799,146.698 126.129,146.659 124.666,146.659 123.287,146.618 122.035,146.58 120.906,146.5 119.905,146.424 
		118.94,146.302 118.063,146.222 117.27,146.068 116.477,145.948 115.764,145.752 115.055,145.591 114.385,145.357 113.717,145.119 
		113.006,144.881 114.887,136.154 114.887,136.154 115.264,136.232 115.725,136.349 116.307,136.507 117.018,136.666 
		117.772,136.823 118.608,136.983 119.528,137.177 120.53,137.338 121.574,137.495 122.662,137.653 123.789,137.773 124.961,137.89 
		126.17,137.929 127.383,137.968 128.596,137.968 129.807,137.929 129.807,137.929 131.02,137.694 131.979,137.377 132.733,136.942 
		133.317,136.388 133.735,135.838 134.071,135.204 134.28,134.573 134.447,133.981 134.447,133.981 134.53,132.836 134.153,131.847 
		133.444,131.056 132.399,130.384 131.145,129.793 129.682,129.201 128.051,128.648 126.42,128.016 124.75,127.305 123.162,126.474 
		121.699,125.448 120.362,124.223 119.317,122.722 118.565,120.946 118.188,118.812 118.231,116.284 118.231,116.284 
		118.44,114.744 118.733,113.282 119.153,111.941 119.651,110.675 120.319,109.491 121.072,108.464 121.951,107.477 
		122.994,106.609 124.209,105.858 125.545,105.225 127.047,104.632 128.721,104.198 130.602,103.842 132.649,103.566 
		134.905,103.408 137.373,103.368 137.373,103.368 138.918,103.368 140.338,103.408 141.635,103.448 142.807,103.488 
		143.85,103.566 144.811,103.646 145.645,103.724 146.397,103.802 147.11,103.882 147.694,104 148.238,104.079 148.74,104.158 
		149.156,104.238 149.535,104.277 149.908,104.357 150.244,104.397 148.113,113.323 	"/>
	<polygon fill="#FFFFFF" points="158.018,94.639 169.594,94.639 167.879,104.198 174.859,104.198 173.354,113.124 166,112.927 
		161.986,134.966 161.945,135.757 162.154,136.427 162.574,136.942 163.115,137.377 163.867,137.653 164.705,137.89 
		165.621,138.049 166.625,138.127 167.545,138.088 168.381,138.007 169.135,137.89 169.801,137.733 170.346,137.575 
		170.721,137.457 170.973,137.377 171.057,137.338 169.594,144.685 169.301,144.881 169.008,145.041 168.715,145.198 
		168.422,145.357 168.131,145.474 167.795,145.591 167.42,145.713 167.043,145.83 166.625,145.948 166.209,146.027 165.707,146.107 
		165.205,146.186 164.662,146.263 164.035,146.341 163.365,146.424 162.656,146.5 159.479,146.5 157.807,146.382 156.346,146.222 
		155.006,145.988 153.879,145.713 152.918,145.357 152.123,144.961 151.412,144.487 150.869,143.972 150.453,143.422 
		150.158,142.748 149.949,142.076 149.824,141.327 149.783,140.498 149.783,139.627 149.908,138.72 150.033,137.733 	"/>
	<polyline fill="none" stroke="#FFFFFF" stroke-width="0.216" stroke-miterlimit="2.6131" points="158.018,94.639 169.594,94.639 
		167.879,104.198 174.859,104.198 173.354,113.124 166,112.927 161.986,134.966 161.986,134.966 161.945,135.757 162.154,136.427 
		162.574,136.942 163.115,137.377 163.867,137.653 164.705,137.89 165.621,138.049 166.625,138.127 166.625,138.127 
		167.545,138.088 168.381,138.007 169.135,137.89 169.801,137.733 170.346,137.575 170.721,137.457 170.973,137.377 
		171.057,137.338 169.594,144.685 169.594,144.685 169.301,144.881 169.008,145.041 168.715,145.198 168.422,145.357 
		168.131,145.474 167.795,145.591 167.42,145.713 167.043,145.83 166.625,145.948 166.209,146.027 165.707,146.107 165.205,146.186 
		164.662,146.263 164.035,146.341 163.365,146.424 162.656,146.5 159.479,146.5 159.479,146.5 157.807,146.382 156.346,146.222 
		155.006,145.988 153.879,145.713 152.918,145.357 152.123,144.961 151.412,144.487 150.869,143.972 150.453,143.422 
		150.158,142.748 149.949,142.076 149.824,141.327 149.783,140.498 149.783,139.627 149.908,138.72 150.033,137.733 158.018,94.639 
			"/>
	<polygon fill="#FFFFFF" points="184.094,128.016 183.967,128.687 183.93,129.398 184.012,130.15 184.18,130.899 184.471,131.65 
		184.807,132.361 185.264,133.111 185.766,133.782 186.352,134.454 186.98,135.047 187.648,135.638 188.4,136.113 189.152,136.549 
		189.988,136.904 190.822,137.177 191.66,137.338 192.746,137.495 193.791,137.614 194.877,137.733 195.963,137.812 
		197.051,137.851 198.178,137.851 199.266,137.812 200.395,137.733 201.523,137.575 202.652,137.377 203.82,137.138 
		204.951,136.784 206.117,136.349 207.33,135.877 208.5,135.244 209.713,134.573 208.041,144.288 207.373,144.605 206.705,144.922 
		206.035,145.158 205.408,145.396 204.783,145.591 204.113,145.789 203.443,145.948 202.732,146.068 201.982,146.186 
		201.146,146.263 200.27,146.341 199.307,146.424 198.223,146.461 197.094,146.461 195.797,146.5 194.418,146.5 192.369,146.461 
		190.279,146.263 188.189,145.988 186.102,145.513 184.055,144.922 182.088,144.17 180.209,143.183 178.453,142.038 
		176.824,140.696 175.402,139.076 174.191,137.257 173.188,135.166 172.475,132.836 172.018,130.188 171.893,127.264 
		172.102,124.026 172.268,122.763 172.52,121.301 172.852,119.76 173.314,118.1 173.941,116.404 174.693,114.704 175.652,112.967 
		176.824,111.307 178.158,109.728 179.791,108.227 181.629,106.883 183.719,105.699 186.141,104.712 188.859,104 191.867,103.527 
		195.252,103.368 196.881,103.408 198.598,103.566 200.309,103.842 202.025,104.238 203.695,104.83 205.326,105.541 206.83,106.489 
		208.209,107.594 209.463,108.939 210.506,110.519 211.342,112.335 211.928,114.428 212.264,116.798 212.305,119.484 
		212.012,122.486 211.385,125.804 211.176,128.213 184.052,128.237 185.633,120.43 200.936,120.43 201.021,119.445 200.979,118.497 
		200.895,117.627 200.729,116.839 200.434,116.087 200.143,115.415 199.725,114.823 199.307,114.271 198.805,113.797 
		198.262,113.402 197.635,113.046 197.01,112.73 196.342,112.492 195.672,112.335 194.961,112.216 194.209,112.136 193.416,112.176 
		192.664,112.295 191.949,112.453 191.242,112.691 190.531,113.006 189.904,113.363 189.277,113.797 188.734,114.271 
		188.189,114.823 187.689,115.415 187.229,116.047 186.855,116.719 186.477,117.43 186.186,118.221 185.934,119.009 
		185.766,119.839 	"/>
	<polyline fill="none" stroke="#FFFFFF" stroke-width="0.216" stroke-miterlimit="2.6131" points="184.094,128.016 184.094,128.016 
		183.967,128.687 183.93,129.398 184.012,130.15 184.18,130.899 184.471,131.65 184.807,132.361 185.264,133.111 185.766,133.782 
		186.352,134.454 186.98,135.047 187.648,135.638 188.4,136.113 189.152,136.549 189.988,136.904 190.822,137.177 191.66,137.338 
		191.66,137.338 192.746,137.495 193.791,137.614 194.877,137.733 195.963,137.812 197.051,137.851 198.178,137.851 
		199.266,137.812 200.395,137.733 201.523,137.575 202.652,137.377 203.82,137.138 204.951,136.784 206.117,136.349 207.33,135.877 
		208.5,135.244 209.713,134.573 208.041,144.288 208.041,144.288 207.373,144.605 206.705,144.922 206.035,145.158 205.408,145.396 
		204.783,145.591 204.113,145.789 203.443,145.948 202.732,146.068 201.982,146.186 201.146,146.263 200.27,146.341 
		199.307,146.424 198.223,146.461 197.094,146.461 195.797,146.5 194.418,146.5 194.418,146.5 192.369,146.461 190.279,146.263 
		188.189,145.988 186.102,145.513 184.055,144.922 182.088,144.17 180.209,143.183 178.453,142.038 176.824,140.696 
		175.402,139.076 174.191,137.257 173.188,135.166 172.475,132.836 172.018,130.188 171.893,127.264 172.102,124.026 
		172.102,124.026 172.268,122.763 172.52,121.301 172.852,119.76 173.314,118.1 173.941,116.404 174.693,114.704 175.652,112.967 
		176.824,111.307 178.158,109.728 179.791,108.227 181.629,106.883 183.719,105.699 186.141,104.712 188.859,104 191.867,103.527 
		195.252,103.368 195.252,103.368 196.881,103.408 198.598,103.566 200.309,103.842 202.025,104.238 203.695,104.83 
		205.326,105.541 206.83,106.489 208.209,107.594 209.463,108.939 210.506,110.519 211.342,112.335 211.928,114.428 
		212.264,116.798 212.305,119.484 212.012,122.486 211.385,125.804 211.176,128.213 184.094,128.016 185.633,120.43 200.936,120.43 
		200.936,120.43 201.021,119.445 200.979,118.497 200.895,117.627 200.729,116.839 200.434,116.087 200.143,115.415 
		199.725,114.823 199.307,114.271 198.805,113.797 198.262,113.402 197.635,113.046 197.01,112.73 196.342,112.492 195.672,112.335 
		194.961,112.216 194.209,112.136 194.209,112.136 193.416,112.176 192.664,112.295 191.949,112.453 191.242,112.691 
		190.531,113.006 189.904,113.363 189.277,113.797 188.734,114.271 188.189,114.823 187.689,115.415 187.229,116.047 
		186.855,116.719 186.477,117.43 186.186,118.221 185.934,119.009 185.766,119.839 184.094,128.016 	"/>
	<polygon fill="#FFFFFF" points="283.768,106.569 283.225,106.291 282.682,106.054 282.098,105.779 281.471,105.501 
		280.844,105.264 280.133,105.028 279.422,104.79 278.67,104.553 277.877,104.357 277.082,104.198 276.205,104.04 275.326,103.922 
		274.365,103.842 273.402,103.764 272.4,103.764 271.357,103.764 270.313,103.764 269.225,103.842 268.096,103.962 266.928,104.158 
		265.756,104.474 264.588,104.909 263.416,105.462 262.244,106.173 261.119,107.042 260.031,108.069 258.986,109.333 
		257.982,110.794 257.064,112.532 256.186,114.507 255.393,116.719 254.725,119.247 254.473,120.668 254.305,122.05 
		254.221,123.433 254.264,124.778 254.389,126.119 254.682,127.383 255.057,128.568 255.518,129.756 256.145,130.822 
		256.896,131.847 257.773,132.756 258.775,133.584 259.906,134.295 261.201,134.888 262.623,135.402 264.211,135.757 
		264.754,135.877 265.379,135.994 266.131,136.073 266.969,136.154 267.887,136.232 268.848,136.232 269.895,136.232 
		270.938,136.154 272.025,136.033 273.111,135.838 274.156,135.562 275.201,135.244 276.246,134.81 277.207,134.295 
		278.084,133.664 278.92,132.953 277.041,143.5 276.789,143.697 276.539,143.931 276.205,144.211 275.828,144.448 275.367,144.763 
		274.781,145.041 274.115,145.316 273.361,145.552 272.4,145.83 271.314,146.027 270.061,146.186 268.598,146.341 266.969,146.424 
		265.088,146.461 262.955,146.424 260.615,146.302 258.693,146.107 256.77,145.713 254.85,145.119 252.926,144.329 251.088,143.381 
		249.332,142.195 247.66,140.814 246.115,139.234 244.734,137.457 243.564,135.482 242.563,133.27 241.811,130.86 241.309,128.213 
		241.141,125.408 241.225,122.328 241.686,119.05 242.018,117.43 242.393,115.85 242.813,114.31 243.23,112.848 243.689,111.465 
		244.232,110.083 244.777,108.781 245.361,107.555 245.99,106.33 246.617,105.187 247.326,104.079 248.076,103.051 248.828,102.066 
		249.668,101.117 250.502,100.248 251.379,99.419 252.34,98.629 253.303,97.878 254.305,97.207 255.352,96.575 256.479,95.982 
		257.607,95.469 258.775,94.995 259.988,94.56 261.285,94.165 262.58,93.848 263.916,93.573 265.34,93.335 266.758,93.137 
		268.266,92.981 269.77,92.902 271.357,92.863 272.695,92.902 273.99,92.981 275.242,93.097 276.496,93.257 277.668,93.415 
		278.795,93.652 279.883,93.848 280.885,94.086 281.846,94.323 282.682,94.56 283.477,94.797 284.146,95.034 284.729,95.232 
		285.23,95.389 285.607,95.548 285.857,95.627 	"/>
	<polyline fill="none" stroke="#FFFFFF" stroke-width="0.216" stroke-miterlimit="2.6131" points="283.768,106.569 283.768,106.569 
		283.225,106.291 282.682,106.054 282.098,105.779 281.471,105.501 280.844,105.264 280.133,105.028 279.422,104.79 278.67,104.553 
		277.877,104.357 277.082,104.198 276.205,104.04 275.326,103.922 274.365,103.842 273.402,103.764 272.4,103.764 271.357,103.764 
		271.357,103.764 270.313,103.764 269.225,103.842 268.096,103.962 266.928,104.158 265.756,104.474 264.588,104.909 
		263.416,105.462 262.244,106.173 261.119,107.042 260.031,108.069 258.986,109.333 257.982,110.794 257.064,112.532 
		256.186,114.507 255.393,116.719 254.725,119.247 254.725,119.247 254.473,120.668 254.305,122.05 254.221,123.433 
		254.264,124.778 254.389,126.119 254.682,127.383 255.057,128.568 255.518,129.756 256.145,130.822 256.896,131.847 
		257.773,132.756 258.775,133.584 259.906,134.295 261.201,134.888 262.623,135.402 264.211,135.757 264.211,135.757 
		264.754,135.877 265.379,135.994 266.131,136.073 266.969,136.154 267.887,136.232 268.848,136.232 269.895,136.232 
		270.938,136.154 272.025,136.033 273.111,135.838 274.156,135.562 275.201,135.244 276.246,134.81 277.207,134.295 
		278.084,133.664 278.92,132.953 277.041,143.5 277.041,143.5 276.789,143.697 276.539,143.931 276.205,144.211 275.828,144.448 
		275.367,144.763 274.781,145.041 274.115,145.316 273.361,145.552 272.4,145.83 271.314,146.027 270.061,146.186 268.598,146.341 
		266.969,146.424 265.088,146.461 262.955,146.424 260.615,146.302 260.615,146.302 258.693,146.107 256.77,145.713 254.85,145.119 
		252.926,144.329 251.088,143.381 249.332,142.195 247.66,140.814 246.115,139.234 244.734,137.457 243.564,135.482 242.563,133.27 
		241.811,130.86 241.309,128.213 241.141,125.408 241.225,122.328 241.686,119.05 241.686,119.05 242.018,117.43 242.393,115.85 
		242.813,114.31 243.23,112.848 243.689,111.465 244.232,110.083 244.777,108.781 245.361,107.555 245.99,106.33 246.617,105.187 
		247.326,104.079 248.076,103.051 248.828,102.066 249.668,101.117 250.502,100.248 251.379,99.419 252.34,98.629 253.303,97.878 
		254.305,97.207 255.352,96.575 256.479,95.982 257.607,95.469 258.775,94.995 259.988,94.56 261.285,94.165 262.58,93.848 
		263.916,93.573 265.34,93.335 266.758,93.137 268.266,92.981 269.77,92.902 271.357,92.863 271.357,92.863 272.695,92.902 
		273.99,92.981 275.242,93.097 276.496,93.257 277.668,93.415 278.795,93.652 279.883,93.848 280.885,94.086 281.846,94.323 
		282.682,94.56 283.477,94.797 284.146,95.034 284.729,95.232 285.23,95.389 285.607,95.548 285.857,95.627 283.768,106.569 	"/>
	<polygon fill="#FFFFFF" points="386.66,146.5 375.084,146.5 375.92,142.117 375.92,141.72 375.25,142.511 374.541,143.22 
		373.83,143.856 373.078,144.408 372.326,144.922 371.574,145.357 370.822,145.713 370.027,146.068 369.234,146.341 
		368.439,146.541 367.646,146.74 366.809,146.858 365.973,146.976 365.18,147.052 364.344,147.093 363.508,147.093 361.336,146.936 
		359.328,146.5 357.488,145.83 355.818,144.922 354.313,143.776 352.975,142.433 351.805,140.97 350.803,139.314 349.967,137.534 
		349.299,135.679 348.838,133.743 348.504,131.73 348.379,129.715 348.422,127.659 348.629,125.646 349.008,123.632 
		349.633,121.301 350.387,119.089 351.264,117.075 352.307,115.178 353.395,113.402 354.646,111.822 355.943,110.4 357.322,109.095 
		358.785,107.95 360.33,106.962 361.922,106.094 363.508,105.423 365.18,104.869 366.85,104.514 368.523,104.277 370.236,104.198 
		371.449,104.238 372.617,104.357 373.705,104.553 374.707,104.83 375.67,105.147 376.506,105.501 377.342,105.937 378.094,106.37 
		378.762,106.844 379.389,107.358 379.93,107.871 380.434,108.384 380.852,108.899 381.227,109.411 381.563,109.885 
		381.813,110.361 381.813,110.361 384.738,94.837 396.105,94.837 	"/>
	<polyline fill="none" stroke="#FFFFFF" stroke-width="0.216" stroke-miterlimit="2.6131" points="386.66,146.5 375.084,146.5 
		375.92,142.117 375.92,141.72 375.92,141.72 375.25,142.511 374.541,143.22 373.83,143.856 373.078,144.408 372.326,144.922 
		371.574,145.357 370.822,145.713 370.027,146.068 369.234,146.341 368.439,146.541 367.646,146.74 366.809,146.858 
		365.973,146.976 365.18,147.052 364.344,147.093 363.508,147.093 363.508,147.093 361.336,146.936 359.328,146.5 357.488,145.83 
		355.818,144.922 354.313,143.776 352.975,142.433 351.805,140.97 350.803,139.314 349.967,137.534 349.299,135.679 
		348.838,133.743 348.504,131.73 348.379,129.715 348.422,127.659 348.629,125.646 349.008,123.632 349.008,123.632 
		349.633,121.301 350.387,119.089 351.264,117.075 352.307,115.178 353.395,113.402 354.646,111.822 355.943,110.4 357.322,109.095 
		358.785,107.95 360.33,106.962 361.922,106.094 363.508,105.423 365.18,104.869 366.85,104.514 368.523,104.277 370.236,104.198 
		370.236,104.198 371.449,104.238 372.617,104.357 373.705,104.553 374.707,104.83 375.67,105.147 376.506,105.501 377.342,105.937 
		378.094,106.37 378.762,106.844 379.389,107.358 379.93,107.871 380.434,108.384 380.852,108.899 381.227,109.411 381.563,109.885 
		381.813,110.361 381.813,110.361 384.738,94.837 396.105,94.837 386.66,146.5 	"/>
	<polygon fill="#FBB231" points="367.73,136.942 368.898,136.865 369.986,136.627 370.988,136.349 371.949,135.916 372.828,135.441 
		373.664,134.847 374.457,134.177 375.168,133.465 375.795,132.675 376.381,131.806 376.922,130.899 377.383,129.951 
		377.801,128.965 378.135,127.937 378.426,126.87 378.637,125.804 378.846,124.698 378.971,123.551 378.971,122.486 
		378.928,121.381 378.805,120.354 378.637,119.365 378.344,118.417 378.01,117.508 377.592,116.719 377.092,115.967 
		376.547,115.336 375.92,114.784 375.209,114.31 374.457,113.993 373.664,113.797 372.787,113.716 371.656,113.797 370.613,113.954 
		369.65,114.271 368.689,114.665 367.854,115.178 367.019,115.812 366.309,116.484 365.598,117.233 364.971,118.1 364.385,119.009 
		363.842,119.957 363.383,120.985 362.965,122.05 362.631,123.116 362.295,124.262 362.047,125.408 361.838,127.147 
		361.922,129.043 362.213,130.978 362.756,132.836 363.592,134.454 364.678,135.757 366.057,136.627 	"/>
	<polygon fill="#FFFFFF" points="111.082,137.733 109.412,146.5 98.881,146.5 99.174,144.881 99.383,143.422 99.549,142.316 
		99.715,141.72 99.133,142.355 98.463,142.986 97.67,143.577 96.793,144.131 95.787,144.685 94.742,145.158 93.656,145.632 
		92.528,146.027 91.317,146.382 90.104,146.659 88.895,146.897 87.641,147.052 86.426,147.132 85.217,147.172 84.045,147.052 
		82.917,146.897 81.454,146.541 80.116,146.147 78.947,145.632 77.903,145.041 76.983,144.408 76.146,143.697 75.478,142.947 
		74.89,142.156 74.39,141.327 73.974,140.457 73.638,139.59 73.387,138.72 73.22,137.812 73.095,136.904 73.011,136.033 
		73.011,135.166 73.135,133.625 73.387,132.163 73.806,130.781 74.348,129.439 75.016,128.174 75.77,127.029 76.647,125.923 
		77.653,124.935 78.696,124.026 79.865,123.197 81.078,122.448 82.332,121.814 83.668,121.262 85.047,120.827 86.469,120.471 
		87.93,120.236 88.016,120.236 88.225,120.195 88.518,120.156 88.977,120.116 89.477,120.036 90.063,119.998 90.69,119.919 
		91.401,119.839 92.112,119.76 92.822,119.681 93.574,119.643 94.242,119.564 94.91,119.525 95.535,119.484 96.121,119.445 
		96.582,119.445 97.545,119.445 98.547,119.484 99.465,119.525 100.385,119.525 101.139,119.564 101.723,119.602 102.141,119.643 
		102.266,119.643 102.35,119.365 102.602,118.655 102.811,117.825 102.893,117.075 102.727,116.205 102.35,115.415 101.85,114.704 
		101.182,114.113 100.385,113.598 99.508,113.243 98.506,113.006 97.416,112.927 96.25,112.887 94.994,112.848 93.699,112.848 
		92.36,112.887 90.981,112.967 89.647,113.085 88.309,113.203 87.012,113.363 85.758,113.52 84.547,113.716 83.461,113.915 
		82.459,114.113 81.538,114.349 80.787,114.586 80.201,114.863 79.74,115.098 82.71,105.58 83.625,105.225 84.547,104.909 
		85.549,104.632 86.551,104.435 87.555,104.238 88.643,104.079 89.729,103.922 90.856,103.842 92.028,103.764 93.237,103.724 
		94.492,103.685 95.787,103.685 97.127,103.685 98.506,103.685 99.967,103.724 101.43,103.764 102.602,103.842 103.854,104.04 
		105.149,104.317 106.488,104.672 107.783,105.147 109.037,105.699 110.291,106.37 111.461,107.12 112.504,107.99 113.426,108.939 
		114.26,110.005 114.887,111.19 115.305,112.453 115.557,113.797 115.557,115.298 115.305,116.878 	"/>
	<polyline fill="none" stroke="#FFFFFF" stroke-width="0.216" stroke-miterlimit="2.6131" points="111.082,137.733 109.412,146.5 
		98.881,146.5 98.881,146.5 99.174,144.881 99.383,143.422 99.549,142.316 99.715,141.72 99.715,141.72 99.133,142.355 
		98.463,142.986 97.67,143.577 96.793,144.131 95.787,144.685 94.742,145.158 93.656,145.632 92.528,146.027 91.317,146.382 
		90.104,146.659 88.895,146.897 87.641,147.052 86.426,147.132 85.217,147.172 84.045,147.052 82.917,146.897 82.917,146.897 
		81.454,146.541 80.116,146.147 78.947,145.632 77.903,145.041 76.983,144.408 76.146,143.697 75.478,142.947 74.89,142.156 
		74.39,141.327 73.974,140.457 73.638,139.59 73.387,138.72 73.22,137.812 73.095,136.904 73.011,136.033 73.011,135.166 
		73.011,135.166 73.135,133.625 73.387,132.163 73.806,130.781 74.348,129.439 75.016,128.174 75.77,127.029 76.647,125.923 
		77.653,124.935 78.696,124.026 79.865,123.197 81.078,122.448 82.332,121.814 83.668,121.262 85.047,120.827 86.469,120.471 
		87.93,120.236 87.93,120.236 88.016,120.236 88.225,120.195 88.518,120.156 88.977,120.116 89.477,120.036 90.063,119.998 
		90.69,119.919 91.401,119.839 92.112,119.76 92.822,119.681 93.574,119.643 94.242,119.564 94.91,119.525 95.535,119.484 
		96.121,119.445 96.582,119.445 96.582,119.445 97.545,119.445 98.547,119.484 99.465,119.525 100.385,119.525 101.139,119.564 
		101.723,119.602 102.141,119.643 102.266,119.643 102.266,119.643 102.35,119.365 102.602,118.655 102.811,117.825 
		102.893,117.075 102.893,117.075 102.727,116.205 102.35,115.415 101.85,114.704 101.182,114.113 100.385,113.598 99.508,113.243 
		98.506,113.006 97.416,112.927 97.416,112.927 96.25,112.887 94.994,112.848 93.699,112.848 92.36,112.887 90.981,112.967 
		89.647,113.085 88.309,113.203 87.012,113.363 85.758,113.52 84.547,113.716 83.461,113.915 82.459,114.113 81.538,114.349 
		80.787,114.586 80.201,114.863 79.74,115.098 82.71,105.58 82.71,105.58 83.625,105.225 84.547,104.909 85.549,104.632 
		86.551,104.435 87.555,104.238 88.643,104.079 89.729,103.922 90.856,103.842 92.028,103.764 93.237,103.724 94.492,103.685 
		95.787,103.685 97.127,103.685 98.506,103.685 99.967,103.724 101.43,103.764 101.43,103.764 102.602,103.842 103.854,104.04 
		105.149,104.317 106.488,104.672 107.783,105.147 109.037,105.699 110.291,106.37 111.461,107.12 112.504,107.99 113.426,108.939 
		114.26,110.005 114.887,111.19 115.305,112.453 115.557,113.797 115.557,115.298 115.305,116.878 111.082,137.733 	"/>
	<polygon fill="#EC1C2E" points="101.012,127.424 100.969,127.227 100.803,127.029 100.553,126.909 100.135,126.83 99.676,126.753 
		99.133,126.711 98.506,126.711 97.879,126.711 97.209,126.753 96.498,126.83 95.83,126.909 95.16,126.99 94.533,127.068 
		93.951,127.188 93.449,127.305 92.988,127.424 92.696,127.502 92.36,127.62 91.903,127.78 91.444,127.975 90.899,128.213 
		90.356,128.49 89.772,128.765 89.227,129.084 88.643,129.477 88.098,129.871 87.598,130.345 87.137,130.822 86.719,131.334 
		86.426,131.886 86.176,132.519 86.049,133.152 86.01,134.493 86.219,135.562 86.637,136.349 87.178,136.942 87.805,137.338 
		88.518,137.575 89.186,137.694 89.854,137.733 91.108,137.694 92.235,137.575 93.324,137.416 94.283,137.177 95.119,136.904 
		95.912,136.549 96.623,136.193 97.252,135.757 97.795,135.364 98.297,134.888 98.713,134.454 99.049,133.981 99.34,133.507 
		99.592,133.032 99.801,132.597 99.926,132.163 100.26,131.019 100.553,129.715 100.803,128.45 	"/>
	<polygon fill="#FFFFFF" points="23.153,146.5 11.787,146.5 21.273,94.639 41.042,94.639 42.922,125.408 56.588,94.639 
		77.233,94.639 67.537,146.5 56.169,146.5 63.357,107.753 62.897,107.753 45.888,146.5 33.058,146.5 32.974,144.881 32.682,140.575 
		32.307,134.454 31.887,127.424 31.471,120.354 31.095,114.152 30.803,109.65 30.718,107.753 30.592,107.753 30.342,107.753 
		30.092,107.753 30.092,107.753 	"/>
	<polyline fill="none" stroke="#FFFFFF" stroke-width="0.216" stroke-miterlimit="2.6131" points="23.153,146.5 11.787,146.5 
		21.273,94.639 41.042,94.639 42.922,125.408 56.588,94.639 77.233,94.639 67.537,146.5 56.169,146.5 63.357,107.753 
		62.897,107.753 45.888,146.5 33.058,146.5 33.058,146.5 32.974,144.881 32.682,140.575 32.307,134.454 31.887,127.424 
		31.471,120.354 31.095,114.152 30.803,109.65 30.718,107.753 30.718,107.753 30.592,107.753 30.342,107.753 30.092,107.753 
		30.092,107.753 23.153,146.5 	"/>
	<polygon fill="#FFFFFF" points="318.498,137.733 316.785,146.5 306.295,146.5 306.377,144.881 306.422,143.459 306.422,142.393 
		306.504,141.92 305.961,142.511 305.334,143.104 304.582,143.657 303.746,144.211 302.869,144.722 301.863,145.198 300.82,145.672 
		299.775,146.068 298.646,146.382 297.477,146.698 296.305,146.897 295.137,147.052 293.924,147.132 292.754,147.172 
		291.625,147.052 290.496,146.897 288.992,146.541 287.654,146.147 286.486,145.632 285.398,145.041 284.479,144.408 
		283.686,143.697 283.016,142.947 282.432,142.156 281.93,141.327 281.555,140.457 281.221,139.59 281.01,138.72 280.844,137.812 
		280.719,136.904 280.635,136.033 280.635,135.166 280.719,133.625 280.969,132.163 281.346,130.781 281.887,129.439 
		282.514,128.174 283.309,127.029 284.188,125.923 285.148,124.935 286.236,124.026 287.363,123.197 288.574,122.448 
		289.869,121.814 291.166,121.262 292.545,120.827 293.924,120.471 295.346,120.236 295.428,120.236 295.639,120.195 
		295.93,120.156 296.35,120.116 296.891,120.036 297.477,119.998 298.104,119.919 298.771,119.839 299.482,119.76 300.234,119.681 
		300.945,119.643 301.656,119.564 302.324,119.525 302.91,119.484 303.494,119.445 303.955,119.445 304.959,119.445 
		305.961,119.484 306.92,119.525 307.84,119.525 308.637,119.564 309.305,119.602 309.68,119.643 309.848,119.643 309.93,119.365 
		310.055,118.655 310.182,117.825 310.266,117.075 310.098,116.205 309.764,115.415 309.219,114.704 308.592,114.113 
		307.84,113.598 306.963,113.243 306.043,113.006 305.041,112.927 303.871,112.887 302.617,112.848 301.32,112.848 299.982,112.887 
		298.605,112.967 297.268,113.085 295.93,113.203 294.635,113.363 293.379,113.52 292.17,113.716 291.082,113.915 290.08,114.113 
		289.16,114.349 288.408,114.586 287.822,114.863 287.363,115.098 290.289,105.58 291.207,105.225 292.17,104.909 293.129,104.632 
		294.135,104.435 295.178,104.238 296.223,104.079 297.309,103.922 298.438,103.842 299.607,103.764 300.82,103.724 
		302.031,103.685 303.326,103.685 304.623,103.685 305.961,103.685 307.381,103.724 308.803,103.764 309.971,103.842 
		311.227,104.04 312.521,104.317 313.859,104.672 315.154,105.147 316.449,105.699 317.703,106.37 318.875,107.12 319.918,107.99 
		320.879,108.939 321.717,110.005 322.342,111.19 322.803,112.453 323.094,113.797 323.094,115.298 322.885,116.878 	"/>
	<polygon fill="#FFFFFF" points="316.785,146.779 317.035,146.541 318.748,137.773 318.248,137.694 316.533,146.461 
		316.785,146.222 316.785,146.779 316.992,146.74 317.035,146.541 	"/>
	<polygon fill="#FFFFFF" points="306.043,146.5 306.295,146.779 316.785,146.779 316.785,146.222 306.295,146.222 306.543,146.5 
		306.043,146.5 306.002,146.779 306.295,146.779 	"/>
	<polygon fill="#FFFFFF" points="306.713,142.076 306.336,141.761 306.168,142.393 306.127,143.459 306.127,144.881 306.043,146.5 
		306.543,146.5 306.629,144.881 306.713,143.459 306.67,142.393 306.67,142.076 306.295,141.761 	"/>
	<polygon fill="#FFFFFF" points="290.457,147.132 290.457,147.132 291.625,147.291 292.754,147.409 293.924,147.37 295.137,147.291 
		296.35,147.132 297.518,146.936 298.689,146.618 299.859,146.302 300.904,145.907 301.988,145.433 302.992,144.961 
		303.871,144.408 304.748,143.856 305.5,143.3 306.168,142.67 306.713,142.076 306.295,141.761 305.752,142.355 305.166,142.907 
		304.414,143.459 303.621,144.011 302.744,144.487 301.738,144.961 300.734,145.433 299.691,145.83 298.605,146.147 
		297.434,146.461 296.266,146.659 295.137,146.818 293.924,146.897 292.754,146.936 291.625,146.818 290.541,146.659 
		290.541,146.659 	"/>
	<polygon fill="#FFFFFF" points="280.342,135.166 280.342,135.166 280.383,136.033 280.467,136.904 280.59,137.851 280.76,138.759 
		280.969,139.627 281.303,140.536 281.68,141.446 282.223,142.275 282.809,143.104 283.477,143.856 284.313,144.605 
		285.273,145.239 286.361,145.869 287.57,146.382 288.951,146.779 290.457,147.132 290.541,146.659 289.033,146.302 
		287.738,145.907 286.611,145.396 285.523,144.841 284.645,144.211 283.893,143.538 283.225,142.787 282.639,142.038 
		282.182,141.209 281.805,140.379 281.471,139.549 281.262,138.679 281.094,137.773 280.969,136.904 280.885,136.033 
		280.926,135.166 280.926,135.166 	"/>
	<polygon fill="#FFFFFF" points="295.346,119.998 295.346,119.998 293.883,120.236 292.461,120.59 291.082,121.024 289.744,121.577 
		288.447,122.21 287.195,122.999 286.066,123.83 284.98,124.778 283.977,125.763 283.1,126.87 282.264,128.054 281.637,129.359 
		281.094,130.702 280.719,132.125 280.467,133.625 280.342,135.166 280.926,135.166 280.969,133.625 281.221,132.201 
		281.596,130.86 282.139,129.518 282.766,128.292 283.518,127.188 284.395,126.08 285.314,125.093 286.402,124.223 287.529,123.395 
		288.699,122.683 289.996,122.05 291.248,121.499 292.627,121.065 293.965,120.709 295.346,120.471 295.346,120.471 	"/>
	<polygon fill="#FFFFFF" points="303.955,119.169 303.955,119.169 303.494,119.169 302.91,119.247 302.324,119.287 301.656,119.326 
		300.945,119.404 300.234,119.445 299.482,119.525 298.771,119.602 298.104,119.681 297.477,119.76 296.891,119.799 296.35,119.88 
		295.93,119.919 295.594,119.957 295.428,119.998 295.346,119.998 295.346,120.471 295.428,120.471 295.678,120.43 295.93,120.393 
		296.35,120.354 296.891,120.274 297.477,120.236 298.104,120.156 298.771,120.076 299.482,119.998 300.234,119.919 300.945,119.88 
		301.656,119.799 302.324,119.76 302.91,119.719 303.494,119.719 303.955,119.719 303.955,119.719 	"/>
	<polygon fill="#FFFFFF" points="309.596,119.602 309.848,119.404 309.68,119.404 309.305,119.365 308.637,119.326 307.84,119.247 
		306.92,119.247 305.961,119.247 304.959,119.169 303.955,119.169 303.955,119.719 304.959,119.719 305.961,119.719 306.92,119.799 
		307.84,119.799 308.637,119.799 309.305,119.839 309.68,119.88 309.848,119.88 310.098,119.681 309.848,119.88 310.055,119.919 
		310.098,119.681 	"/>
	<polygon fill="#FFFFFF" points="310.014,117.075 309.971,117.075 309.93,117.825 309.805,118.615 309.68,119.326 309.596,119.602 
		310.098,119.681 310.182,119.404 310.307,118.693 310.432,117.825 310.557,117.075 310.516,117.075 	"/>
	<polygon fill="#FFFFFF" points="305.041,113.164 305.041,113.203 306.002,113.243 306.879,113.482 307.715,113.835 308.426,114.31 
		309.01,114.863 309.514,115.534 309.848,116.245 310.014,117.075 310.516,117.075 310.348,116.167 310.014,115.298 309.43,114.547 
		308.762,113.915 307.967,113.363 307.047,113.006 306.086,112.769 305.041,112.651 305.041,112.691 	"/>
	<polygon fill="#FFFFFF" points="287.113,115.061 287.529,115.298 287.947,115.098 288.492,114.823 289.201,114.586 
		290.121,114.349 291.123,114.152 292.211,113.954 293.424,113.757 294.635,113.598 295.93,113.441 297.268,113.323 
		298.605,113.203 299.982,113.124 301.32,113.124 302.617,113.124 303.871,113.124 305.041,113.164 305.041,112.691 
		303.871,112.651 302.617,112.573 301.32,112.573 299.982,112.651 298.605,112.73 297.268,112.848 295.93,112.967 294.635,113.124 
		293.338,113.282 292.127,113.482 291.041,113.677 290.037,113.875 289.117,114.113 288.322,114.349 287.695,114.626 
		287.195,114.903 287.613,115.138 	"/>
	<polygon fill="#FFFFFF" points="290.205,105.343 290.037,105.541 287.113,115.061 287.613,115.138 290.541,105.62 290.371,105.818 
		290.205,105.343 290.08,105.382 290.037,105.541 	"/>
	<polygon fill="#FFFFFF" points="308.803,103.527 308.803,103.527 307.381,103.448 305.961,103.408 304.623,103.408 
		303.326,103.408 302.031,103.408 300.82,103.488 299.607,103.527 298.438,103.606 297.309,103.685 296.18,103.842 295.137,104 
		294.09,104.198 293.088,104.397 292.086,104.672 291.123,104.988 290.205,105.343 290.371,105.818 291.293,105.462 
		292.252,105.147 293.172,104.869 294.174,104.672 295.221,104.474 296.266,104.317 297.309,104.158 298.438,104.079 299.607,104 
		300.82,103.962 302.031,103.962 303.326,103.962 304.623,103.962 305.961,103.962 307.381,104 308.803,104 308.803,104 	"/>
	<polygon fill="#FFFFFF" points="323.137,116.916 323.137,116.916 323.346,115.298 323.346,113.797 323.055,112.413 
		322.594,111.111 321.926,109.885 321.088,108.781 320.086,107.793 319.041,106.924 317.828,106.173 316.576,105.462 
		315.238,104.909 313.943,104.435 312.564,104.079 311.268,103.802 309.971,103.606 308.803,103.527 308.803,104 309.971,104.079 
		311.184,104.277 312.48,104.553 313.775,104.909 315.07,105.382 316.324,105.937 317.578,106.569 318.707,107.32 319.752,108.188 
		320.67,109.095 321.506,110.122 322.092,111.269 322.551,112.492 322.844,113.797 322.844,115.298 322.635,116.839 
		322.635,116.839 	"/>
	<polygon fill="#FFFFFF" points="318.748,137.773 318.748,137.773 323.137,116.916 322.635,116.839 318.248,137.694 
		318.248,137.694 	"/>
	<polygon fill="#FBB231" points="308.383,127.424 308.301,127.188 308.135,126.99 307.84,126.87 307.424,126.753 306.963,126.711 
		306.422,126.673 305.793,126.673 305.166,126.711 304.498,126.791 303.83,126.87 303.16,126.948 302.533,127.029 301.906,127.147 
		301.361,127.227 300.82,127.344 300.402,127.424 300.109,127.463 299.775,127.581 299.357,127.7 298.896,127.858 298.354,128.094 
		297.854,128.331 297.268,128.609 296.725,128.965 296.18,129.32 295.639,129.756 295.178,130.188 294.717,130.702 294.344,131.254 
		294.051,131.847 293.799,132.48 293.674,133.152 293.633,134.493 293.84,135.562 294.174,136.349 294.676,136.942 295.303,137.338 
		296.014,137.575 296.725,137.694 297.434,137.733 298.689,137.694 299.859,137.575 300.945,137.377 301.906,137.101 
		302.828,136.784 303.621,136.427 304.373,136.033 305.041,135.562 305.625,135.125 306.127,134.612 306.588,134.136 
		306.963,133.625 307.256,133.152 307.465,132.675 307.631,132.201 307.756,131.769 307.926,130.661 308.135,129.518 
		308.301,128.411 	"/>
	<polygon fill="#FFFFFF" points="321.633,146.5 333.418,146.5 333.418,146.5 337.641,124.026 337.805,123.157 338.055,122.288 
		338.309,121.419 338.641,120.551 339.061,119.681 339.563,118.853 340.104,118.062 340.773,117.313 341.525,116.639 
		342.359,116.008 343.322,115.415 344.408,114.943 345.621,114.547 346.959,114.232 348.422,113.993 350.051,113.915 
		350.637,113.915 350.969,113.915 351.094,113.915 351.094,113.915 352.975,103.764 351.805,103.842 350.678,103.962 
		349.633,104.158 348.629,104.435 347.711,104.751 346.832,105.147 345.996,105.58 345.205,106.054 344.451,106.609 
		343.742,107.161 343.07,107.793 342.402,108.424 341.777,109.095 341.15,109.846 340.523,110.556 339.938,111.347 341.191,104.198 
		329.447,104.198 321.633,146.5 	"/>
	<polyline fill="none" stroke="#FFFFFF" stroke-width="0.216" stroke-miterlimit="2.6131" points="321.633,146.5 333.418,146.5 
		333.418,146.5 337.641,124.026 337.641,124.026 337.805,123.157 338.055,122.288 338.309,121.419 338.641,120.551 339.061,119.681 
		339.563,118.853 340.104,118.062 340.773,117.313 341.525,116.639 342.359,116.008 343.322,115.415 344.408,114.943 
		345.621,114.547 346.959,114.232 348.422,113.993 350.051,113.915 350.051,113.915 350.637,113.915 350.969,113.915 
		351.094,113.915 351.094,113.915 352.975,103.764 352.975,103.764 351.805,103.842 350.678,103.962 349.633,104.158 
		348.629,104.435 347.711,104.751 346.832,105.147 345.996,105.58 345.205,106.054 344.451,106.609 343.742,107.161 343.07,107.793 
		342.402,108.424 341.777,109.095 341.15,109.846 340.523,110.556 339.938,111.347 341.191,104.198 329.447,104.198 321.633,146.5 
		321.633,146.5 	"/>
	<polygon fill="#FFFFFF" points="210.967,146.5 222.752,146.5 222.963,146.5 226.973,124.026 227.139,123.157 227.35,122.328 
		227.559,121.499 227.852,120.709 228.186,119.919 228.602,119.169 229.104,118.456 229.689,117.786 230.359,117.192 
		231.111,116.602 232.029,116.127 233.033,115.693 234.203,115.336 235.498,115.021 236.92,114.823 238.549,114.704 
		238.674,114.704 238.844,114.744 239.051,114.784 239.26,114.784 239.471,114.823 239.637,114.863 239.762,114.903 
		239.803,114.903 239.846,114.744 239.971,114.271 240.139,113.56 240.348,112.691 240.639,111.663 240.934,110.556 
		241.309,109.451 241.686,108.344 242.018,107.594 242.438,106.844 242.854,106.094 243.271,105.423 243.648,104.83 
		243.941,104.357 244.15,104.079 244.232,103.962 244.191,103.962 244.023,103.922 243.816,103.882 243.523,103.842 243.23,103.842 
		242.895,103.802 242.604,103.764 242.313,103.764 241.016,103.842 239.846,103.962 238.76,104.158 237.756,104.397 
		236.795,104.712 235.918,105.107 235.121,105.501 234.369,105.975 233.66,106.489 232.99,107.081 232.365,107.674 231.738,108.344 
		231.111,109.016 230.525,109.768 229.898,110.556 229.271,111.347 230.775,104.198 218.783,104.198 210.967,146.5 	"/>
	<polyline fill="none" stroke="#FFFFFF" stroke-width="0.216" stroke-miterlimit="2.6131" points="210.967,146.5 222.752,146.5 
		222.963,146.5 226.973,124.026 226.973,124.026 227.139,123.157 227.35,122.328 227.559,121.499 227.852,120.709 228.186,119.919 
		228.602,119.169 229.104,118.456 229.689,117.786 230.359,117.192 231.111,116.602 232.029,116.127 233.033,115.693 
		234.203,115.336 235.498,115.021 236.92,114.823 238.549,114.704 238.549,114.704 238.674,114.704 238.844,114.744 
		239.051,114.784 239.26,114.784 239.471,114.823 239.637,114.863 239.762,114.903 239.803,114.903 239.803,114.903 
		239.846,114.744 239.971,114.271 240.139,113.56 240.348,112.691 240.639,111.663 240.934,110.556 241.309,109.451 
		241.686,108.344 241.686,108.344 242.018,107.594 242.438,106.844 242.854,106.094 243.271,105.423 243.648,104.83 
		243.941,104.357 244.15,104.079 244.232,103.962 244.232,103.962 244.191,103.962 244.023,103.922 243.816,103.882 
		243.523,103.842 243.23,103.842 242.895,103.802 242.604,103.764 242.313,103.764 242.313,103.764 241.016,103.842 
		239.846,103.962 238.76,104.158 237.756,104.397 236.795,104.712 235.918,105.107 235.121,105.501 234.369,105.975 233.66,106.489 
		232.99,107.081 232.365,107.674 231.738,108.344 231.111,109.016 230.525,109.768 229.898,110.556 229.271,111.347 
		230.775,104.198 218.783,104.198 210.967,146.5 210.967,146.5 	"/>
</g>
</svg>
