<?xml version="1.0" encoding="utf-8"?>
<!-- Generator: Adobe Illustrator 25.2.1, SVG Export Plug-In . SVG Version: 6.00 Build 0)  -->
<svg version="1.1" id="Слой_1" xmlns="http://www.w3.org/2000/svg" xmlns:xlink="http://www.w3.org/1999/xlink" x="0px" y="0px"
	 viewBox="0 0 32 32" style="enable-background:new 0 0 32 32;" xml:space="preserve">
<style type="text/css">
	.st0{fill:#FFFFFF;}
</style>
<path class="st0" d="M16,2c7.7,0,14,6.3,14,14s-6.3,14-14,14S2,23.7,2,16S8.3,2,16,2 M16,0C7.2,0,0,7.2,0,16c0,8.8,7.2,16,16,16
	c8.8,0,16-7.2,16-16C32,7.2,24.8,0,16,0L16,0z"/>
<path id="XMLID_19_" class="st0" d="M17.3,12.4V11c0-0.7,0.5-0.9,0.8-0.9c0.3,0,2,0,2,0V7l-2.8,0c-3.1,0-3.8,2.3-3.8,3.8v1.6h-1.8
	v2.2V16h1.8c0,4.1,0,9,0,9h3.6c0,0,0-5,0-9h2.7l0.1-1.4l0.2-2.2H17.3z"/>
</svg>
