<svg width="30" height="30" viewBox="0 0 30 30" fill="none" xmlns="http://www.w3.org/2000/svg">
<path d="M15 10C12.25 10 10 12.25 10 15C10 17.75 12.25 20 15 20C17.75 20 20 17.75 20 15C20 12.25 17.75 10 15 10ZM26.1667 13.75C25.5833 8.5 21.4167 4.41667 16.25 3.83333V1.25H13.75V3.83333C8.5 4.41667 4.41667 8.5 3.83333 13.75H1.25V16.25H3.83333C4.41667 21.5 8.58333 25.5833 13.75 26.1667V28.75H16.25V26.1667C21.5 25.5833 25.5833 21.4167 26.1667 16.25H28.75V13.75H26.1667ZM15 23.75C10.1667 23.75 6.25 19.8333 6.25 15C6.25 10.1667 10.1667 6.25 15 6.25C19.8333 6.25 23.75 10.1667 23.75 15C23.75 19.8333 19.8333 23.75 15 23.75Z" fill="#21385E"/>
</svg>
