<?xml version="1.0" encoding="utf-8"?>
<!-- Generator: Adobe Illustrator 25.2.1, SVG Export Plug-In . SVG Version: 6.00 Build 0)  -->
<svg version="1.1" id="Слой_1" xmlns="http://www.w3.org/2000/svg" xmlns:xlink="http://www.w3.org/1999/xlink" x="0px" y="0px"
	 viewBox="0 0 32 32" style="enable-background:new 0 0 32 32;" xml:space="preserve">
<style type="text/css">
	.st0{fill:#FFFFFF;}
</style>
<g>
	<path class="st0" d="M16,2c7.7,0,14,6.3,14,14s-6.3,14-14,14S2,23.7,2,16S8.3,2,16,2 M16,0C7.2,0,0,7.2,0,16c0,8.8,7.2,16,16,16
		c8.8,0,16-7.2,16-16C32,7.2,24.8,0,16,0L16,0z"/>
</g>
<path class="st0" d="M22.8,8.5L6.4,14.9c-0.5,0.2-0.5,1,0,1.1l4.2,1.2l1.6,5c0.2,0.5,0.8,0.7,1.2,0.3l2.2-2.2l4.2,3.1
	c0.5,0.4,1.3,0.1,1.4-0.5L24,9.4C24.1,8.8,23.5,8.2,22.8,8.5L22.8,8.5L22.8,8.5z M20.8,11.5l-7.6,6.8c-0.1,0.1-0.1,0.2-0.1,0.3
	l-0.3,2.6c0,0.1-0.1,0.1-0.2,0l-1.2-3.9c-0.1-0.2,0-0.4,0.2-0.5l9-5.6C20.8,11,21,11.3,20.8,11.5L20.8,11.5L20.8,11.5z"/>
</svg>
