<?xml version="1.0" encoding="utf-8"?>
<!-- Generator: Adobe Illustrator 25.2.1, SVG Export Plug-In . SVG Version: 6.00 Build 0)  -->
<svg version="1.1" id="Слой_1" xmlns="http://www.w3.org/2000/svg" xmlns:xlink="http://www.w3.org/1999/xlink" x="0px" y="0px"
	 viewBox="0 0 32 32" style="enable-background:new 0 0 32 32;" xml:space="preserve">
<style type="text/css">
	.st0{fill:#FFFFFF;}
</style>
<path class="st0" d="M19.1,19.1c-2.5,2.6-2.7,5.8-2.9,12.9c6.6,0,11.2,0,13.5-2.3C32,27.3,32,22.6,32,16.2
	C24.9,16.4,21.7,16.6,19.1,19.1 M0,16.2c0,6.4,0,11.2,2.3,13.5C4.7,32,9.2,32,15.8,32c-0.2-7.1-0.4-10.3-2.9-12.9
	C10.3,16.6,7.1,16.4,0,16.2 M15.8,0C9.2,0,4.7,0,2.3,2.3C0,4.7,0,9.4,0,15.8c7.1-0.2,10.3-0.4,12.9-2.9C15.4,10.3,15.6,7.1,15.8,0
	 M19.1,12.9c-2.5-2.6-2.7-5.8-2.9-12.9c6.6,0,11.2,0,13.5,2.3C32,4.7,32,9.4,32,15.8C24.9,15.6,21.7,15.4,19.1,12.9"/>
</svg>
