<?xml version="1.0" encoding="utf-8"?>
<!-- Generator: Adobe Illustrator 25.2.1, SVG Export Plug-In . SVG Version: 6.00 Build 0)  -->
<svg version="1.1" id="Слой_1" xmlns="http://www.w3.org/2000/svg" xmlns:xlink="http://www.w3.org/1999/xlink" x="0px" y="0px"
	 viewBox="0 0 32 32" style="enable-background:new 0 0 32 32;" xml:space="preserve">
<style type="text/css">
	.st0{fill:#FFFFFF;}
</style>
<path class="st0" d="M16,2c7.7,0,14,6.3,14,14s-6.3,14-14,14S2,23.7,2,16S8.3,2,16,2 M16,0C7.2,0,0,7.2,0,16c0,8.8,7.2,16,16,16
	c8.8,0,16-7.2,16-16C32,7.2,24.8,0,16,0L16,0z"/>
<path class="st0" d="M24.9,11.5c-0.2-0.2-1.1-0.2-1.9-0.2c-0.9,0-1.7,0-1.9,0.1c-0.2,0.1-0.6,1.1-1.1,2.1c-0.6,1.2-1.4,2.3-1.9,2.3
	c-0.6,0-0.5-1.9-0.4-3.4c0-0.9-0.1-1.2-0.3-1.3C16.9,11,16,10.7,16,10.7s-2.7-0.2-3.1,1c0.5,0.1,1.4-0.1,1.1,3.5
	c0,0.2-0.4,1.7-1.7-0.4c-0.3-0.5-1.5-3.5-1.9-3.5c-1.4,0-2.8-0.1-3.3,0.2c-0.4,0.2,0.6,2.3,2.4,5.1c1.5,2.3,3,4.1,5.7,4.5
	c0.5,0.1,1.8,0.1,2.2-0.1c0.3-0.1-0.1-2.1,0.9-2.3c0.4-0.1,2,2.1,2.7,2.3c0.4,0.1,1.2,0.2,2,0.2c0.9,0,1.9,0.1,2-0.5
	c0.2-1.4-2.7-3.1-2.8-4c-0.1-0.6,1.1-1.7,1.7-2.6C24.5,13.2,25.3,11.9,24.9,11.5z"/>
</svg>
