<?xml version="1.0" encoding="utf-8"?>
<!-- Generator: Adobe Illustrator 25.2.1, SVG Export Plug-In . SVG Version: 6.00 Build 0)  -->
<svg version="1.1" id="Слой_1" xmlns="http://www.w3.org/2000/svg" xmlns:xlink="http://www.w3.org/1999/xlink" x="0px" y="0px"
	 viewBox="0 0 32 32" style="enable-background:new 0 0 32 32;" xml:space="preserve">
<style type="text/css">
	.st0{fill:#FFFFFF;}
</style>
<path class="st0" d="M16,2c7.7,0,14,6.3,14,14s-6.3,14-14,14S2,23.7,2,16S8.3,2,16,2 M16,0C7.2,0,0,7.2,0,16c0,8.8,7.2,16,16,16
	c8.8,0,16-7.2,16-16C32,7.2,24.8,0,16,0L16,0z"/>
<path class="st0" d="M24.8,12.2c0,0-0.2-1.3-0.7-1.9c-0.7-0.7-1.5-0.8-1.8-0.8C19.8,9.4,16,9.4,16,9.4h0c0,0-3.8,0-6.3,0.2
	c-0.4,0-1.1,0-1.8,0.8c-0.5,0.6-0.7,1.9-0.7,1.9S7,13.8,7,15.3v0.2v1.2c0,1.5,0.2,3,0.2,3s0.2,1.3,0.7,1.9c0.7,0.7,1.6,0.7,2,0.8
	c1.4,0.1,6.1,0.2,6.1,0.2s3.8,0,6.3-0.2c0.4,0,1.1,0,1.8-0.8c0.5-0.6,0.7-1.9,0.7-1.9s0.2-1.5,0.2-3v-1.2v-0.3
	C25,13.8,24.8,12.2,24.8,12.2z M19,15.8l-4.9,2.6l0-4l0-1.2l2.2,1.2L19,15.8z"/>
</svg>
