<svg width="367" height="199" viewBox="0 0 367 199" fill="none" xmlns="http://www.w3.org/2000/svg">
<g clip-path="url(#clip0)">
<path d="M184.678 199C284.193 199 364.866 193.674 364.866 187.105C364.866 180.536 284.193 175.21 184.678 175.21C85.1625 175.21 4.48959 180.536 4.48959 187.105C4.48959 193.674 85.1625 199 184.678 199Z" fill="#F2F2F2"/>
<path d="M177.771 56.8867C148.414 56.8867 127.335 75.6682 127.335 119.492C127.335 169.158 148.414 182.305 177.771 182.305C207.129 182.305 229.463 167.906 229.463 119.492C229.463 67.7383 207.129 56.8867 177.771 56.8867ZM177.964 165.819C157.631 165.819 147.008 153.924 147.008 119.524C147.008 89.1706 158.065 73.164 178.399 73.164C198.733 73.164 209.791 83.6782 209.791 119.524C209.791 153.057 198.298 165.819 177.964 165.819Z" fill="#2F2E41"/>
<path d="M109.756 147.664H97.618V112.022C97.618 110.129 96.8638 108.313 95.5214 106.974C94.179 105.636 92.3582 104.884 90.4598 104.884H87.6156C86.6755 104.884 85.7447 105.068 84.8762 105.427C84.0077 105.786 83.2186 106.312 82.5539 106.974C81.8892 107.637 81.3619 108.424 81.0022 109.29C80.6424 110.156 80.4573 111.084 80.4573 112.022V147.664H46.2198C45.5155 147.664 44.8231 147.482 44.2099 147.137C43.5966 146.791 43.0833 146.294 42.7198 145.692C42.3562 145.091 42.1547 144.406 42.1349 143.704C42.1151 143.002 42.2776 142.306 42.6066 141.685L78.8432 73.2958C79.2949 72.4431 79.5688 71.5081 79.6481 70.547C79.7275 69.5859 79.6107 68.6187 79.3049 67.7039C78.999 66.7891 78.5104 65.9455 77.8686 65.2241C77.2268 64.5028 76.4451 63.9186 75.5706 63.5068L73.4315 62.4995C71.7705 61.7174 69.8715 61.6019 68.1275 62.1769C66.3835 62.752 64.9279 63.9736 64.0619 65.5889L19.8667 148.03C19.1141 149.434 18.7204 151.001 18.7204 152.593C18.7204 153.864 18.9715 155.122 19.4593 156.297C19.9471 157.471 20.662 158.538 21.5634 159.437C22.4647 160.336 23.5347 161.049 24.7124 161.535C25.89 162.021 27.1522 162.272 28.4269 162.272H80.4573V184.809C80.4573 185.933 80.6792 187.046 81.1104 188.084C81.5416 189.122 82.1736 190.065 82.9704 190.859C83.7672 191.654 84.7131 192.284 85.7541 192.714C86.7951 193.144 87.9109 193.365 89.0376 193.365H89.0377C90.1644 193.365 91.2802 193.144 92.3212 192.714C93.3622 192.284 94.3081 191.654 95.1049 190.859C95.9016 190.065 96.5337 189.122 96.9649 188.084C97.3961 187.046 97.618 185.933 97.618 184.809V162.272H109.756C111.699 162.272 113.562 161.502 114.935 160.132C116.309 158.763 117.081 156.905 117.081 154.968C117.081 153.031 116.309 151.173 114.935 149.803C113.562 148.433 111.699 147.664 109.756 147.664Z" fill="#35BCAB"/>
<path d="M334.52 147.664H322.382V112.022C322.382 110.129 321.628 108.313 320.285 106.974C318.943 105.636 317.122 104.884 315.224 104.884H312.38C311.44 104.884 310.509 105.068 309.64 105.427C308.772 105.786 307.983 106.312 307.318 106.974C306.653 107.637 306.126 108.424 305.766 109.29C305.406 110.156 305.221 111.084 305.221 112.022V147.664H270.984C270.28 147.664 269.587 147.482 268.974 147.137C268.361 146.791 267.847 146.294 267.484 145.692C267.12 145.091 266.919 144.406 266.899 143.704C266.879 143.002 267.042 142.306 267.371 141.685L303.607 73.2958C304.059 72.4432 304.333 71.5081 304.412 70.547C304.492 69.5859 304.375 68.6187 304.069 67.7039C303.763 66.7891 303.274 65.9455 302.633 65.2241C301.991 64.5028 301.209 63.9186 300.335 63.5068L298.196 62.4995C296.535 61.7174 294.636 61.6019 292.892 62.1769C291.148 62.752 289.692 63.9736 288.826 65.5889L244.631 148.03C243.878 149.434 243.484 151.001 243.484 152.593C243.484 155.16 244.507 157.622 246.327 159.437C248.148 161.252 250.617 162.272 253.191 162.272H305.221V184.809C305.221 187.079 306.125 189.255 307.734 190.859C309.344 192.464 311.526 193.365 313.802 193.365C316.077 193.365 318.26 192.464 319.869 190.859C321.478 189.255 322.382 187.079 322.382 184.809V162.272H334.52C336.463 162.272 338.326 161.502 339.7 160.132C341.073 158.763 341.845 156.905 341.845 154.968C341.845 153.031 341.073 151.173 339.7 149.803C338.326 148.433 336.463 147.664 334.52 147.664Z" fill="#35BCAB"/>
<path d="M113.105 143.49H100.967V107.848C100.967 106.911 100.781 105.983 100.422 105.117C100.062 104.251 99.5346 103.464 98.8699 102.801C98.2052 102.138 97.4161 101.612 96.5476 101.254C95.6791 100.895 94.7483 100.71 93.8083 100.71H90.9641C89.0656 100.71 87.2448 101.462 85.9024 102.801C84.56 104.139 83.8058 105.955 83.8058 107.848V143.49H49.5683C48.864 143.49 48.1716 143.309 47.5584 142.963C46.9451 142.618 46.4318 142.12 46.0683 141.519C45.7047 140.917 45.5033 140.232 45.4834 139.53C45.4636 138.828 45.6261 138.133 45.9551 137.512L82.1917 69.1222C82.6434 68.2696 82.9173 67.3345 82.9966 66.3734C83.076 65.4123 82.9592 64.4452 82.6534 63.5303C82.3475 62.6155 81.859 61.7719 81.2172 61.0505C80.5753 60.3292 79.7936 59.745 78.9191 59.3332L76.78 58.3259C75.119 57.5438 73.22 57.4283 71.476 58.0034C69.732 58.5784 68.2764 59.8 67.4105 61.4153L23.2152 143.856C22.4626 145.26 22.0689 146.827 22.0689 148.419V148.419C22.0689 150.986 23.0916 153.448 24.9119 155.263C26.7322 157.078 29.2011 158.098 31.7754 158.098H83.8058V180.636C83.8058 181.759 84.0277 182.872 84.4589 183.91C84.8901 184.948 85.5222 185.891 86.3189 186.686C87.1157 187.48 88.0616 188.111 89.1026 188.541C90.1436 188.971 91.2594 189.192 92.3862 189.192H92.3862C94.6618 189.192 96.8443 188.29 98.4534 186.686C100.063 185.081 100.967 182.905 100.967 180.636V158.098H113.105C114.067 158.098 115.019 157.909 115.908 157.542C116.796 157.175 117.604 156.637 118.284 155.959C118.964 155.281 119.504 154.475 119.872 153.589C120.24 152.703 120.429 151.753 120.429 150.794V150.794C120.429 149.835 120.24 148.885 119.872 147.999C119.504 147.113 118.964 146.308 118.284 145.63C117.604 144.951 116.796 144.413 115.908 144.046C115.019 143.679 114.067 143.49 113.105 143.49V143.49Z" stroke="#3F3D56" stroke-width="0.486109" stroke-miterlimit="10"/>
<path d="M340.799 143.49H328.66V107.848C328.66 105.955 327.906 104.139 326.564 102.801C325.221 101.462 323.401 100.71 321.502 100.71H318.658C317.718 100.71 316.787 100.895 315.919 101.254C315.05 101.612 314.261 102.138 313.596 102.801C312.932 103.464 312.404 104.251 312.045 105.117C311.685 105.983 311.5 106.911 311.5 107.848V143.49H277.262C276.558 143.49 275.866 143.309 275.252 142.963C274.639 142.618 274.126 142.12 273.762 141.519C273.399 140.917 273.197 140.232 273.177 139.53C273.158 138.828 273.32 138.133 273.649 137.512L309.886 69.1222C310.337 68.2696 310.611 67.3345 310.691 66.3734C310.77 65.4123 310.653 64.4452 310.347 63.5303C310.041 62.6155 309.553 61.7719 308.911 61.0505C308.269 60.3292 307.488 59.745 306.613 59.3332L304.474 58.3259C302.813 57.5438 300.914 57.4283 299.17 58.0034C297.426 58.5784 295.97 59.8 295.104 61.4153L250.909 143.856C250.157 145.26 249.763 146.827 249.763 148.419C249.763 150.986 250.785 153.448 252.606 155.263C254.426 157.078 256.895 158.098 259.469 158.098H311.5V180.636C311.5 182.905 312.404 185.081 314.013 186.686C315.622 188.29 317.804 189.192 320.08 189.192V189.192C322.356 189.192 324.538 188.29 326.147 186.686C327.756 185.081 328.66 182.905 328.66 180.636V158.098H340.799C341.76 158.098 342.713 157.909 343.602 157.542C344.49 157.175 345.298 156.637 345.978 155.959C346.658 155.281 347.198 154.475 347.566 153.589C347.934 152.703 348.123 151.753 348.123 150.794V150.794C348.123 148.857 347.352 146.999 345.978 145.63C344.604 144.26 342.741 143.49 340.799 143.49V143.49Z" stroke="#3F3D56" stroke-width="0.486109" stroke-miterlimit="10"/>
<path d="M184.468 53.1304C155.111 53.1304 134.032 71.9119 134.032 115.735C134.032 165.402 155.111 178.549 184.468 178.549C213.826 178.549 236.16 164.15 236.16 115.735C236.16 63.9819 213.826 53.1304 184.468 53.1304ZM184.661 162.063C164.328 162.063 153.704 150.168 153.704 115.767C153.704 85.4143 164.762 69.4077 185.096 69.4077C205.43 69.4077 216.488 79.9218 216.488 115.767C216.488 149.3 204.995 162.063 184.661 162.063V162.063Z" stroke="#3F3D56" stroke-width="0.486109" stroke-miterlimit="10"/>
<path d="M160.936 10.6109C163.37 10.6109 165.343 8.64348 165.343 6.21653C165.343 3.78958 163.37 1.82214 160.936 1.82214C158.502 1.82214 156.529 3.78958 156.529 6.21653C156.529 8.64348 158.502 10.6109 160.936 10.6109Z" fill="#2F2E41"/>
<path d="M171.685 31.9397C178.512 31.9397 184.046 24.7898 184.046 15.9699C184.046 7.14999 178.512 6.10352e-05 171.685 6.10352e-05C164.858 6.10352e-05 159.324 7.14999 159.324 15.9699C159.324 24.7898 164.858 31.9397 171.685 31.9397Z" fill="#2F2E41"/>
<path opacity="0.1" d="M171.685 27.1166C165.493 27.1166 160.364 21.2339 159.464 13.5583C159.371 14.3587 159.324 15.164 159.324 15.9698C159.324 24.7897 164.858 31.9397 171.685 31.9397C178.512 31.9397 184.046 24.7897 184.046 15.9698C184.046 15.164 183.999 14.3587 183.905 13.5583C183.006 21.2339 177.877 27.1166 171.685 27.1166Z" fill="black"/>
<path d="M196.838 62.7382C196.572 63.8259 195.428 64.6971 194.16 65.3057C191.495 66.5854 188.208 66.9672 185.019 67.0954C184.206 67.1447 183.39 67.1297 182.579 67.0504C181.007 66.8989 179.533 66.223 178.394 65.1323C178.313 65.0794 178.246 65.0069 178.201 64.9215C178.155 64.8361 178.132 64.7406 178.134 64.6438C178.135 64.5471 178.161 64.4523 178.209 64.3683C178.257 64.2843 178.326 64.2139 178.409 64.1636C180.107 62.3042 182.939 61.1641 185.793 60.3432C187.957 59.7207 191.73 58.1084 194.09 58.326C196.376 58.5368 197.173 61.3648 196.838 62.7382Z" fill="#3F3D56"/>
<path opacity="0.1" d="M196.838 62.7382C196.572 63.8259 195.428 64.6971 194.16 65.3057C191.495 66.5854 188.208 66.9672 185.019 67.0954C184.206 67.1447 183.39 67.1297 182.579 67.0504C181.007 66.8989 179.533 66.223 178.394 65.1323C178.313 65.0794 178.246 65.0069 178.201 64.9215C178.155 64.8361 178.132 64.7406 178.134 64.6438C178.135 64.5471 178.161 64.4523 178.209 64.3683C178.257 64.2843 178.326 64.2139 178.409 64.1636C180.107 62.3042 182.939 61.1641 185.793 60.3432C187.957 59.7207 191.73 58.1084 194.09 58.326C196.376 58.5368 197.173 61.3648 196.838 62.7382Z" fill="black"/>
<path d="M162.953 54.6085C162.139 56.1983 161.992 58.0452 162.543 59.7433C163.104 61.4285 164.154 62.9099 165.559 63.9999C169.007 66.7561 173.753 67.1353 178.172 67.0971C182.045 67.0635 185.913 66.7991 189.754 66.3055C191.041 66.1918 192.306 65.8989 193.512 65.4354C194.954 64.8132 196.222 63.6719 196.735 62.1908C197.249 60.7098 196.884 58.8962 195.665 57.9078C194.593 57.0393 193.115 56.9198 191.737 56.8373L183.851 56.3647C184.63 55.5784 185.667 55.1337 186.616 54.562C187.875 53.8037 188.711 52.5304 189.627 51.3825C191.037 49.7017 192.571 48.1286 194.217 46.6761C194.474 48.1443 195.405 49.35 196.501 50.363C197.598 51.376 198.861 52.1916 200.001 53.1561C202.76 55.4922 204.747 58.6629 207.649 60.8202C209.646 60.2971 211.512 59.3679 213.131 58.0911L212.004 56.0537C211.91 55.844 211.763 55.6619 211.578 55.5248C211.259 55.3289 210.847 55.4298 210.477 55.3744C209.486 55.2262 209.053 54.0855 208.664 53.1647C207.597 50.6367 205.553 48.6754 203.808 46.5554C202.519 44.9905 201.377 43.3119 200.393 41.5405C199.807 40.4841 199.27 39.384 198.474 38.4739C197.679 37.5637 196.564 36.8481 195.353 36.8455C194.283 36.8433 193.296 37.3849 192.376 37.9297C189.574 39.5893 186.878 41.4207 184.304 43.4133C182.957 44.4562 181.618 45.558 180.038 46.1975C179.373 46.4668 178.672 46.6507 178.033 46.9783C176.915 47.5521 176.067 48.5228 175.153 49.3845C171.895 52.458 167.435 54.4493 162.953 54.6085Z" fill="#3F3D56"/>
<path d="M179.443 32.7328C179.407 33.6723 179.206 34.5982 178.851 35.4691C178.671 35.9035 178.403 36.2962 178.064 36.6228C177.725 36.9493 177.322 37.2028 176.881 37.3673C176.254 37.5348 175.596 37.556 174.96 37.4294C174.405 37.3716 173.87 37.1899 173.395 36.8978C172.655 36.3909 172.287 35.4863 172.152 34.6009C172.018 33.7167 172.078 32.8132 171.992 31.9225C171.908 31.2031 171.771 30.4909 171.582 29.7918C171.524 29.5592 171.464 29.3277 171.406 29.0962C171.349 28.8647 171.294 28.6332 171.242 28.4017C171.195 28.1841 171.151 27.9654 171.113 27.7457C171.082 27.5603 171.054 27.3738 171.033 27.1862C171.015 26.6302 170.922 26.0791 170.757 25.5475C170.603 25.2027 170.41 24.8765 170.181 24.5753C170.083 24.436 169.989 24.2967 169.902 24.152C169.65 23.7759 169.533 23.3261 169.57 22.8755C169.58 22.8058 169.597 22.7372 169.62 22.6707C169.629 22.645 169.638 22.6193 169.649 22.5947C169.746 22.5685 169.835 22.5192 169.908 22.451C169.981 22.3828 170.036 22.2978 170.069 22.2034C170.106 22.0007 170.089 21.7918 170.019 21.5979C169.938 21.3269 169.829 21.0656 169.691 20.8187C169.601 20.6557 169.294 20.3621 169.292 20.1756C169.288 19.8004 170.023 19.4982 170.321 19.3503C171.23 18.8965 172.243 18.6916 173.257 18.7565C173.908 18.8004 174.613 18.9998 174.972 19.5432C175.294 20.033 175.251 20.6675 175.389 21.2367C175.403 21.3194 175.438 21.3971 175.491 21.4628C175.561 21.5265 175.649 21.567 175.743 21.5785C175.903 21.6101 176.066 21.6167 176.227 21.5979H176.228C176.271 21.5945 176.313 21.5884 176.355 21.5796C176.606 21.5334 176.844 21.4312 177.049 21.2806C177.183 21.2452 177.317 21.2163 177.453 21.1938C177.458 21.1932 177.463 21.1921 177.469 21.1906C178.007 22.8851 178.077 24.7018 178.518 26.4274C178.736 27.2859 179.049 28.1337 179.093 29.0168C179.096 29.0554 179.097 29.0951 179.098 29.1347C179.105 29.4188 179.082 29.7049 179.094 29.9879C179.098 30.1153 179.112 30.2422 179.137 30.3673C179.185 30.5686 179.245 30.7668 179.316 30.9611L179.32 30.9707C179.34 31.0329 179.359 31.0961 179.375 31.1594C179.387 31.2055 179.398 31.2505 179.407 31.2966L179.408 31.2998C179.487 31.7734 179.499 32.2559 179.443 32.7328Z" fill="#FBBEBE"/>
<path d="M171.9 21.6504C175.402 21.6504 178.241 18.8192 178.241 15.3267C178.241 11.8343 175.402 9.00311 171.9 9.00311C168.397 9.00311 165.558 11.8343 165.558 15.3267C165.558 18.8192 168.397 21.6504 171.9 21.6504Z" fill="#FBBEBE"/>
<path d="M212.162 49.7809C211.978 48.0556 211.363 46.404 210.373 44.9771C210.538 45.9524 210.702 46.9274 210.868 47.902C210.662 47.9613 210.444 47.9595 210.24 47.8968C210.035 47.8342 209.854 47.7134 209.718 47.5494C209.45 47.2169 209.246 46.8389 209.115 46.4337C208.394 44.6502 207.452 42.9639 206.31 41.4144C202.273 41.079 198.282 39.4102 194.732 37.4648C191.181 35.5206 187.857 33.1894 184.353 31.1627C183.746 30.7965 183.113 30.4741 182.459 30.198C181.363 29.7597 180.132 29.5324 179.093 29.0169C179.023 28.9826 178.953 28.9462 178.884 28.9086C178.649 28.7813 178.427 28.6324 178.22 28.4639C178.108 28.3732 178.002 28.2759 177.902 28.1723C177.383 27.5707 176.972 26.8848 176.686 26.1445C176.128 24.9141 175.93 23.4296 175.373 22.1992C175.629 21.9607 175.916 21.7584 176.227 21.5979H176.228C176.273 21.5743 176.319 21.5518 176.365 21.5304C176.585 21.4269 176.814 21.3433 177.049 21.2806C177.183 21.2453 177.317 21.2163 177.453 21.1938C177.458 21.1933 177.463 21.1922 177.469 21.1906C178.097 21.0886 178.74 21.1393 179.344 21.3385C180.228 21.6365 180.973 22.2313 181.715 22.794C182.922 23.6417 184.079 24.557 185.182 25.5357C185.795 26.1209 186.353 26.764 187.012 27.2956C187.56 27.717 188.137 28.0984 188.74 28.4371C192.305 30.5549 195.871 32.6724 199.437 34.7896C200.644 35.5066 201.852 36.2237 203.032 36.9825C204.825 38.1358 206.553 39.3855 208.28 40.6341C209.298 41.3694 210.316 42.105 211.333 42.841C211.667 43.0533 211.96 43.3233 212.198 43.6384C212.409 43.9961 212.54 44.395 212.582 44.8077C212.837 46.4753 212.693 48.1795 212.162 49.7809Z" fill="#FBBEBE"/>
<path d="M181.016 37.4884C180.588 39.4016 178.649 40.5581 177.635 42.2386C176.375 44.3244 176.889 46.7488 177.362 49.1378C176.498 49.8806 175.633 50.6233 174.769 51.3661C174.291 51.7744 173.814 52.1849 173.3 52.5462C172.551 53.0467 171.768 53.4951 170.957 53.888C170.192 54.2803 169.427 54.673 168.661 55.0659C167.95 55.4648 167.196 55.7834 166.414 56.0156C164.906 56.4014 163.304 56.1313 161.812 55.6844C161.636 55.6384 161.467 55.5695 161.309 55.4797C161.216 55.4243 161.135 55.3511 161.071 55.2642C160.924 55.0013 160.87 54.6964 160.919 54.3993C161.071 51.8956 161.684 49.4444 162.296 47.0114C162.623 45.5517 163.062 44.1195 163.611 42.7274C164.148 41.5345 164.766 40.3794 165.46 39.2698C166.226 37.8737 167.134 36.5595 168.169 35.348C168.673 34.8817 169.097 34.3365 169.424 33.7339C169.806 32.8657 169.659 31.87 169.736 30.9247C169.795 30.2145 169.984 29.521 170.294 28.8786V28.8776C170.46 28.5316 170.659 28.2027 170.889 27.8958C170.994 28.138 171.098 28.3799 171.202 28.6214C171.271 28.78 171.339 28.9383 171.406 29.0962C171.495 29.2999 171.582 29.5028 171.669 29.705C171.919 30.2859 172.169 30.8665 172.419 31.4467C172.689 32.1775 173.073 32.8609 173.558 33.4713C173.78 33.7839 174.079 34.0339 174.427 34.1967C174.774 34.3596 175.158 34.4298 175.541 34.4006C175.923 34.3713 176.292 34.2435 176.611 34.0298C176.929 33.816 177.187 33.5235 177.358 33.1809C177.719 32.5413 177.981 31.8507 178.134 31.1327C178.346 30.2584 178.375 29.3499 178.22 28.4639C177.961 26.7576 177.233 25.0148 176.704 23.4296C176.489 22.9011 176.365 22.3402 176.336 21.7705C176.337 21.7065 176.343 21.6426 176.355 21.5797C176.358 21.5636 176.362 21.5465 176.365 21.5304C176.585 21.4269 176.814 21.3434 177.049 21.2807C177.183 21.2453 177.317 21.2164 177.452 21.1938C177.918 23.7061 178.384 26.2184 178.851 28.7307C178.862 28.7897 178.873 28.8486 178.884 28.9087C178.951 29.2688 179.019 29.6289 179.094 29.988C179.162 30.3138 179.235 30.6386 179.316 30.9612L179.32 30.9708C179.347 31.0801 179.376 31.1884 179.407 31.2966L179.408 31.2999C179.49 31.5957 179.583 31.8893 179.687 32.1787C180.319 33.9225 181.421 35.6782 181.016 37.4884Z" fill="#35BCAB"/>
<path d="M206.752 64.3745C206.732 64.743 206.804 65.1108 206.961 65.4451C207.358 66.1684 208.31 66.3329 209.134 66.4005C213.948 66.7951 218.791 66.6479 223.572 65.9619C223.831 65.9442 224.083 65.8663 224.306 65.7345C224.986 65.2593 224.567 64.1012 223.825 63.7304C223.083 63.3597 222.202 63.449 221.388 63.2885C220.579 63.0854 219.808 62.7522 219.106 62.302C217.455 61.3558 215.827 60.3694 214.224 59.3426C213.27 58.7314 212.143 58.079 211.068 58.4414C208.156 59.4238 206.733 61.242 206.752 64.3745Z" fill="#3F3D56"/>
<path d="M171.267 28.2677V28.2688C171.259 28.3138 171.252 28.3577 171.242 28.4017C171.23 28.4746 171.216 28.5485 171.202 28.6214C171.069 29.302 170.906 29.9794 170.717 30.6525C170.201 32.512 169.51 34.3416 168.825 36.1444C166.984 40.9782 165.144 45.8124 163.303 50.6469C162.839 51.8645 162.375 53.0831 161.848 54.276C161.671 54.6736 161.49 55.0745 161.309 55.4796C160.662 56.9298 160.041 58.4271 159.835 59.9705C159.642 60.9862 159.62 62.0268 159.769 63.0498C159.975 64.0615 160.591 65.0497 161.555 65.4238C162.026 65.6071 162.7 65.8525 162.571 66.3402C162.501 66.6081 162.196 66.7389 161.922 66.7839C161.56 66.8414 161.19 66.8188 160.838 66.7177C160.485 66.6166 160.16 66.4394 159.884 66.1987C159.369 65.7432 158.974 65.0347 158.289 64.9586C157.815 64.9072 157.378 65.1902 156.944 65.3884C155.173 66.1955 153.109 65.6307 151.249 65.0573C151.395 64.3059 152.151 63.8107 152.903 63.6607C153.654 63.5096 154.431 63.6168 155.198 63.5964C155.443 63.6094 155.687 63.547 155.895 63.4174C156.082 63.2462 156.213 63.0229 156.271 62.7765C156.765 61.3179 157.132 59.8197 157.369 58.2985C157.616 56.709 157.719 55.0949 158.072 53.5247C158.346 52.2996 158.769 51.1131 159.133 49.9106C159.835 47.4346 160.412 44.9248 160.861 42.3908C161.088 41.3381 161.251 40.2725 161.348 39.2001C161.409 38.3105 161.38 37.4166 161.466 36.5302C161.61 35.377 161.852 34.238 162.187 33.1251C162.516 31.9108 162.845 30.6971 163.173 29.4842C163.66 27.6889 164.182 25.824 165.416 24.4285C165.845 23.9372 166.37 23.539 166.959 23.2584C167.548 22.9778 168.189 22.8208 168.842 22.7972C169.086 22.7969 169.33 22.8232 169.569 22.8755C169.609 22.8851 169.649 22.8948 169.689 22.9055C169.949 22.9734 170.199 23.0765 170.431 23.212C170.812 22.9709 171.005 23.0555 171.258 23.4275C171.479 23.8211 171.584 24.2694 171.559 24.7201C171.58 25.9094 171.482 27.0978 171.267 28.2677Z" fill="#FBBEBE"/>
<path d="M171.685 29.6889L171.669 29.705L171.582 29.7918L170.717 30.6525L170.294 28.8787L168.842 22.7973C169.087 22.797 169.331 22.8232 169.57 22.8755C169.58 22.8058 169.597 22.7373 169.62 22.6708L169.689 22.9055L170.181 24.5754L171.113 27.7458L171.267 28.2677V28.2688L171.685 29.6889Z" fill="#35BCAB"/>
<path d="M177.169 10.2877C177.168 10.8508 177.056 11.4083 176.839 11.9282C176.622 12.4481 176.305 12.9203 175.905 13.3178C175.76 13.4625 175.604 13.5964 175.44 13.7185C174.698 14.276 173.795 14.5778 172.866 14.5782H167.709C166.57 14.5765 165.478 14.1239 164.673 13.3199C163.867 12.5158 163.415 11.426 163.415 10.2898C163.415 9.15357 163.867 8.06379 164.673 7.25974C165.478 6.45569 166.57 6.0031 167.709 6.00134H172.866C174.005 6.0043 175.098 6.45672 175.904 7.25981C176.71 8.0629 177.165 9.15142 177.169 10.2877Z" fill="#2F2E41"/>
<path d="M182.003 10.6109C184.437 10.6109 186.41 8.64348 186.41 6.21653C186.41 3.78958 184.437 1.82214 182.003 1.82214C179.57 1.82214 177.597 3.78958 177.597 6.21653C177.597 8.64348 179.57 10.6109 182.003 10.6109Z" fill="#2F2E41"/>
<path opacity="0.1" d="M181.896 1.82214C181.842 1.82214 181.788 1.82428 181.735 1.82621C182.875 1.86754 183.954 2.34818 184.746 3.167C185.538 3.98583 185.98 5.07901 185.98 6.21653C185.98 7.35405 185.538 8.44722 184.746 9.26605C183.954 10.0849 182.875 10.5655 181.735 10.6068C181.788 10.6088 181.842 10.6109 181.896 10.6109C183.065 10.6109 184.186 10.1479 185.012 9.32382C185.838 8.49971 186.303 7.38199 186.303 6.21653C186.303 5.05107 185.838 3.93334 185.012 3.10923C184.186 2.28512 183.065 1.82214 181.896 1.82214Z" fill="black"/>
<path opacity="0.1" d="M160.936 1.82214C160.99 1.82214 161.044 1.82428 161.098 1.82621C159.958 1.86754 158.878 2.34818 158.086 3.167C157.294 3.98583 156.852 5.07901 156.852 6.21653C156.852 7.35405 157.294 8.44722 158.086 9.26605C158.878 10.0849 159.958 10.5655 161.098 10.6068C161.044 10.6088 160.99 10.6109 160.936 10.6109C159.768 10.6099 158.648 10.1464 157.823 9.32245C156.997 8.49846 156.533 7.38132 156.533 6.21653C156.533 5.05174 156.997 3.93459 157.823 3.1106C158.648 2.2866 159.768 1.82317 160.936 1.82214Z" fill="black"/>
<path opacity="0.1" d="M175.44 13.7184C174.698 14.276 173.795 14.5778 172.866 14.5782H167.709C166.78 14.5778 165.877 14.276 165.135 13.7184H175.44Z" fill="black"/>
<path d="M208.74 45.5598C208.74 45.5598 209.851 48.7519 210.867 47.902L210.057 43.7295L208.74 45.5598Z" fill="#FBBEBE"/>
<path d="M343.933 142.906C344.968 143.282 346.076 143.412 347.17 143.287C348.264 143.162 349.314 142.786 350.237 142.188C351.16 141.589 351.931 140.785 352.489 139.839C353.048 138.893 353.378 137.83 353.454 136.735C353.531 135.64 353.351 134.542 352.929 133.528C352.507 132.514 351.855 131.611 351.023 130.891C350.192 130.171 349.204 129.654 348.138 129.38C347.072 129.105 345.957 129.082 344.88 129.311L345.058 132.959L343.327 129.832C341.627 130.628 340.315 132.065 339.677 133.825C339.451 134.442 339.313 135.088 339.268 135.743C339.159 137.28 339.555 138.811 340.397 140.104C341.239 141.397 342.48 142.381 343.933 142.906Z" fill="#35BCAB"/>
<path d="M352.499 185.226C351.888 182.123 354.536 179.372 357.152 177.584C359.768 175.796 362.824 174.039 363.717 171.004C364.999 166.643 361.179 162.649 358.205 159.205C355.999 156.648 354.104 153.841 352.561 150.84C351.942 149.637 351.373 148.379 351.21 147.036C350.976 145.103 351.599 143.18 352.226 141.336C354.317 135.193 356.552 129.101 358.931 123.061" stroke="#3F3D56" stroke-width="0.486109" stroke-miterlimit="10"/>
<path d="M344.226 141.967C345.261 142.342 346.369 142.473 347.463 142.348C348.556 142.223 349.606 141.847 350.529 141.248C351.453 140.65 352.224 139.846 352.782 138.9C353.34 137.954 353.671 136.891 353.747 135.796C353.823 134.7 353.643 133.602 353.222 132.588C352.8 131.574 352.147 130.672 351.316 129.952C350.485 129.232 349.497 128.715 348.431 128.44C347.365 128.166 346.249 128.142 345.173 128.371L345.351 132.02L343.619 128.893C341.92 129.689 340.608 131.125 339.97 132.886C339.743 133.503 339.606 134.148 339.561 134.804C339.452 136.341 339.848 137.872 340.69 139.165C341.532 140.457 342.773 141.441 344.226 141.967V141.967Z" stroke="#3F3D56" stroke-width="0.486109" stroke-miterlimit="10"/>
<path d="M351.63 121.801C352.037 120.684 352.718 119.687 353.612 118.901C354.507 118.115 355.585 117.567 356.747 117.306L357.333 120.775L358.418 117.132C359.925 117.154 361.385 117.653 362.589 118.557C363.793 119.461 364.677 120.723 365.115 122.161C365.552 123.599 365.52 125.139 365.023 126.557C364.526 127.976 363.59 129.2 362.349 130.053C361.109 130.907 359.629 131.345 358.122 131.305C356.616 131.265 355.161 130.748 353.968 129.83C352.776 128.911 351.906 127.639 351.486 126.196C351.066 124.753 351.116 123.214 351.63 121.801H351.63Z" fill="#35BCAB"/>
<path d="M352.021 120.549C352.427 119.431 353.108 118.434 354.003 117.648C354.897 116.863 355.975 116.314 357.138 116.053L357.723 119.522L358.808 115.879C360.315 115.901 361.776 116.401 362.98 117.305C364.183 118.209 365.068 119.471 365.505 120.909C365.943 122.347 365.911 123.886 365.414 125.305C364.916 126.723 363.98 127.948 362.74 128.801C361.499 129.654 360.019 130.092 358.513 130.052C357.006 130.012 355.552 129.496 354.359 128.577C353.166 127.659 352.297 126.386 351.876 124.943C351.456 123.5 351.507 121.961 352.021 120.549H352.021Z" stroke="#3F3D56" stroke-width="0.486109" stroke-miterlimit="10"/>
<path d="M356.957 159.275C358.598 159.868 360.401 159.839 362.021 159.193C363.642 158.546 364.968 157.327 365.745 155.769C366.523 154.21 366.698 152.421 366.238 150.742C365.777 149.063 364.713 147.611 363.249 146.664L362.415 149.464L361.823 145.954C361.818 145.951 361.811 145.949 361.805 145.947C360.928 145.629 359.996 145.487 359.063 145.528C358.13 145.569 357.214 145.793 356.368 146.187C355.522 146.582 354.762 147.138 354.131 147.825C353.501 148.513 353.013 149.317 352.694 150.192C352.376 151.068 352.233 151.997 352.275 152.927C352.317 153.858 352.542 154.771 352.938 155.614C353.334 156.458 353.893 157.215 354.582 157.843C355.272 158.471 356.079 158.958 356.957 159.275H356.957Z" fill="#35BCAB"/>
<path d="M357.295 158.006C358.936 158.6 360.739 158.57 362.36 157.924C363.98 157.277 365.306 156.059 366.083 154.5C366.861 152.942 367.036 151.152 366.576 149.473C366.115 147.794 365.051 146.343 363.587 145.396L362.753 148.195L362.162 144.686C362.156 144.683 362.15 144.68 362.143 144.679C361.266 144.361 360.334 144.218 359.401 144.259C358.468 144.3 357.552 144.525 356.706 144.919C355.86 145.313 355.1 145.87 354.47 146.557C353.839 147.244 353.351 148.048 353.033 148.924C352.714 149.799 352.572 150.729 352.614 151.659C352.655 152.589 352.881 153.502 353.277 154.346C353.672 155.189 354.231 155.946 354.921 156.575C355.61 157.203 356.417 157.689 357.295 158.006H357.295Z" stroke="#3F3D56" stroke-width="0.486109" stroke-miterlimit="10"/>
<path d="M349.556 171.047C349.838 172.648 350.664 174.104 351.894 175.17C353.125 176.236 354.686 176.848 356.315 176.902C357.944 176.957 359.543 176.452 360.842 175.471C362.142 174.489 363.064 173.093 363.454 171.514C363.843 169.936 363.677 168.272 362.982 166.801C362.287 165.331 361.106 164.143 359.638 163.438C358.169 162.732 356.502 162.552 354.916 162.927C353.329 163.301 351.921 164.209 350.926 165.496L354.093 170.25L349.765 167.727C349.43 168.801 349.358 169.94 349.556 171.047Z" fill="#35BCAB"/>
<path d="M349.848 170.108C350.131 171.709 350.956 173.165 352.187 174.231C353.418 175.297 354.978 175.908 356.608 175.963C358.237 176.018 359.835 175.512 361.135 174.531C362.435 173.55 363.357 172.153 363.746 170.575C364.136 168.996 363.969 167.332 363.275 165.862C362.58 164.391 361.399 163.204 359.93 162.498C358.462 161.793 356.795 161.613 355.208 161.987C353.622 162.362 352.213 163.269 351.218 164.557L354.386 169.311L350.058 166.788C349.722 167.862 349.651 169.001 349.848 170.108V170.108Z" stroke="#3F3D56" stroke-width="0.486109" stroke-miterlimit="10"/>
<path d="M3.07684 160.176C3.7567 160.422 4.48468 160.508 5.20339 160.426C5.9221 160.344 6.6119 160.096 7.21842 159.703C7.82494 159.31 8.3316 158.782 8.69847 158.16C9.06533 157.539 9.28237 156.84 9.33248 156.121C9.38259 155.401 9.2644 154.68 8.98723 154.014C8.71005 153.347 8.28147 152.754 7.73526 152.281C7.18905 151.808 6.54014 151.468 5.83968 151.288C5.13923 151.108 4.40637 151.092 3.69887 151.243L3.81579 153.64L2.67834 151.586C1.562 152.109 0.699585 153.052 0.280607 154.209C0.13181 154.614 0.0413529 155.038 0.0119335 155.469C-0.0598626 156.479 0.200499 157.485 0.753563 158.334C1.30663 159.184 2.12225 159.83 3.07684 160.176Z" fill="#35BCAB"/>
<path d="M8.70477 187.98C8.30325 185.941 10.0431 184.134 11.7617 182.959C13.4803 181.784 15.4884 180.63 16.0747 178.636C16.9175 175.771 14.4072 173.147 12.4534 170.884C11.0039 169.204 9.75907 167.359 8.74503 165.388C8.30417 164.613 8.0039 163.767 7.85803 162.889C7.70398 161.619 8.1132 160.355 8.52547 159.143C9.89886 155.107 11.3673 151.105 12.9307 147.137" stroke="#3F3D56" stroke-width="0.486109" stroke-miterlimit="10"/>
<path d="M3.26913 159.558C3.94899 159.805 4.67697 159.89 5.39568 159.809C6.11439 159.727 6.80419 159.479 7.41071 159.086C8.01723 158.693 8.52389 158.165 8.89075 157.543C9.25761 156.921 9.47465 156.223 9.52476 155.504C9.57487 154.784 9.45668 154.063 9.17951 153.396C8.90234 152.73 8.47375 152.137 7.92754 151.664C7.38134 151.191 6.73243 150.851 6.03197 150.671C5.33152 150.491 4.59866 150.475 3.89117 150.626L4.00808 153.023L2.87063 150.968C1.75429 151.492 0.891876 152.435 0.472898 153.592C0.324103 153.997 0.233647 154.421 0.204226 154.852C0.132425 155.862 0.392785 156.868 0.945851 157.717C1.49892 158.566 2.31454 159.213 3.26913 159.558V159.558Z" stroke="#3F3D56" stroke-width="0.486109" stroke-miterlimit="10"/>
<path d="M8.13406 146.309C8.40086 145.575 8.84866 144.92 9.43619 144.403C10.0237 143.887 10.7321 143.527 11.496 143.355L11.8806 145.635L12.5936 143.241C13.5836 143.256 14.5433 143.584 15.3342 144.178C16.125 144.771 16.7061 145.601 16.9936 146.545C17.281 147.49 17.2599 148.502 16.9333 149.434C16.6068 150.366 15.9916 151.17 15.1766 151.731C14.3617 152.291 13.3891 152.579 12.3994 152.553C11.4096 152.527 10.4539 152.187 9.67022 151.584C8.88652 150.98 8.31538 150.144 8.03926 149.196C7.76315 148.248 7.79634 147.237 8.13406 146.309Z" fill="#35BCAB"/>
<path d="M8.39038 145.486C8.65718 144.752 9.10498 144.097 9.69251 143.581C10.28 143.064 10.9884 142.704 11.7523 142.533L12.1369 144.812L12.8499 142.418C13.8399 142.433 14.7996 142.761 15.5905 143.355C16.3814 143.949 16.9625 144.778 17.2499 145.723C17.5373 146.667 17.5162 147.679 17.1897 148.611C16.8631 149.543 16.2479 150.347 15.4329 150.908C14.618 151.469 13.6454 151.756 12.6557 151.73C11.666 151.704 10.7102 151.364 9.92653 150.761C9.14283 150.158 8.57169 149.321 8.29558 148.373C8.01947 147.425 8.05266 146.414 8.39038 145.486V145.486Z" stroke="#3F3D56" stroke-width="0.486109" stroke-miterlimit="10"/>
<path d="M11.6335 170.93C12.7117 171.32 13.8961 171.301 14.961 170.876C16.0258 170.451 16.8967 169.65 17.4076 168.626C17.9185 167.602 18.0336 166.427 17.7311 165.324C17.4286 164.22 16.7296 163.267 15.7673 162.644L15.2194 164.484L14.8309 162.178C14.8271 162.176 14.8231 162.175 14.819 162.173C14.2423 161.964 13.6299 161.871 13.0169 161.898C12.4038 161.925 11.8021 162.072 11.2461 162.331C10.6901 162.59 10.1907 162.955 9.77654 163.407C9.36235 163.858 9.04145 164.387 8.83218 164.962C8.62291 165.537 8.52938 166.148 8.55692 166.759C8.58446 167.371 8.73254 167.971 8.9927 168.525C9.25285 169.079 9.61998 169.577 10.0731 169.989C10.5262 170.402 11.0565 170.722 11.6335 170.93Z" fill="#35BCAB"/>
<path d="M11.8559 170.096C12.9341 170.486 14.1185 170.467 15.1833 170.042C16.2482 169.617 17.1191 168.817 17.63 167.793C18.1408 166.769 18.256 165.593 17.9535 164.49C17.651 163.387 16.9519 162.433 15.9896 161.811L15.4418 163.65L15.0533 161.344C15.0494 161.343 15.0455 161.341 15.0414 161.34C14.4648 161.131 13.8526 161.038 13.2399 161.065C12.6272 161.093 12.0258 161.24 11.4702 161.499C10.3481 162.022 9.48038 162.969 9.05795 164.13C8.63553 165.291 8.69299 166.572 9.2177 167.691C9.74241 168.81 10.6914 169.675 11.8559 170.096V170.096Z" stroke="#3F3D56" stroke-width="0.486109" stroke-miterlimit="10"/>
<path d="M6.77088 178.665C6.95627 179.717 7.49872 180.673 8.30728 181.373C9.11583 182.074 10.1413 182.476 11.2117 182.512C12.2822 182.547 13.3324 182.215 14.1864 181.571C15.0404 180.926 15.6461 180.008 15.902 178.971C16.158 177.934 16.0485 176.841 15.592 175.875C15.1356 174.909 14.3598 174.129 13.3949 173.665C12.43 173.202 11.3346 173.083 10.2924 173.329C9.25028 173.575 8.32471 174.172 7.67097 175.018L9.75203 178.141L6.90852 176.483C6.68804 177.189 6.64084 177.937 6.77088 178.665Z" fill="#35BCAB"/>
<path d="M6.9633 178.048C7.14868 179.099 7.69114 180.056 8.49969 180.756C9.30825 181.456 10.3337 181.858 11.4041 181.894C12.4746 181.93 13.5248 181.598 14.3788 180.954C15.2328 180.309 15.8385 179.391 16.0945 178.354C16.3504 177.317 16.2409 176.224 15.7845 175.258C15.328 174.292 14.5522 173.511 13.5873 173.048C12.6224 172.584 11.527 172.466 10.4849 172.712C9.44269 172.958 8.51712 173.554 7.86338 174.4L9.94445 177.524L7.10093 175.866C6.88045 176.572 6.83325 177.32 6.9633 178.048V178.048Z" stroke="#3F3D56" stroke-width="0.486109" stroke-miterlimit="10"/>
</g>
<defs>
<clipPath id="clip0">
<rect width="367" height="199" fill="white"/>
</clipPath>
</defs>
</svg>
