<svg width="146" height="189" viewBox="0 0 146 189" fill="none" xmlns="http://www.w3.org/2000/svg">
<g clip-path="url(#clip0)">
<path d="M168.667 162.75C168.667 174.3 159.467 183.75 148.222 183.75H35.7777C24.5332 183.75 15.3333 174.3 15.3333 162.75V73.5001C15.3333 61.9501 24.5332 52.5001 35.7777 52.5001H148.222C159.467 52.5001 168.667 61.9501 168.667 73.5001V162.75Z" fill="#4AD3C2"/>
<path d="M184 57.7499C184 69.2999 174.8 78.7499 163.556 78.7499H20.4444C9.19997 78.7499 -3.05176e-05 69.2999 -3.05176e-05 57.7499C-3.05176e-05 46.1999 9.19997 36.7499 20.4444 36.7499H163.556C174.8 36.7499 184 46.1999 184 57.7499Z" fill="#4AD3C2"/>
<path d="M15.3333 78.7501H168.667V89.2501H15.3333V78.7501Z" fill="#36AA9C"/>
<path d="M97.1112 15.7498H86.8889C82.8223 15.7498 78.9222 17.4092 76.0466 20.3629C73.1711 23.3166 71.5556 27.3227 71.5556 31.4998V183.75H112.444V31.4998C112.444 27.3227 110.829 23.3166 107.953 20.3629C105.078 17.4092 101.178 15.7498 97.1112 15.7498Z" fill="#36AA9C"/>
<path d="M81.7777 36.7498C87.3999 36.7498 88.233 34.0408 83.6228 30.7281L49.2659 6.02157C48.2118 5.23315 47.0061 4.68462 45.7293 4.41254C44.4525 4.14046 43.1339 4.15108 41.8614 4.44369C40.5889 4.7363 39.3917 5.30419 38.3497 6.10948C37.3078 6.91478 36.4449 7.93898 35.8186 9.11382L25.5146 27.6358C22.7239 32.6496 25.0444 36.7498 30.6666 36.7498H81.7777ZM102.222 36.7498C96.5999 36.7498 95.7668 34.0408 100.377 30.7281L134.739 6.02157C135.793 5.23399 136.999 4.68616 138.276 4.41455C139.552 4.14294 140.871 4.15377 142.143 4.44632C143.415 4.73888 144.612 5.30645 145.654 6.11125C146.696 6.91605 147.559 7.93962 148.186 9.11382L158.49 27.6306C161.276 32.6496 158.955 36.7498 153.333 36.7498H102.222Z" fill="#36AA9C"/>
</g>
<defs>
<clipPath id="clip0">
<rect width="184" height="189" fill="white"/>
</clipPath>
</defs>
</svg>
