<?xml version="1.0" standalone="no"?>
<!DOCTYPE svg PUBLIC "-//W3C//DTD SVG 1.1//EN" "http://www.w3.org/Graphics/SVG/1.1/DTD/svg11.dtd" >
<svg xmlns="http://www.w3.org/2000/svg">
<metadata>Generated by IcoMoon</metadata>
<defs>
<font id="icomoon" horiz-adv-x="1024">
<font-face units-per-em="1024" ascent="960" descent="-64" />
<missing-glyph horiz-adv-x="1024" />
<glyph unicode="&#x20;" horiz-adv-x="512" d="" />
<glyph unicode="&#xe900;" glyph-name="arrow-down" d="M231.219 607.675c22.323 22.835 53.402 24.627 80.691 0l200.090-191.846 200.090 191.846c27.29 24.627 58.419 22.835 80.589 0 22.323-22.784 20.89-61.286 0-82.688-20.787-21.402-240.384-230.502-240.384-230.502-11.11-11.418-25.702-17.152-40.294-17.152s-29.184 5.734-40.397 17.152c0 0-219.494 209.101-240.384 230.502-20.941 21.402-22.323 59.904 0 82.688z" />
<glyph unicode="&#xe901;" glyph-name="arrow-left" d="M637.542 762.914c22.835-22.323 24.627-53.402 0-80.691l-191.846-200.090 191.846-200.090c24.627-27.29 22.835-58.419 0-80.589-22.784-22.323-61.286-20.89-82.688 0-21.402 20.787-230.502 240.384-230.502 240.384-11.418 11.11-17.152 25.702-17.152 40.294s5.734 29.184 17.152 40.397c0 0 209.101 219.494 230.502 240.384 21.402 20.941 59.904 22.323 82.688 0z" />
<glyph unicode="&#xe902;" glyph-name="arrow-right" d="M469.146 762.914c21.402-20.89 230.502-240.384 230.502-240.384 11.418-11.213 17.152-25.805 17.152-40.397s-5.734-29.184-17.152-40.294c0 0-209.101-219.597-230.502-240.384-21.402-20.89-59.904-22.323-82.688 0-22.835 22.221-24.627 53.299 0 80.589l191.846 200.090-191.846 200.090c-24.627 27.29-22.835 58.419 0 80.691 22.784 22.323 61.286 20.941 82.688 0z" />
<glyph unicode="&#xe903;" glyph-name="arrow-down2" d="M687.002 591.752c13.875 13.722 36.301 13.722 50.074 0 13.824-13.722 13.926-35.891 0-49.613l-200.090-196.096c-13.824-13.722-36.198-13.722-50.125 0l-200.090 196.096c-13.824 13.67-13.824 35.891 0 49.613 13.875 13.722 36.301 13.722 50.074 0l175.155-160.819 175.002 160.819z" />
<glyph unicode="&#xe904;" glyph-name="arrow-left2" d="M621.619 307.131c13.722-13.875 13.722-36.301 0-50.074-13.722-13.824-35.891-13.926-49.613 0l-196.096 200.090c-13.722 13.824-13.722 36.198 0 50.125l196.096 200.090c13.67 13.824 35.891 13.824 49.613 0 13.722-13.875 13.722-36.301 0-50.074l-160.819-175.155 160.819-175.002z" />
<glyph unicode="&#xe905;" glyph-name="arrow-right2" d="M563.2 482.133l-160.819 175.104c-13.722 13.824-13.722 36.198 0 50.074 13.722 13.824 35.891 13.824 49.613 0l196.096-200.090c13.722-13.875 13.722-36.301 0-50.125l-196.096-200.090c-13.67-13.926-35.891-13.824-49.613 0-13.722 13.773-13.722 36.198 0 50.074l160.819 175.053z" />
<glyph unicode="&#xe906;" glyph-name="arrow-up2" d="M336.998 372.514c-13.875-13.722-36.301-13.722-50.074 0s-13.926 35.891 0 49.613l200.090 196.096c13.824 13.722 36.198 13.722 50.125 0l200.090-196.096c13.824-13.67 13.824-35.891 0-49.613-13.875-13.722-36.301-13.722-50.125 0l-175.104 160.819-175.002-160.819z" />
<glyph unicode="&#xe907;" glyph-name="arrow-down3" d="M891.802 681.352c13.926 13.722 36.301 13.722 50.125 0s13.875-35.891 0-49.613l-404.89-400.896c-13.824-13.722-36.198-13.722-50.125 0l-404.89 400.896c-13.824 13.722-13.824 35.891 0 49.613 13.875 13.722 36.301 13.722 50.125 0l379.853-365.619 379.802 365.619z" />
<glyph unicode="&#xe908;" glyph-name="arrow-left3" d="M711.219 102.331c13.722-13.926 13.722-36.301 0-50.125s-35.891-13.875-49.613 0l-400.896 404.89c-13.722 13.824-13.722 36.198 0 50.125l400.896 404.89c13.722 13.824 35.891 13.824 49.613 0 13.722-13.875 13.722-36.301 0-50.125l-365.619-379.853 365.619-379.802z" />
<glyph unicode="&#xe909;" glyph-name="arrow-right3" d="M678.4 482.133l-365.619 379.904c-13.722 13.824-13.722 36.198 0 50.125 13.722 13.824 35.891 13.824 49.613 0l400.896-404.89c13.722-13.875 13.722-36.301 0-50.125l-400.896-404.89c-13.722-13.875-35.891-13.824-49.613 0-13.722 13.773-13.722 36.198 0 50.125l365.619 379.75z" />
<glyph unicode="&#xe90a;" glyph-name="arrow-up3" d="M132.198 282.914c-13.926-13.722-36.301-13.722-50.125 0s-13.875 35.891 0 49.613l404.89 400.896c13.824 13.722 36.198 13.722 50.125 0l404.89-400.896c13.824-13.722 13.824-35.891 0-49.613-13.875-13.722-36.301-13.722-50.074 0l-379.904 365.619-379.802-365.619z" />
<glyph unicode="&#xe90b;" glyph-name="arrow-up" d="M792.781 356.591c-22.323-22.835-53.402-24.627-80.691 0l-200.090 191.846-200.090-191.846c-27.29-24.627-58.419-22.835-80.589 0-22.323 22.784-20.89 61.286 0 82.688 20.787 21.402 240.384 230.502 240.384 230.502 11.11 11.418 25.702 17.152 40.294 17.152s29.184-5.734 40.397-17.152c0 0 219.494-209.101 240.384-230.502 20.941-21.402 22.323-59.904 0-82.688z" />
<glyph unicode="&#xe90c;" glyph-name="close" d="M936 786.634l-338.634-338.634 338.634-338.634-85.366-85.366-338.634 338.634-338.634-338.634-85.366 85.366 338.634 338.634-338.634 338.634 85.366 85.366 338.634-338.634 338.634 338.634z" />
<glyph unicode="&#xe90d;" glyph-name="heart-o" d="M950.857 631.619q0 46.286-12.286 81.714t-31.429 56.286-46.571 34-53.714 17.714-56 4.571-64-14.571-63.143-36.571-49.429-41.143-34.286-35.143q-10.286-12.571-28-12.571t-28 12.571q-13.714 16-34.286 35.143t-49.429 41.143-63.143 36.571-64 14.571-56-4.571-53.714-17.714-46.571-34-31.429-56.286-12.286-81.714q0-96 106.857-202.857l332-320 331.429 319.429q107.429 107.429 107.429 203.429zM1024 631.619q0-126.286-130.857-257.143l-356-342.857q-10.286-10.286-25.143-10.286t-25.143 10.286l-356.571 344q-5.714 4.571-15.714 14.857t-31.714 37.429-38.857 55.714-30.571 69.143-13.429 78.857q0 125.714 72.571 196.571t200.571 70.857q35.429 0 72.286-12.286t68.571-33.143 54.571-39.143 43.429-38.857q20.571 20.571 43.429 38.857t54.571 39.143 68.571 33.143 72.286 12.286q128 0 200.571-70.857t72.571-196.571z" />
<glyph unicode="&#xe90e;" glyph-name="heart" d="M512 21.333q-14.857 0-25.143 10.286l-356.571 344q-5.714 4.571-15.714 14.857t-31.714 37.429-38.857 55.714-30.571 69.143-13.429 78.857q0 125.714 72.571 196.571t200.571 70.857q35.429 0 72.286-12.286t68.571-33.143 54.571-39.143 43.429-38.857q20.571 20.571 43.429 38.857t54.571 39.143 68.571 33.143 72.286 12.286q128 0 200.571-70.857t72.571-196.571q0-126.286-130.857-257.143l-356-342.857q-10.286-10.286-25.143-10.286z" />
<glyph unicode="&#xe90f;" glyph-name="phone" horiz-adv-x="1088" d="M738.129 386.131c-55.465-55.465-55.465-110.931-110.931-110.931s-110.931 55.465-166.396 110.931-110.931 110.931-110.931 166.396 55.465 55.465 110.931 110.931-110.931 221.862-166.396 221.862-166.396-166.396-166.396-166.396c0-110.931 113.965-335.826 221.862-443.723s332.793-221.862 443.723-221.862c0 0 166.396 110.931 166.396 166.396s-166.396 221.862-221.862 166.396z" />
<glyph unicode="&#xe910;" glyph-name="shopping-bag" horiz-adv-x="1108" d="M1092.332 662.543c-6.222 7.684-15.004 12.44-24.516 12.44h-278.468l-14.272 194.672c-2.196 31.47-28.542 55.986-60.010 55.986h-345.431c-31.47 0-57.815-24.516-60.010-55.986l-14.272-194.672h-250.292c-12.076 0-22.688-5.124-29.64-13.538-6.586-8.050-8.782-18.662-6.586-28.908l137.222-592.796c3.658-15.734 17.564-26.712 33.666-26.712h747.947c16.102 0 30.006 10.978 33.666 26.712l137.222 592.796c3.294 10.247 0.732 21.59-6.222 30.006zM369.634 674.985l11.345 166.13c0.367 6.586 6.222 11.71 12.808 11.71h298.227c6.586 0 12.44-5.124 12.808-11.71l11.345-166.13h-346.529z" />
<glyph unicode="&#xe911;" glyph-name="menu" horiz-adv-x="768" d="M0 789.333v-128h768v128h-768zM0 405.333h768v128h-768v-128zM0 149.333h768v128h-768v-128z" />
<glyph unicode="&#xe912;" glyph-name="gift" horiz-adv-x="1092" d="M991.363 731.602h-205.506c7.415 7.415 13.752 15.842 18.504 25.347 16.92 32.19 16.92 70.783-0.506 102.467l-22.179 40.682c-19.010 34.853-55.447 56.525-95.117 56.525-33.269 0-64.446-14.764-85.041-41.189l-54.941-69.705-2.662 3.675c-0.506 0.506-1.078 1.078-1.584 1.584l-50.695 64.446c-20.595 26.425-51.774 41.189-85.041 41.189-39.605 0-76.043-21.672-95.117-56.525l-22.179-40.682c-17.426-32.19-17.933-70.278-0.506-102.467 4.752-9.505 11.089-17.933 18.504-25.347h-205.506c-15.336 0-27.438-12.166-27.438-27.438v-156.903c0-15.336 12.166-27.438 27.438-27.438h22.179v-509.233c0-15.336 12.673-28.009 28.009-28.009h789.263c15.336 0 28.009 12.673 28.009 28.009v509.233h22.179c15.336 0 27.438 12.166 27.438 27.438v156.903c0 15.336-12.673 27.438-27.438 27.438zM302.475 764.364c-14.258 27.438-14.258 59.693 0.506 87.196l22.179 40.682c16.349 30.1 46.513 48.098 80.795 48.098 28.515 0 54.435-12.673 72.367-34.853l51.774-66.031c0.506-0.506 1.078-1.078 1.584-1.584l7.921-10.583c1.584-2.091 3.675-3.169 6.336-3.169 0 0 0 0 0 0 2.662 0 4.752 1.078 6.336 3.169l61.277 78.198c17.426 22.179 43.851 34.853 72.367 34.853 34.346 0 64.446-17.933 80.795-48.098l22.179-40.682c14.764-26.931 15.336-59.693 0.506-87.196-14.258-27.438-41.76-45.435-72.367-48.604l-72.367-6.843c-3.169-0.506-5.259-2.091-6.843-4.752s-1.078-5.83 1.078-7.921l56.525-74.459-53.357-40.176-90.871 119.894c-1.584 2.091-3.675 3.169-6.336 3.169s-4.752-1.078-6.336-3.169l-98.794-121.479-52.279 42.267 59.693 73.951c2.091 2.091 2.091 5.259 1.078 8.427-1.078 2.662-3.675 4.752-6.843 4.752l-67.108 6.336c-30.1 3.169-57.031 21.101-71.862 48.604zM497.399-1.135v626.025l47.527 58.616 50.19-66.537v-618.104h-97.715z" />
<glyph unicode="&#xe913;" glyph-name="user" horiz-adv-x="1012" d="M981.357 212.999l-51.857 31.823c-97.035 59.715-206.245 100.568-309.565 116.675 43.213 30.643 78.175 76.605 100.177 126.889l3.929 1.179c1.179 12.182 3.929 24.356 8.644 36.538 0.783 2.359 1.962 4.32 3.536 6.287 6.677 24.751 10.608 49.5 10.608 73.855v171.675c0 103.321-84.071 187.39-187.39 187.39h-112.355c-103.321 0-187.39-84.071-187.39-187.39v-171.675c0-91.925 51.463-193.673 129.246-247.101-104.89-13.749-203.496-50.287-307.994-114.317l-51.857-31.823c-7.857-4.716-12.57-13.356-12.57-22.785v-190.139c0-14.535 11.786-26.715 26.715-26.715h925.552c14.535 0 26.715 11.786 26.715 26.715v190.139c-1.574 9.428-6.677 18.073-14.144 22.785z" />
<glyph unicode="&#xe914;" glyph-name="mail" d="M896 821.333h-768c-70.688 0-128-57.344-128-128v-416c0-70.688 57.312-128 128-128h768c70.688 0 128 57.312 128 128v416c0 70.656-57.312 128-128 128zM64 653.333l223.968-168-223.968-168v336zM960 277.333c0-35.328-28.736-64-64-64h-768c-35.296 0-64 28.672-64 64l250.624 188 139.776-104.864c17.056-12.736 37.312-19.2 57.6-19.2 20.256 0 40.512 6.432 57.568 19.2l139.808 104.864 250.624-188zM960 317.333l-224 168 224 168v-336zM550.368 386.069c-11.168-8.384-24.416-12.8-38.368-12.8s-27.232 4.448-38.4 12.8l-409.6 307.264c0 35.296 28.704 64 64 64h768c35.264 0 64-28.704 64-64l-409.632-307.264z" />
<glyph unicode="&#xe915;" glyph-name="wallet" d="M582.621 236.138c-38.983 0-70.621 31.638-70.621 70.621v70.621c0 39.018 31.638 70.621 70.621 70.621h423.724v-211.862h-423.724zM635.586 392.104c-29.237 0-52.966-23.729-52.966-52.966 0-29.272 23.729-52.966 52.966-52.966 29.272 0 52.966 23.693 52.966 52.966 0 29.237-23.693 52.966-52.966 52.966zM476.69 377.379v-70.621c0-58.474 47.457-105.931 105.931-105.931h353.103v-141.241c0-58.474-47.422-105.931-105.931-105.931h-741.517c-58.474 0-105.931 47.457-105.931 105.931v670.897c0 58.509 47.457 105.931 105.931 105.931h340.109l-82.944-34.569h-274.785c-29.237 0-52.966-23.729-52.966-52.966 0-29.272 23.729-52.966 52.966-52.966h865.068v-212.604h-353.103c-58.474 0-105.931-47.422-105.931-105.931zM123.622 624.552h-70.621v-70.621h35.31v35.31h35.31v35.31zM123.622 518.621h-70.621v-70.621h36.758l-1.448 35.31 35.31-0.742v36.052zM123.622 412.69h-70.621v-70.621h36.052l-0.742 35.31h35.31v35.31zM123.622 306.759h-70.621v-70.621h36.052l-0.742 35.31 35.31-0.742v36.052zM123.622 200.828h-70.621v-70.621h35.31v35.31h35.31v35.31zM123.622 94.897h-70.621v-70.621h36.052l-0.742 34.569h35.31v36.052zM264.863 732.672l414.897 174.362 79.448-174.362h-494.345zM746.673 836.414h83.121c30.932 0 58.474-13.453 77.859-34.569h-144.102l-16.878 34.569z" />
<glyph unicode="&#xe916;" glyph-name="pencil" d="M864 960c88.364 0 160-71.634 160-160 0-36.020-11.91-69.258-32-96l-64-64-224 224 64 64c26.742 20.090 59.978 32 96 32zM64 224l-64-288 288 64 592 592-224 224-592-592zM715.578 596.422l-448-448-55.156 55.156 448 448 55.156-55.156z" />
<glyph unicode="&#xe917;" glyph-name="image" d="M959.884 832c0.040-0.034 0.082-0.076 0.116-0.116v-767.77c-0.034-0.040-0.076-0.082-0.116-0.116h-895.77c-0.040 0.034-0.082 0.076-0.114 0.116v767.772c0.034 0.040 0.076 0.082 0.114 0.114h895.77zM960 896h-896c-35.2 0-64-28.8-64-64v-768c0-35.2 28.8-64 64-64h896c35.2 0 64 28.8 64 64v768c0 35.2-28.8 64-64 64v0zM832 672c0-53.020-42.98-96-96-96s-96 42.98-96 96 42.98 96 96 96 96-42.98 96-96zM896 128h-768v128l224 384 256-320h64l224 192z" />
<glyph unicode="&#xe930;" glyph-name="folder-open" d="M832 21.333l192 512h-832l-192-512zM128 597.333l-128-576v832h288l128-128h416v-128z" />
<glyph unicode="&#xe947;" glyph-name="location" d="M512 960c-176.732 0-320-143.268-320-320 0-320 320-704 320-704s320 384 320 704c0 176.732-143.27 320-320 320zM512 448c-106.040 0-192 85.96-192 192s85.96 192 192 192 192-85.96 192-192-85.96-192-192-192z" />
<glyph unicode="&#xe9ac;" glyph-name="bin" d="M128 640v-640c0-35.2 28.8-64 64-64h576c35.2 0 64 28.8 64 64v640h-704zM320 64h-64v448h64v-448zM448 64h-64v448h64v-448zM576 64h-64v448h64v-448zM704 64h-64v448h64v-448zM848 832h-208v80c0 26.4-21.6 48-48 48h-224c-26.4 0-48-21.6-48-48v-80h-208c-26.4 0-48-21.6-48-48v-80h832v80c0 26.4-21.6 48-48 48zM576 832h-192v63.198h192v-63.198z" />
<glyph unicode="&#xea13;" glyph-name="enter" d="M384 469.333h-320v128h320v128l192-192-192-192zM1024 981.333v-832l-384-192v192h-384v256h64v-192h320v576l256 128h-576v-256h-64v320z" />
<glyph unicode="&#xea14;" glyph-name="exit" d="M768 341.333v128h-320v128h320v128l192-192zM704 405.333v-256h-320v-192l-384 192v832h704v-320h-64v256h-512l256-128v-576h256v192z" />
<glyph unicode="&#xea2e;" glyph-name="loop" d="M889.68 793.68c-93.608 102.216-228.154 166.32-377.68 166.32-282.77 0-512-229.23-512-512h96c0 229.75 186.25 416 416 416 123.020 0 233.542-53.418 309.696-138.306l-149.696-149.694h352v352l-134.32-134.32zM928 448c0-229.75-186.25-416-416-416-123.020 0-233.542 53.418-309.694 138.306l149.694 149.694h-352v-352l134.32 134.32c93.608-102.216 228.154-166.32 377.68-166.32 282.77 0 512 229.23 512 512h-96z" />
<glyph unicode="&#xf002;" glyph-name="search" horiz-adv-x="1061" d="M727.177 538.959q0 113.841-80.92 194.761t-194.761 80.92-194.761-80.92-80.92-194.761 80.92-194.761 194.761-80.92 194.761 80.92 80.92 194.761zM1042.24 26.982q0-31.998-23.383-55.383t-55.383-23.383q-33.229 0-55.383 23.383l-211.068 210.453q-110.149-76.304-245.528-76.304-87.996 0-168.301 34.152t-138.455 92.303-92.303 138.455-34.152 168.301 34.152 168.301 92.303 138.455 138.455 92.303 168.301 34.152 168.301-34.152 138.455-92.303 92.303-138.455 34.152-168.301q0-135.379-76.304-245.528l211.068-211.068q22.768-22.768 22.768-55.383z" />
<glyph unicode="&#xf00c;" glyph-name="check" d="M954.857 627.428q0-22.857-16-38.857l-491.429-491.429q-16-16-38.857-16t-38.857 16l-284.571 284.571q-16 16-16 38.857t16 38.857l77.714 77.714q16 16 38.857 16t38.857-16l168-168.571 374.857 375.429q16 16 38.857 16t38.857-16l77.714-77.714q16-16 16-38.857z" />
<glyph unicode="&#xf06b;" glyph-name="gift2" horiz-adv-x="1134" d="M684.965 96.963v528.593h-236.244v-528.593q0-18.457 13.289-28.422t33.96-9.967h141.745q20.672 0 33.96 9.967t13.289 28.422zM348.317 720.053h143.962l-93.022 118.858q-19.195 22.885-50.941 22.885-29.53 0-50.201-20.672t-20.672-50.201 20.672-50.201 50.201-20.672zM856.24 790.926q0 29.53-20.672 50.201t-50.201 20.672q-31.744 0-50.941-22.885l-92.284-118.858h143.222q29.53 0 50.201 20.672t20.672 50.201zM1133.826 601.933v-236.244q0-10.336-6.645-16.98t-16.98-6.645h-70.872v-307.114q0-29.53-20.672-50.201t-50.201-20.672h-803.225q-29.53 0-50.201 20.672t-20.672 50.201v307.114h-70.872q-10.336 0-16.98 6.645t-6.645 16.98v236.244q0 10.336 6.645 16.98t16.98 6.645h324.833q-68.657 0-117.013 48.355t-48.355 117.013 48.355 117.013 117.013 48.355q78.994 0 124.027-56.846l94.498-121.813 94.498 121.813q45.033 56.846 124.027 56.846 68.657 0 117.013-48.355t48.355-117.013-48.355-117.013-117.013-48.355h324.833q10.336 0 16.98-6.645t6.645-16.98z" />
<glyph unicode="&#xf283;" glyph-name="card" horiz-adv-x="1317" d="M-0.227 112.647v347.531h1316.957v-347.531q0-37.723-26.864-64.59t-64.59-26.864h-1134.046q-37.723 0-64.59 26.864t-26.864 64.59zM365.595 240.685v-73.164h219.494v73.164h-219.494zM146.101 240.685v-73.164h146.328v73.164h-146.328zM1225.275 899.164q37.723 0 64.59-26.864t26.864-64.59v-128.038h-1316.957v128.038q0 37.723 26.864 64.59t64.59 26.864h1134.046z" />
<glyph unicode="&#xf290;" glyph-name="bag" d="M1004 167.619l20-178.857q1.714-16-9.143-28.571-10.857-12-27.429-12h-950.857q-16.571 0-27.429 12-10.857 12.571-9.143 28.571l20 178.857h984zM950.857 647.047l49.143-442.857h-976l49.143 442.857q1.714 13.714 12 23.143t24.571 9.429h146.286v-73.143q0-30.286 21.429-51.714t51.714-21.429 51.714 21.429 21.429 51.714v73.143h219.429v-73.143q0-30.286 21.429-51.714t51.714-21.429 51.714 21.429 21.429 51.714v73.143h146.286q14.286 0 24.571-9.429t12-23.143zM731.429 752.761v-146.286q0-14.857-10.857-25.714t-25.714-10.857-25.714 10.857-10.857 25.714v146.286q0 60.571-42.857 103.429t-103.429 42.857-103.429-42.857-42.857-103.429v-146.286q0-14.857-10.857-25.714t-25.714-10.857-25.714 10.857-10.857 25.714v146.286q0 90.857 64.286 155.143t155.143 64.286 155.143-64.286 64.286-155.143z" />
</font>
</defs>
</svg>
