<?xml version="1.0" encoding="UTF-8"?><svg width="53px" height="20px" viewBox="0 0 53 20" version="1.1" xmlns="http://www.w3.org/2000/svg" xmlns:xlink="http://www.w3.org/1999/xlink">        <title>Artboard</title>    <desc>Created with Sketch.</desc>    <defs></defs>    <g id="Page-1" stroke="none" stroke-width="1" fill="none" fill-rule="evenodd">        <g id="g2984" transform="translate(0.000000, 6.000000)" fill="#0055A5">            <path d="M28.9733333,0.318181818 L28.9733333,6.74515938 L29.9819135,6.74515938 L29.9819135,4.87913194 C30.179069,5.05898994 30.3962207,5.16697852 30.628808,5.16697852 C30.962078,5.16697852 31.236061,4.98269768 31.4511079,4.61413612 C31.6924654,4.203927 31.8127935,3.59838023 31.8127935,2.8059728 C31.8127935,2.25313035 31.7163206,1.75557215 31.5279354,1.33172628 L31.4949592,1.2624367 L31.461983,1.20494109 L31.4398819,1.14744547 L31.4069058,1.10137527 L31.3739296,1.04387966 L31.3300782,0.986384042 L31.2971021,0.940313839 L31.2641259,0.894243636 L31.2202745,0.848173433 L31.1872984,0.80210323 L31.143447,0.756033027 L31.0995957,0.721388235 L31.0557444,0.675318032 L31.0118931,0.640673239 L30.9680418,0.606028447 L30.9241904,0.571383655 L30.8694641,0.548532833 L30.8256128,0.513888041 L30.7817614,0.49103722 L30.727035,0.468186398 L30.6723085,0.444967017 L30.6175821,0.421747635 L30.5628556,0.398896814 L30.5081292,0.387471403 L30.4534029,0.376045992 L30.3986764,0.364620582 L30.3330748,0.341769761 L30.2783484,0.341769761 L30.2127468,0.33034435 L30.1580203,0.33034435 L30.092068,0.318918939 L30.0264665,0.318918939 L28.9733333,0.318918939 L28.9733333,0.318181818 Z M29.9271871,1.22816047 L30.0257648,1.22816047 C30.2801024,1.22816047 30.4776087,1.38258779 30.6175821,1.67743709 C30.7579063,1.97228639 30.8259636,2.42819712 30.8259636,3.05954314 C30.8259636,3.40046265 30.786322,3.6698812 30.6944096,3.85416203 C30.606707,4.03844286 30.4926936,4.13058323 30.3657002,4.13058323 C30.2429165,4.13058323 30.1418831,4.04323415 30.058741,3.87701289 C29.9755989,3.71595148 29.9271871,3.483389 29.9271871,3.17453436 L29.9271871,1.22816047 L29.9271871,1.22816047 Z" id="path20"></path>            <path d="M52.7022729,0 L52.6191308,0.0873491076 C52.6191308,0.0873491076 50.5100581,2.40007335 50.3521934,2.57514006 L50.3521934,0.308486076 L49.3657143,0.308486076 L49.3657143,6.74910048 L50.3521934,6.74910048 L50.3521934,4.10467082 C50.3785042,4.07260594 51.6456316,2.66248914 51.7905164,2.50142773 C51.7992867,2.73620147 51.9350503,6.74910048 51.9350503,6.74910048 L52.9436305,6.74910048 L52.7022729,0 L52.7022729,0 Z" id="path26"></path>            <path d="M47.8789294,0.0877176682 L47.8789294,0.0877176682 L47.8743689,0.0969317045 L47.8655987,0.101354442 L47.8568284,0.115359788 L47.8434976,0.128996573 L47.8259571,0.147424645 L47.8084165,0.165852729 L47.7863155,0.189072111 L47.7645652,0.212291492 L47.7382544,0.239933612 L47.7119437,0.272367041 L47.6810723,0.304431898 L47.6505518,0.336496767 L47.6196805,0.373352923 L47.5845994,0.410209089 L47.5453086,0.451487994 L47.4663763,0.539205652 L47.3832342,0.631346058 L47.2955316,0.728277773 L47.2036193,0.829632215 L47.1071463,0.935409406 L47.0061129,1.04118659 L46.9054304,1.15175508 L46.8043969,1.26711486 L46.5984711,1.49267458 L46.4977885,1.60324307 L46.3971059,1.70938881 L46.300633,1.815166 L46.2087206,1.92131174 L46.1168083,2.01824346 L46.0333155,2.11038386 L45.954383,2.19773296 L45.9150922,2.23901187 L45.8800112,2.28065933 L45.8449301,2.3175155 L45.8140589,2.35437162 L45.7835384,2.38680506 L45.7572276,2.4192385 L45.7309167,2.44688065 L45.704606,2.4745227 L45.6828557,2.49774212 L45.6653153,2.51617026 L45.6477747,2.53459829 L45.6344439,2.55302632 L45.6211131,2.56224044 L45.6123428,2.57624574 L45.6123428,0.309591768 L44.6209524,0.309591768 L44.6209524,6.75020617 L45.611992,6.75020617 L45.611992,4.1057765 C45.6383028,4.07371162 46.9057812,2.66359482 47.050315,2.50253341 C47.0590853,2.73730715 47.1951997,6.75020617 47.1951997,6.75020617 L48.1992194,6.75020617 L47.9578618,0 L47.8789294,0.0877176682 L47.8789294,0.0877176682 Z" id="path28"></path>            <path d="M42.140105,5.20576265 L42.0787131,5.12762759 L42.0260915,5.04949253 L41.9734699,4.96177489 L41.9296186,4.87442571 L41.8857673,4.78228535 L41.8461258,4.69014498 L41.8064841,4.59358179 L41.7759637,4.49665014 L41.7496528,4.39087292 L41.723342,4.28951844 L41.701241,4.17894994 L41.6837005,4.06838144 L41.6703697,3.95302165 L41.6615995,3.83766186 L41.6570388,3.71787935 L41.6524783,3.59809683 C41.6524783,2.9210492 41.8103431,2.38184355 42.1173022,1.98563975 C42.4551327,1.55257984 42.9462675,1.33623417 43.5864966,1.33623417 L43.6345577,1.33623417 L43.6345577,0.212121212 L43.5864966,0.212121212 C42.5866867,0.212121212 41.8191133,0.534612633 41.2974582,1.18401821 C40.823864,1.76929408 40.5828571,2.58455241 40.5828571,3.60731085 C40.5828571,4.59321323 40.845965,5.40847152 41.3588499,6.0213895 C41.9026062,6.66637236 42.6526391,6.99807786 43.5998274,6.99807786 L43.6478884,6.99807786 L43.6478884,5.86954211 L43.5998274,5.86954211 C42.9778404,5.86917355 42.4867057,5.64803665 42.140105,5.20576265 L42.140105,5.20576265 Z" id="path30"></path>            <path d="M34.2168678,0.106429167 C33.6864423,0.106429167 33.2630141,0.421917915 32.9560549,1.03925864 C32.657866,1.64738531 32.5066667,2.4560095 32.5066667,3.44633461 C32.5066667,4.46909315 32.6490957,5.29614538 32.9343047,5.89948079 C33.2237234,6.5168215 33.655571,6.83231023 34.2168678,6.83231023 C34.7914955,6.83231023 35.2450934,6.49839347 35.5653834,5.85341061 C35.8635723,5.24970664 36.0147716,4.43444835 36.0147716,3.43454067 C36.0147716,2.44863829 35.8611166,1.64222545 35.5541574,1.03889008 L35.5211812,0.981394464 L35.4882051,0.92389885 L35.466104,0.866403236 L35.4222527,0.820333033 L35.4001516,0.77426283 L35.3563003,0.728192627 L35.3233241,0.682122424 L35.2903479,0.636052221 L35.2573717,0.589982018 L35.2135204,0.543911815 L35.1805442,0.509267023 L35.1366929,0.47462223 L35.1037167,0.439977438 L35.0598654,0.405332645 L35.0268893,0.370687853 L34.983038,0.336043061 L34.9391867,0.312823679 L34.8953353,0.289972858 L34.851484,0.267122036 L34.8076327,0.244271215 L34.7637814,0.221051833 L34.7199301,0.197832452 L34.6760787,0.186407041 L34.6213523,0.163187659 L34.577501,0.151762248 L34.5227746,0.140336838 L34.4789233,0.128911427 L34.435072,0.128911427 L34.3803455,0.117486017 L34.3256191,0.106060606 L34.2708926,0.106060606 L34.2168678,0.106060606 L34.2168678,0.106429167 Z M34.2168678,1.14282445 C34.4975162,1.14282445 34.7037928,1.35253602 34.8307862,1.77638189 C34.9535699,2.1585803 35.0061914,2.71621403 35.0061914,3.43490923 C35.0061914,4.130385 34.9447996,4.70865818 34.8090359,5.15093208 L34.7869348,5.19700236 L34.7760597,5.23164717 L34.7651846,5.26629186 L34.7543095,5.30093667 L34.7434343,5.33558147 L34.7216842,5.37022627 L34.710809,5.40487108 L34.688708,5.4280905 L34.6778328,5.4627353 L34.6557318,5.48595462 L34.6448567,5.52059942 L34.6339815,5.54381885 L34.6122313,5.56666961 L34.5901302,5.58952047 L34.5792551,5.61237123 L34.5575048,5.62379671 L34.5466297,5.64664747 L34.5245286,5.66949833 L34.5027784,5.68092371 L34.4806773,5.70377458 L34.4585762,5.71519995 L34.4364752,5.72662533 L34.4256001,5.73805082 L34.403499,5.7494762 L34.3813979,5.7494762 L34.3592969,5.76090158 L34.3375466,5.77232706 L34.3154455,5.77232706 L34.2933445,5.78375244 L34.2712434,5.78375244 L34.2491424,5.78375244 L34.2161662,5.78375244 C33.9751594,5.78375244 33.7930887,5.56740673 33.6569742,5.13876958 C33.5166501,4.69170429 33.4485929,4.1182225 33.4485929,3.44559748 C33.4485929,2.75933573 33.5166501,2.19248796 33.6569742,1.76421935 C33.7850201,1.35474739 33.9713005,1.14282445 34.2168678,1.14282445 L34.2168678,1.14282445 Z" id="path34"></path>            <path d="M38.3996046,5.20576265 L38.3732939,5.16890648 L38.3424226,5.12762759 L38.2852404,5.04949253 L38.2371794,4.96177489 L38.1887676,4.87442571 L38.1449163,4.78228535 L38.1056254,4.69014498 L38.0705444,4.59358179 L38.0354634,4.49665014 L38.0091526,4.39087292 L37.9828418,4.28951844 L37.9653013,4.17894994 L37.9477607,4.06838144 L37.9347808,3.95302165 L37.9260106,3.83766186 L37.9172402,3.71787935 L37.9172402,3.59809683 C37.9172402,2.9210492 38.0705444,2.38184355 38.3820641,1.98563975 C38.7153341,1.55257984 39.2064688,1.33623417 39.8466979,1.33623417 L39.8993196,1.33623417 L39.8993196,0.212121212 L39.8466979,0.212121212 C38.8510978,0.212121212 38.0793147,0.534612633 37.5622201,1.18401821 C37.0840653,1.76929408 36.847619,2.58455241 36.847619,3.60731085 C36.847619,4.59321323 37.1061664,5.40847152 37.6236118,6.0213895 C38.1628076,6.66637236 38.9170502,6.99807786 39.8645893,6.99807786 L39.9126503,6.99807786 L39.9126503,5.86954211 L39.8645893,5.86954211 C39.2369893,5.86917355 38.7458546,5.64803665 38.3996046,5.20576265 L38.3996046,5.20576265 Z" id="path36"></path>            <polygon id="polygon38" points="0 0.318181818 0 6.79086111 1.13592438 6.79086111 1.13592438 1.39143327 2.53916635 1.39143327 2.53916635 6.79086111 3.67053018 6.79086111 3.67053018 0.318181818"></polygon>            <path d="M7.17898152,0.212489773 C6.57804315,0.212489773 6.09567872,0.530189895 5.7539893,1.15711322 C5.4161588,1.7700312 5.24952381,2.5808668 5.24952381,3.57561464 C5.24952381,4.6027958 5.40738853,5.44385344 5.73188824,6.05198014 C6.06059767,6.67411214 6.54752263,6.98480958 7.17898152,6.98480958 C7.82342035,6.98480958 8.33209558,6.66010683 8.69167635,6.00590995 C9.02950683,5.39778326 9.20701695,4.57552232 9.20701695,3.57561464 C9.20701695,2.58049824 9.02284145,1.76487133 8.68080125,1.15711322 L8.64782506,1.0996176 L8.61484886,1.04212199 L8.58187266,0.984626374 L8.53802137,0.938556171 L8.50504518,0.881060558 L8.46119388,0.834990355 L8.42821769,0.788920152 L8.3843664,0.742849948 L8.3405151,0.696779745 L8.30753891,0.662134953 L8.26368752,0.61606475 L8.21983622,0.581419958 L8.17598493,0.546775165 L8.13213364,0.512130373 L8.07740715,0.47748558 L8.03355586,0.454266198 L7.98970457,0.419621406 L7.94585328,0.396402024 L7.89112679,0.373182642 L7.8472755,0.350331821 L7.79254911,0.327112439 L7.73782263,0.303893058 L7.69397134,0.292467647 L7.63924485,0.269248265 L7.58451846,0.257822855 L7.52979197,0.246397444 L7.47506559,0.234972033 L7.4203391,0.223546623 L7.35438681,0.223546623 L7.29966032,0.223546623 L7.24493389,0.212121212 L7.17898152,0.212121212 L7.17898152,0.212489773 Z M7.19020746,1.30674923 C7.49716669,1.30674923 7.71431829,1.51424943 7.85885222,1.92888126 C7.99040619,2.30665693 8.05600777,2.857288 8.05600777,3.5759832 C8.05600777,4.26224485 7.97918029,4.8360953 7.82587612,5.26915529 C7.67678157,5.69300115 7.47085587,5.89091873 7.19020746,5.89091873 L7.15723127,5.89091873 L7.13513021,5.89091873 L7.11302915,5.89091873 L7.0912789,5.89091873 L7.06917784,5.87949335 L7.04707678,5.86806786 L7.02497572,5.86806786 L7.00287466,5.85664248 L6.9811244,5.84521711 L6.95902334,5.83379162 L6.93692228,5.82236624 L6.91482122,5.81094086 L6.89272016,5.78772144 L6.87096991,5.77629606 L6.84886885,5.7534452 L6.82676779,5.74201982 L6.81589266,5.71880039 L6.7937916,5.69594964 L6.77169054,5.67273021 L6.76081542,5.64951089 L6.73871436,5.62629147 L6.71661329,5.59164667 L6.70573816,5.56842735 L6.6836371,5.54520792 L6.67276197,5.51056312 L6.65101173,5.47591832 L6.64013661,5.452699 L6.62926148,5.40662871 L6.60716042,5.37198391 L6.5962853,5.33733911 L6.58541017,5.30269441 L6.56330911,5.26804961 C6.41000492,4.82098432 6.33317743,4.25450508 6.33317743,3.58630289 C6.33317743,2.90004114 6.41000492,2.34019598 6.56330911,1.91635016 C6.7099479,1.50724676 6.91376878,1.30674923 7.19020746,1.30674923 L7.19020746,1.30674923 Z" id="path42"></path>            <polygon id="polygon44" points="15.3447619 0.318181818 15.3447619 1.39143327 16.2873897 1.39143327 16.2873897 6.79086111 17.4233141 6.79086111 17.4233141 1.39143327 18.3792727 1.39143327 18.3792727 0.318181818"></polygon>            <path d="M12.8449984,2.57119906 L12.2268703,2.57119906 C11.9725327,2.57119906 11.779587,2.51149203 11.6610131,2.39170952 C11.5733104,2.30878315 11.5336688,2.19342336 11.5336688,2.04599871 L11.5336688,0.318181818 L10.3980952,0.318181818 L10.3980952,2.16578124 C10.3980952,2.58962709 10.5601696,2.95339747 10.8758991,3.23903268 C11.1870681,3.52024517 11.5733104,3.66287855 12.0160332,3.66287855 L12.8446476,3.66287855 L12.8446476,6.79086111 L13.980572,6.79086111 L13.980572,0.318181818 L12.8446476,0.318181818 L12.8446476,2.57119906 L12.8449984,2.57119906 Z" id="path46"></path>            <path d="M19.8940957,0.318918939 L19.6857143,6.79196679 L20.8149733,6.79196679 C20.8149733,6.79196679 20.9202164,3.76755008 20.9244261,3.62454814 L22.3385433,3.62454814 C22.351874,3.75833606 22.6672527,6.79196679 22.6672527,6.79196679 L23.8073868,6.79196679 L23.281171,2.05816124 L23.281171,2.00066563 L23.281171,1.94317002 L23.281171,1.8856744 L23.2702959,1.82817879 L23.2702959,1.77068318 L23.2594208,1.72461297 L23.2594208,1.66711736 L23.2485456,1.62104716 L23.2376705,1.56355154 L23.2267954,1.51748134 L23.2159203,1.47141114 L23.2050451,1.42534093 L23.19417,1.37927073 L23.1720689,1.33320053 L23.1611938,1.28713032 L23.1503187,1.24106012 L23.1282176,1.19498992 L23.1061166,1.16034513 L23.0840155,1.11427492 L23.0731404,1.07963013 L23.0510393,1.03355993 L23.0289382,0.998915135 L22.9959621,0.964270342 L22.973861,0.918200139 L22.9517599,0.894980758 L22.9187837,0.848910555 L22.8966827,0.825691173 L22.8637065,0.79104638 L22.8307303,0.756401588 L22.7977542,0.733182206 L22.7756532,0.698537414 L22.7318018,0.663892621 C22.4469437,0.428750308 22.0607013,0.318181818 21.5699175,0.318181818 L19.8940957,0.318181818 L19.8940957,0.318918939 Z M20.9795033,1.38995902 L21.3850404,1.38995902 C21.6786687,1.38995902 21.876175,1.4891021 21.9989586,1.67780565 C22.0999921,1.83444434 22.1676985,2.13371638 22.2073401,2.55313948 L20.9465272,2.55313948 L20.9465272,2.54171411 L20.9465272,2.53028873 L20.9465272,2.51886324 L20.9465272,2.50743786 L20.9465272,2.49601248 L20.9465272,2.484587 L20.9465272,2.47316162 L20.9465272,2.43851682 L20.9465272,2.40387202 L20.9465272,2.36922721 L20.9574023,2.33458252 L20.9574023,2.28851226 L20.9574023,2.25386747 L20.9574023,2.20779726 L20.9574023,2.16172706 L20.9574023,2.11565686 L20.9574023,2.06958665 L20.9574023,1.96602084 L20.9574023,1.87388043 L20.9682774,1.82781023 L20.9682774,1.78174003 L20.9682774,1.73566982 L20.9682774,1.68959962 L20.9682774,1.64352942 L20.9682774,1.60888462 L20.9682774,1.56281442 L20.9682774,1.52816963 L20.9682774,1.49352484 L20.9791525,1.47030545 L20.9791525,1.45888004 L20.9791525,1.44745463 L20.9791525,1.43602922 L20.9791525,1.42460381 L20.9791525,1.4131784 L20.9791525,1.40175299 L20.9791525,1.38995902 L20.9795033,1.38995902 Z" id="path50"></path>        </g>        <g id="Artboard"></g>    </g></svg>